<svg width="24" height="24" viewBox="0 0 24 24" fill="none" xmlns="http://www.w3.org/2000/svg">
<path d="M21.9905 12.1871C21.9905 11.3677 21.9224 10.7697 21.7752 10.1497H12.1992V13.848H17.8201C17.7068 14.7671 17.0948 16.1512 15.7349 17.0813L15.7159 17.2051L18.7436 19.4969L18.9534 19.5174C20.8798 17.7789 21.9905 15.221 21.9905 12.1871Z" fill="#4285F4"/>
<path d="M12.2012 21.9312C14.9549 21.9312 17.2667 21.0453 18.9553 19.5173L15.7369 17.0812C14.8756 17.6681 13.7197 18.0777 12.2012 18.0777C9.50406 18.0777 7.21492 16.3393 6.39891 13.9365L6.2793 13.9464L3.13102 16.3271L3.08984 16.439C4.76703 19.6944 8.21211 21.9312 12.2012 21.9312Z" fill="#34A853"/>
<path d="M6.39695 13.9366C6.18164 13.3165 6.05703 12.6521 6.05703 11.9656C6.05703 11.279 6.18164 10.6147 6.38562 9.9946L6.37992 9.86254L3.19219 7.4436L3.08789 7.49208C2.39664 8.84299 2 10.36 2 11.9656C2 13.5712 2.39664 15.0881 3.08789 16.439L6.39695 13.9366Z" fill="#FBBC05"/>
<path d="M12.2012 5.85336C14.1163 5.85336 15.4082 6.66168 16.1448 7.33718L19.0233 4.59107C17.2555 2.9855 14.9549 2 12.2012 2C8.21211 2 4.76703 4.23672 3.08984 7.49214L6.38758 9.99466C7.21492 7.59183 9.50406 5.85336 12.2012 5.85336Z" fill="#EB4335"/>
</svg>
