<svg width="24" height="24" viewBox="0 0 24 24" fill="none" xmlns="http://www.w3.org/2000/svg">
<path d="M21.0005 12.1651C21.0005 11.4269 20.9392 10.8882 20.8065 10.3296H12.1797V13.6614H17.2434C17.1414 14.4893 16.5901 15.7363 15.365 16.5742L15.3478 16.6857L18.0754 18.7504L18.2644 18.7688C19.9999 17.2027 21.0005 14.8983 21.0005 12.1651Z" fill="#D67644"/>
<path d="M12.1809 20.9435C14.6617 20.9435 16.7444 20.1454 18.2656 18.7688L15.3662 16.5742C14.5903 17.1029 13.5489 17.472 12.1809 17.472C9.75114 17.472 7.68888 15.9059 6.95375 13.7412L6.84599 13.7502L4.00975 15.8949L3.97266 15.9956C5.48361 18.9284 8.58723 20.9435 12.1809 20.9435Z" fill="#D67644"/>
<path d="M6.95334 13.7415C6.75937 13.1829 6.64711 12.5843 6.64711 11.9659C6.64711 11.3474 6.75937 10.7489 6.94314 10.1902L6.938 10.0713L4.06621 7.89209L3.97225 7.93576C3.34952 9.15278 2.99219 10.5194 2.99219 11.9659C2.99219 13.4123 3.34952 14.7789 3.97225 15.9959L6.95334 13.7415Z" fill="#D67644"/>
<path d="M12.1809 6.45923C13.9063 6.45923 15.0701 7.18744 15.7337 7.79598L18.3269 5.32205C16.7343 3.87561 14.6617 2.98779 12.1809 2.98779C8.58724 2.98779 5.48361 5.00282 3.97266 7.93558L6.94354 10.1901C7.68888 8.0254 9.75114 6.45923 12.1809 6.45923Z" fill="#D67644"/>
</svg>
