<svg width="24" height="24" viewBox="0 0 24 24" fill="none" xmlns="http://www.w3.org/2000/svg">
<path fill-rule="evenodd" clip-rule="evenodd" d="M3 8C3 5.23858 5.23858 3 8 3H16C18.7614 3 21 5.23858 21 8V16C21 18.7614 18.7614 21 16 21H8C5.23858 21 3 18.7614 3 16V8ZM16 12C16 14.2091 14.2091 16 12 16C9.79086 16 8 14.2091 8 12C8 9.79086 9.79086 8 12 8C14.2091 8 16 9.79086 16 12ZM17 8C17.5523 8 18 7.55228 18 7C18 6.44772 17.5523 6 17 6C16.4477 6 16 6.44772 16 7C16 7.55228 16.4477 8 17 8Z" fill="url(#paint0_radial_1555_11346)"/>
<defs>
<radialGradient id="paint0_radial_1555_11346" cx="0" cy="0" r="1" gradientUnits="userSpaceOnUse" gradientTransform="translate(5.5 21.5) rotate(-52.3524) scale(22.102)">
<stop offset="0.0327193" stop-color="#FEBD53"/>
<stop offset="0.310873" stop-color="#F2243E"/>
<stop offset="0.707619" stop-color="#B52AA9"/>
<stop offset="1" stop-color="#5342D6"/>
</radialGradient>
</defs>
</svg>
