<svg width="128" height="128" viewBox="0 0 128 128" fill="none" xmlns="http://www.w3.org/2000/svg">
<path d="M40 48C40 34.7452 50.7452 24 64 24H120V80C120 93.2548 109.255 104 96 104H64C50.7452 104 40 93.2548 40 80V48Z" fill="#E9C19D"/>
<path fill-rule="evenodd" clip-rule="evenodd" d="M31.6769 21.787C41.0667 17.304 53.2356 16.0304 63.3352 18.472C64.758 18.816 66.9438 19.8455 69.0336 20.9424C71.1495 22.053 73.2535 23.2796 74.5478 24.072C74.8462 24.2547 74.9787 24.6196 74.8669 24.9512C74.3963 26.3473 73.6802 28.21 73.0298 29.8959L72.9556 30.0883C72.3277 31.7154 71.7812 33.1317 71.5647 33.8276C70.6765 36.6824 71.3886 38.8698 72.5896 41.0608C72.9687 41.7523 73.3752 42.4089 73.7965 43.0892C74.0671 43.5263 74.3438 43.9731 74.6233 44.4455C75.2846 45.5633 75.9174 46.757 76.35 48.0771C79.1997 50.7021 85.035 56.1551 86.4534 57.7916C86.5002 57.8456 86.5517 57.9045 86.6074 57.9682C87.6034 59.107 89.9536 61.794 91.319 66.1685C92.7651 70.8017 93.0881 77.259 89.692 85.7113C87.597 90.9252 84.5675 96.0966 81.7223 100.571C80.5342 102.44 79.3873 104.173 78.3511 105.74C76.8821 107.961 75.6354 109.846 74.8083 111.302C74.6037 111.662 74.1459 111.788 73.7857 111.584C73.4256 111.379 73.2995 110.921 73.504 110.561C74.3503 109.071 75.6489 107.107 77.1494 104.837C78.1832 103.273 79.3129 101.565 80.4565 99.7662C83.2869 95.3151 86.2573 90.2362 88.3002 85.152C91.5757 76.9999 91.2238 70.898 89.8871 66.6154C88.6171 62.5464 86.4415 60.0576 85.471 58.9474C85.4167 58.8853 85.3662 58.8275 85.3198 58.774C83.9476 57.1907 78.0177 51.65 75.188 49.0462C75.0905 48.9565 75.0185 48.8426 74.9793 48.716C74.5978 47.4833 74.004 46.3446 73.3323 45.2093C73.0872 44.7949 72.824 44.3694 72.5576 43.9385C72.1164 43.225 71.6663 42.497 71.2742 41.7818C69.9724 39.4066 69.0752 36.7801 70.1324 33.382C70.3644 32.6362 70.9249 31.1839 71.534 29.6056C71.566 29.5227 71.5981 29.4395 71.6303 29.3559C72.1971 27.887 72.8008 26.3166 73.2499 25.0392C71.9725 24.2712 70.1569 23.2261 68.3365 22.2706C66.229 21.1644 64.1992 20.2241 62.9827 19.93C53.3717 17.6066 41.7726 18.7681 32.7524 22.939C32.785 26.1113 33.1443 28.4585 33.735 31.282C33.9248 32.189 34.1398 33.1506 34.376 34.2065C34.9109 36.5985 35.554 39.4746 36.2569 43.2959C36.3941 44.0419 36.4659 45.2916 36.5006 46.7546C36.5358 48.2353 36.5338 49.9876 36.5116 51.7693C36.4673 55.3334 36.342 59.036 36.2686 60.9602C36.2166 62.3217 36.345 63.6647 36.628 64.9844C37.7507 66.0952 40.5103 68.2844 45.1749 69.072C51.8773 70.2037 56.9805 68.1202 61.3234 64.5475C65.2735 61.2979 68.5609 56.8475 71.817 52.4396C72.1762 51.9534 72.5349 51.4678 72.8941 50.9843C73.0177 50.818 73.2046 50.7102 73.4105 50.6865C73.6164 50.6629 73.823 50.7255 73.9811 50.8595C74.2821 51.1147 74.5856 51.5649 74.674 52.1541C74.7661 52.7677 74.6163 53.4674 74.1083 54.1852C68.5255 62.0726 64.6082 70.0128 60.5016 78.3365C59.0061 81.3677 57.4855 84.4497 55.8503 87.5986C54.3294 91.4108 52.7251 96.1321 51.7386 103.038C51.68 103.448 51.3001 103.733 50.89 103.674C50.48 103.616 50.1951 103.236 50.2536 102.826C51.2139 96.1038 52.7517 91.393 54.2381 87.5967C50.4782 85.2713 46.3738 82.1946 42.9077 78.5741C40.264 75.8126 37.9685 72.7103 36.4932 69.3613C36.509 70.8333 36.4581 72.3467 36.2564 73.4293C36.1416 74.0456 36.0446 75.5341 36.0216 77.6235C35.9989 79.6905 36.0489 82.2925 36.2129 85.1033C36.5418 90.7424 37.3259 97.1511 38.8697 101.767C39.0011 102.16 38.7892 102.585 38.3963 102.716C38.0035 102.848 37.5786 102.636 37.4472 102.243C35.8385 97.4331 35.0463 90.8629 34.7154 85.1907C34.5494 82.3459 34.4986 79.7092 34.5217 77.607C34.5446 75.5272 34.64 73.9159 34.7818 73.1546C34.972 72.1335 35.0172 70.5683 34.9874 68.9809C34.9578 67.4094 34.8563 65.8758 34.7722 64.9488C34.7518 64.7244 34.8332 64.509 34.9841 64.3554C34.8017 63.2233 34.7251 62.0713 34.7697 60.903C34.8429 58.9843 34.9677 55.2962 35.0118 51.7506C35.0338 49.9774 35.0356 48.2452 35.001 46.7902C34.966 45.3176 34.8945 44.1805 34.7817 43.5673C34.0838 39.7737 33.4526 36.9515 32.92 34.57C32.6816 33.504 32.4629 32.5263 32.2668 31.5893C31.633 28.56 31.2501 26.0144 31.25 22.4639C31.25 22.1748 31.4161 21.9115 31.6769 21.787ZM37.3743 67.5415C38.6969 71.13 41.091 74.5074 43.9912 77.5368C47.3029 80.9961 51.2361 83.9613 54.8723 86.2248C56.3445 83.3698 57.7353 80.5506 59.1115 77.761C62.7908 70.3032 66.3654 63.0574 71.1111 55.9058C68.4351 59.4641 65.5836 62.9851 62.2763 65.7059C57.6707 69.4948 52.1408 71.7695 44.9252 70.5511C41.5159 69.9754 39.0269 68.701 37.3743 67.5415ZM47.9716 47.0397C47.8942 46.9132 47.7786 46.8083 47.6324 46.7444C47.2529 46.5785 46.8107 46.7518 46.6449 47.1313C46.5354 47.3819 46.399 47.7832 46.3176 48.2284C46.2385 48.6614 46.1955 49.2201 46.3495 49.7397C46.4223 49.985 46.5001 50.1998 46.5836 50.3801C46.6623 50.5501 46.7662 50.7343 46.9087 50.8814C47.0356 51.0124 47.3586 51.2727 47.803 51.1517C48.1984 51.044 48.3634 50.7123 48.4201 50.5757C48.502 50.3783 48.6186 50.0408 48.6877 49.6605C48.7536 49.2974 48.7953 48.796 48.6338 48.3291C48.5639 48.1271 48.5231 47.9715 48.5003 47.8651C48.4812 47.7758 48.4779 47.7352 48.4774 47.7353C48.4773 47.7353 48.4773 47.7373 48.4774 47.7412C48.474 47.4159 48.2636 47.1402 47.9716 47.0397Z" fill="#653E28"/>
</svg>
