<svg width="128" height="128" viewBox="0 0 128 128" fill="none" xmlns="http://www.w3.org/2000/svg">
<path d="M40 48C40 34.7452 50.7452 24 64 24H120V80C120 93.2548 109.255 104 96 104H64C50.7452 104 40 93.2548 40 80V48Z" fill="#E9C19D"/>
<path fill-rule="evenodd" clip-rule="evenodd" d="M70.7104 27.25C71.1246 27.25 71.4604 27.5858 71.4604 28C71.4604 28.3515 71.4193 28.7157 71.3452 29.0849C73.8865 29.3859 76.3113 30.8542 77.8785 34.1562C82.2215 43.3067 79.468 53.5324 74.4529 61.7325C75.4924 63.111 76.3791 64.5401 77.1059 65.9908C81.5212 74.8041 81.1656 83.6211 80.4126 87.0026C80.3562 87.2561 80.1727 87.4623 79.9276 87.5478C77.6985 88.3253 76.0844 89.4589 75.2186 90.8187C74.3752 92.1433 74.1815 93.7752 74.968 95.7374C75.9239 98.1227 78.1122 99.3073 80.2453 99.2479C82.3611 99.1889 84.4133 97.9072 85.1315 95.279C85.3214 94.5838 85.2882 93.5134 84.9947 92.4673C84.6982 91.4106 84.188 90.5596 83.5921 90.1631C83.2473 89.9337 83.1537 89.4681 83.3832 89.1232C83.6126 88.7784 84.0782 88.6848 84.423 88.9143C85.4498 89.5974 86.0993 90.8516 86.4389 92.0621C86.7815 93.2831 86.8606 94.6419 86.5784 95.6744C85.674 98.984 83.0164 100.671 80.2871 100.747C77.5752 100.823 74.7831 99.3083 73.5756 96.2955C72.6313 93.9392 72.8204 91.7924 73.9533 90.0131C75.0012 88.3673 76.8017 87.121 79.0297 86.2782C79.6598 82.9015 79.8333 74.7837 75.7647 66.6627C75.1588 65.4533 74.4329 64.2557 73.5905 63.0898C69.5914 69.1535 64.3601 74.0752 59.8414 76.5146C59.5931 79.2229 58.6633 83.2338 56.6243 87.045C54.4737 91.0649 51.0571 94.9178 45.8513 96.725C33.0441 101.171 20.7311 95.059 16.2478 84.4321C14.0173 79.1451 13.3232 71.5237 15.8985 64.6467C18.492 57.7211 24.3822 51.6078 35.1782 49.3976C35.8436 49.2614 36.5029 49.1389 37.1559 49.0297C35.7981 42.6639 36.4089 36.5958 39.2618 32.4342C40.4845 30.6507 42.023 29.5934 43.6535 29.086C43.6184 29.0241 43.5841 28.9626 43.5505 28.9018C43.3506 28.539 43.4826 28.0829 43.8454 27.883C44.2082 27.683 44.6643 27.8151 44.8643 28.1778C44.9683 28.3666 45.0817 28.5632 45.2035 28.7659C47.8257 28.4812 50.4452 29.4244 52.2194 30.7424C53.1636 31.4438 53.9295 32.2962 54.3112 33.2008C54.7048 34.1336 54.6988 35.1747 53.978 36.0381C53.6441 36.4379 53.2357 36.7119 52.7669 36.845C52.305 36.9763 51.8314 36.9577 51.3781 36.8505C50.4917 36.641 49.5862 36.0699 48.7452 35.372C47.1818 34.0744 45.6136 32.1444 44.4709 30.4147C43.0226 30.7722 41.6235 31.6421 40.499 33.2824C37.9498 37.0008 37.3084 42.6376 38.6413 48.8029C54.6702 46.5871 66.7274 52.4914 73.4557 60.4818C78.1584 52.5794 80.4763 43.128 76.5234 34.7993C75.1258 31.8548 73.0373 30.7171 70.9014 30.5479C70.1576 32.4214 68.7484 34.3995 67.1923 35.7344C66.339 36.4663 65.39 37.0497 64.4307 37.2842C63.4432 37.5257 62.422 37.3969 61.5688 36.6671C61.1842 36.3381 60.9564 35.9127 60.8958 35.4357C60.8374 34.9765 60.9393 34.5186 61.1184 34.0995C61.4728 33.2704 62.1951 32.4373 63.0886 31.7091C64.7577 30.3486 67.2464 29.1759 69.8187 29.0386C69.9132 28.6573 69.9604 28.308 69.9604 28C69.9604 27.5858 70.2962 27.25 70.7104 27.25ZM69.2435 30.5976C67.2738 30.8582 65.3639 31.7897 64.0362 32.8718C63.2422 33.519 62.7201 34.1688 62.4977 34.6891C62.3884 34.9447 62.3687 35.1281 62.3838 35.2466C62.3966 35.3472 62.4372 35.436 62.5439 35.5273C62.9594 35.8828 63.4575 35.978 64.0744 35.8272C64.7196 35.6694 65.46 35.244 66.2156 34.5959C67.4294 33.5546 68.5495 32.0539 69.2435 30.5976ZM72.6225 61.8277C66.3244 54.0811 54.7129 48.1421 38.9931 50.2687C41.4526 59.599 48.2814 69.5904 59.1219 75.1985C63.4813 72.8473 68.6903 67.9393 72.6225 61.8277ZM58.3379 76.4816C47.0824 70.6213 40.017 60.2152 37.5013 50.4929C36.8344 50.6031 36.1603 50.7276 35.4791 50.8671C25.1811 52.9754 19.7129 58.738 17.3032 65.1728C14.8753 71.6561 15.5333 78.8796 17.6298 83.849C21.8006 93.7351 33.2862 99.499 45.3593 95.3079C50.1056 93.6603 53.2696 90.1358 55.3017 86.3374C57.2099 82.7706 58.0918 79.0109 58.3379 76.4816ZM46.1504 30.2153C47.1816 31.6807 48.4649 33.19 49.7032 34.2178C50.4784 34.8612 51.1704 35.2601 51.7232 35.3908C51.9895 35.4538 52.1959 35.4479 52.357 35.4021C52.5112 35.3583 52.6688 35.2656 52.8266 35.0767C53.1033 34.7453 53.1608 34.3327 52.9292 33.784C52.6858 33.2072 52.1379 32.5504 51.3249 31.9465C49.9796 30.9471 48.0762 30.2148 46.1504 30.2153Z" fill="#653E28"/>
</svg>
