<svg width="128" height="128" viewBox="0 0 128 128" fill="none" xmlns="http://www.w3.org/2000/svg">
<path d="M40 48C40 34.7452 50.7452 24 64 24H120V80C120 93.2548 109.255 104 96 104H64C50.7452 104 40 93.2548 40 80V48Z" fill="#E9C19D"/>
<path fill-rule="evenodd" clip-rule="evenodd" d="M57.2173 37.9093C55.6212 39.9277 54.7275 42.1403 54.8362 44.1332C54.8977 45.2607 55.1731 46.3827 55.5729 47.334C55.9654 48.2682 56.5112 49.1163 57.1675 49.6176C57.5017 49.8729 57.9066 50.0696 58.3623 50.0911C58.837 50.1134 59.2768 49.9411 59.6454 49.6182C60.3295 49.0187 60.7893 47.888 61.0777 46.302C61.5017 43.9699 60.7784 40.8975 59.0793 38.0381C61.1043 35.8403 64.1667 33.86 68.0067 32.8247C71.6986 31.8293 77.944 31.9434 82.8683 34.7144C85.3123 36.0897 87.421 38.1128 88.7503 40.9776C90.0809 43.8451 90.6568 47.6125 89.9374 52.516C88.5036 62.2893 80.9079 72.1145 73.3126 79.6204C69.532 83.3566 65.7855 86.4851 62.8742 88.7063C61.4185 89.817 60.1757 90.6977 59.2457 91.3122C58.7801 91.6199 58.3984 91.8572 58.1108 92.0222C57.8544 92.1693 57.7208 92.2303 57.6789 92.2485C57.6561 92.2453 57.5922 92.2338 57.4748 92.1828C57.2851 92.1005 57.0372 91.9509 56.7346 91.7252C56.132 91.2759 55.4111 90.5998 54.6492 89.8048C53.1305 88.2202 51.5307 86.2497 50.5225 84.9186C50.2724 84.5884 49.802 84.5235 49.4718 84.7735C49.1416 85.0236 49.0767 85.494 49.3268 85.8242C50.3563 87.1836 51.9943 89.2026 53.5662 90.8427C54.3495 91.66 55.1371 92.4051 55.8379 92.9277C56.187 93.188 56.5394 93.412 56.8777 93.5589C57.1977 93.6977 57.6135 93.8155 58.0343 93.7084C58.2629 93.6501 58.5657 93.4906 58.8573 93.3232C59.1815 93.1373 59.5915 92.8816 60.0727 92.5637C61.0363 91.9269 62.3071 91.0258 63.7841 89.8989C66.7384 87.6448 70.5344 84.4748 74.367 80.6873C81.9982 73.1459 89.912 63.0233 91.4215 52.7337C92.1738 47.6057 91.5893 43.5322 90.111 40.3463C88.6314 37.1576 86.2824 34.9144 83.6039 33.4071C78.2828 30.4128 71.6225 30.2963 67.6163 31.3764C63.67 32.4404 60.4538 34.4471 58.2344 36.7479C54.5665 31.6424 47.538 27.5105 37.5181 29.9889C30.1502 31.8114 26.6733 37.6225 25.4442 43.6956C24.3231 49.2356 25.0328 55.1371 26.4277 58.7847C24.4901 59.1341 22.3036 60.0798 20.6725 61.7987C18.7116 63.865 17.6292 66.9706 18.6283 71.2444C19.1277 73.3806 20.552 75.3835 22.4314 77.2021C24.3187 79.0282 26.7214 80.7227 29.2788 82.235C34.3936 85.2597 40.2201 87.6095 44.0319 88.8519C44.2659 88.9281 44.5224 88.8848 44.7183 88.7358C44.9142 88.5868 45.0245 88.3512 45.0136 88.1054C44.9371 86.392 44.6029 81.784 43.8738 76.9575C43.623 75.2969 42.8024 73.6719 41.7041 72.1393C40.6026 70.6023 39.1907 69.1156 37.6997 67.7284C35.7671 65.9304 33.6213 64.2324 31.8206 62.8074C30.8765 62.0603 30.0273 61.3883 29.3533 60.8162C29.1737 60.6638 28.9828 60.4462 28.7872 60.1621C28.9956 60.1862 29.1844 60.2218 29.3507 60.2669C30.0602 60.4596 30.7072 60.6725 31.3144 60.8723C31.414 60.9051 31.5125 60.9375 31.6101 60.9694C32.2854 61.1904 32.9399 61.3966 33.5289 61.4938C34.1181 61.5912 34.7455 61.5988 35.3192 61.3206C35.9121 61.033 36.3142 60.5069 36.585 59.8173C36.972 58.8321 38.2014 57.1362 40.257 56.1556C42.2672 55.1967 45.1382 54.8889 48.9129 56.7563C50.1697 57.378 50.956 58.7942 51.277 60.9789C51.5956 63.1469 51.4247 65.8943 50.9392 68.8717C49.9699 74.8163 47.7823 81.4717 46.0585 85.785C45.9047 86.1696 46.0919 86.606 46.4765 86.7597C46.8612 86.9135 47.2976 86.7263 47.4513 86.3416C49.1991 81.9686 51.4267 75.2025 52.4197 69.1131C52.9153 66.0735 53.1123 63.1508 52.7611 60.7609C52.4123 58.3877 51.491 56.3582 49.578 55.4118C45.4282 53.3588 42.0728 53.6275 39.6112 54.8017C37.1951 55.9543 35.7076 57.9482 35.1888 59.269C35.0068 59.7325 34.8146 59.8982 34.6646 59.971C34.4954 60.053 34.2313 60.0895 33.7733 60.0139C33.3151 59.9382 32.7667 59.7696 32.0765 59.5438C31.9826 59.5131 31.8865 59.4814 31.7883 59.4491C31.1821 59.2496 30.4946 59.0233 29.7439 58.8194C29.226 58.6787 28.6235 58.6161 27.9799 58.6273C26.6041 55.3346 25.8018 49.491 26.9144 43.9931C28.0741 38.263 31.2665 33.0805 37.8783 31.445C47.4341 29.0814 53.9332 33.1248 57.2173 37.9093ZM27.0638 60.2019C25.3009 60.4441 23.2379 61.2744 21.7606 62.8312C20.1786 64.4983 19.1939 67.0744 20.0889 70.9029C20.4952 72.6409 21.6935 74.4008 23.4745 76.1241C25.2476 77.8397 27.543 79.466 30.0423 80.9439C34.5956 83.6365 39.7484 85.792 43.4537 87.0749C43.3162 84.9377 42.9874 81.1324 42.3907 77.1815C42.1887 75.8442 41.5093 74.4425 40.4849 73.0131C39.4638 71.5883 38.1304 70.1779 36.6779 68.8266C34.7773 67.0583 32.7526 65.4578 30.9869 64.0621C30.0203 63.298 29.1312 62.5952 28.3827 61.9599C27.8899 61.5416 27.4499 60.9293 27.0638 60.2019ZM58.0611 39.2789C59.4317 41.7759 59.9217 44.2745 59.6019 46.0337C59.3242 47.5609 58.935 48.2463 58.6568 48.49C58.5442 48.5886 58.4747 48.5947 58.4328 48.5927C58.372 48.5898 58.2533 48.5595 58.0781 48.4256C57.7155 48.1487 57.299 47.5698 56.9557 46.7529C56.6196 45.953 56.3857 44.9995 56.3339 44.0515C56.2582 42.6621 56.8354 40.9717 58.0611 39.2789Z" fill="#653E28"/>
</svg>
