<svg width="128" height="128" viewBox="0 0 128 128" fill="none" xmlns="http://www.w3.org/2000/svg">
<path d="M37 48C37 34.7452 47.7452 24 61 24H117V80C117 93.2548 106.255 104 93 104H61C47.7452 104 37 93.2548 37 80V48Z" fill="#E9C19D"/>
<path fill-rule="evenodd" clip-rule="evenodd" d="M54.5295 30.803C56.2772 30.4571 57.7238 30.25 58.693 30.25C59.4932 30.25 60.5938 30.4277 61.8904 30.7227C63.2005 31.0207 64.7589 31.4499 66.4944 31.9773C69.9661 33.0324 74.1793 34.4906 78.5927 36.107C87.4213 39.3402 97.0847 43.2187 103.289 45.8043C103.672 45.9636 103.852 46.4027 103.693 46.7851C103.534 47.1674 103.095 47.3482 102.712 47.1889C96.5213 44.609 86.8791 40.7391 78.0769 37.5155C73.675 35.9034 69.4914 34.4559 66.0582 33.4125C64.3412 32.8907 62.8201 32.4725 61.5577 32.1853C60.2818 31.8951 59.3171 31.75 58.693 31.75C57.882 31.75 56.5594 31.9303 54.8208 32.2745C53.0972 32.6156 51.011 33.1081 48.6952 33.7113C44.0644 34.9174 38.5408 36.5594 33.2114 38.299C27.8805 40.0392 22.7576 41.8727 18.9251 43.4606C17.0061 44.2557 15.4289 44.9817 14.3154 45.5973C13.7567 45.9062 13.3367 46.1753 13.0541 46.3994C12.9492 46.4827 12.8718 46.5529 12.8167 46.6098C12.824 46.6185 12.8318 46.6277 12.8403 46.6375C12.9953 46.8156 13.2741 47.0552 13.7007 47.352C14.5454 47.94 15.829 48.6571 17.4599 49.4661C20.6034 51.0255 24.9373 52.8779 29.6414 54.7406C30.3668 53.9554 31.2308 53.2971 32.2532 52.7965C39.9157 49.0446 52.9494 45.0004 58.4909 43.4498C58.8898 43.3382 59.3037 43.5711 59.4153 43.97C59.5269 44.3689 59.294 44.7828 58.8951 44.8944C53.3597 46.4432 40.4417 50.4572 32.9129 54.1437C32.2523 54.4671 31.6726 54.8683 31.1631 55.3385C36.8852 57.5699 42.9912 59.7641 48.0477 61.4306C50.7288 62.3142 53.1083 63.0474 54.9758 63.5587C55.91 63.8144 56.7091 64.0128 57.35 64.1466C58.006 64.2836 58.4488 64.3425 58.693 64.3425C59.1774 64.3425 59.8858 64.2099 60.8065 63.9425C61.714 63.679 62.7755 63.3005 63.9468 62.844C65.7485 62.142 67.773 61.2704 69.8531 60.3748C70.4818 60.1041 71.1157 59.8312 71.75 59.5602C74.4681 58.3986 77.1928 57.2717 79.4926 56.5333C80.6421 56.1642 81.709 55.8843 82.6307 55.7487C83.5285 55.6166 84.3944 55.6039 85.0765 55.8711C85.8615 56.1786 86.3998 56.9631 86.7503 57.8326C87.114 58.735 87.3416 59.8871 87.4064 61.1809C87.5361 63.7724 87.018 67.0446 85.4794 70.259C82.3746 76.7455 75.1699 82.8888 61.0666 82.8888C47.1104 82.8888 40.2565 80.1522 35.9786 77.7588C35.1162 77.2764 34.3599 76.8085 33.6878 76.3928C33.5369 76.2995 33.3902 76.2087 33.2476 76.1211C32.4582 75.636 31.8021 75.2513 31.1788 74.9846C30.5662 74.7225 30.0062 74.5841 29.4186 74.5836C28.9492 74.5831 28.4325 74.6707 27.8286 74.8858C27.8404 75.1017 27.8523 75.3173 27.8642 75.5324C28.0847 79.5278 28.2971 83.3752 27.782 86.1498C27.3434 88.512 26.0582 90.0134 24.4209 90.8565C22.8184 91.6818 20.9311 91.8526 19.2617 91.6993C17.5983 91.5466 16.0437 91.062 15.0783 90.4642C14.8327 90.3121 14.6057 90.1408 14.4211 89.9495C14.2411 89.7629 14.0657 89.5202 13.9875 89.2226C13.902 88.8975 13.9474 88.5556 14.1391 88.256C14.3147 87.9816 14.5789 87.7949 14.8466 87.6638C15.4265 87.3799 16.023 86.6823 16.727 85.5454C17.1314 84.8923 17.525 84.1768 17.9527 83.3995C18.2696 82.8234 18.6052 82.2134 18.9778 81.5694C20.6011 78.7642 22.7596 75.6303 26.2747 73.9196C26.1004 70.5753 25.9759 67.069 26.289 63.874C26.579 60.9148 27.2514 58.1343 28.6793 55.9726C24.1162 54.1581 19.8983 52.3502 16.7934 50.8099C15.1433 49.9913 13.7807 49.2353 12.8438 48.5832C12.3795 48.2601 11.9837 47.9379 11.709 47.6224C11.4728 47.3511 11.1411 46.8746 11.2849 46.3111C11.3489 46.0607 11.4882 45.8536 11.6225 45.695C11.7618 45.5303 11.9341 45.3732 12.122 45.2242C12.4977 44.9263 12.9987 44.6112 13.5897 44.2845C14.7757 43.6288 16.4128 42.8779 18.351 42.0748C22.2328 40.4665 27.3956 38.6196 32.746 36.8731C38.0979 35.126 43.6512 33.475 48.3172 32.2597C50.6497 31.6522 52.7668 31.1519 54.5295 30.803ZM30.1106 56.5376C28.7644 58.422 28.0765 61.0145 27.7819 64.0203C27.4958 66.9396 27.5878 70.1573 27.7468 73.3358C28.3283 73.1655 28.8804 73.0831 29.42 73.0836C30.2594 73.0843 31.0218 73.2859 31.7688 73.6055C32.5051 73.9206 33.246 74.3595 34.0329 74.8431C34.1817 74.9345 34.3325 75.0278 34.4861 75.1228C35.1568 75.5376 35.8801 75.985 36.7109 76.4498C40.7413 78.7046 47.3381 81.3888 61.0666 81.3888C74.6558 81.3888 81.2972 75.5222 84.1264 69.6114C85.5549 66.6272 86.0258 63.6039 85.9083 61.2559C85.8494 60.0798 85.6443 59.1012 85.359 58.3934C85.0605 57.6527 84.7334 57.3476 84.5294 57.2677C84.2224 57.1475 83.679 57.1106 82.8491 57.2327C82.0431 57.3513 81.064 57.6041 79.9512 57.9615C77.7262 58.6758 75.0608 59.7766 72.3394 60.9395C71.7155 61.2061 71.0884 61.4761 70.4638 61.745C68.3786 62.6428 66.32 63.5292 64.4914 64.2417C63.3015 64.7054 62.1934 65.1017 61.2248 65.383C60.2695 65.6604 59.3955 65.8425 58.693 65.8425C58.2828 65.8425 57.7103 65.7542 57.0434 65.6149C56.3613 65.4725 55.53 65.2656 54.5797 65.0054C52.6782 64.4848 50.2721 63.7431 47.5781 62.8552C42.3453 61.1306 36.0015 58.8463 30.1106 56.5376ZM26.3635 75.5657C23.599 77.12 21.774 79.7322 20.2761 82.3207C19.9435 82.8955 19.6182 83.4858 19.3013 84.0608C18.8504 84.8789 18.4164 85.6663 18.0023 86.3351C17.3128 87.4486 16.5443 88.4729 15.5738 88.9769C15.6456 89.0394 15.7425 89.1111 15.868 89.1889C16.584 89.6323 17.8975 90.0678 19.3989 90.2056C20.8943 90.3429 22.4686 90.1747 23.7342 89.523C24.9651 88.8891 25.9546 87.7754 26.3072 85.876C26.7872 83.2908 26.5866 79.6329 26.3635 75.5657ZM12.7363 46.4935C12.7365 46.4935 12.7381 46.4966 12.7401 46.5024C12.737 46.4963 12.736 46.4934 12.7363 46.4935Z" fill="#653E28"/>
</svg>
