<svg width="128" height="128" viewBox="0 0 128 128" fill="none" xmlns="http://www.w3.org/2000/svg">
<path d="M40 47C40 33.7452 50.7452 23 64 23H120V79C120 92.2548 109.255 103 96 103H64C50.7452 103 40 92.2548 40 79V47Z" fill="#E9C19D"/>
<path fill-rule="evenodd" clip-rule="evenodd" d="M100.635 31.8778C100.826 31.9561 101.052 32.0696 101.228 32.2453C101.519 32.5353 101.687 32.9887 101.804 33.3993C101.932 33.8506 102.041 34.4166 102.134 35.0666C102.322 36.3698 102.46 38.0877 102.557 40.0659C102.752 44.0267 102.787 49.0962 102.716 54.1204C102.646 59.1461 102.469 64.1394 102.24 67.951C102.125 69.8552 101.996 71.4738 101.859 72.6571C101.791 73.2467 101.72 73.7428 101.644 74.1174C101.606 74.3033 101.564 74.4763 101.516 74.6227C101.48 74.7307 101.401 74.9576 101.228 75.1297C100.475 75.8824 99.2753 76.1897 98.14 76.3376C96.9676 76.4903 95.6619 76.4939 94.5425 76.4939C94.5406 76.4939 94.5383 76.4936 94.5337 76.495C94.5298 76.4962 94.5244 76.4985 94.5163 76.503C94.4932 76.5161 94.4468 76.5497 94.3823 76.6283C94.2466 76.7937 94.0955 77.0779 93.94 77.5056C93.6302 78.3577 93.3835 79.5439 93.1242 80.8739C93.0967 81.015 93.069 81.1575 93.0412 81.3011C92.8123 82.4823 92.5698 83.7338 92.2635 84.8348C91.9292 86.0368 91.479 87.2223 90.7636 87.937C90.221 88.4792 89.5203 88.5022 88.9103 88.3155C88.3278 88.1372 87.7246 87.7468 87.1421 87.2764C85.9647 86.3255 84.6385 84.8522 83.3824 83.3173C82.1187 81.773 80.8935 80.1258 79.9197 78.8027C79.7894 78.6257 79.6639 78.4549 79.5435 78.291C79.2116 77.8394 78.9186 77.4405 78.6713 77.1106C78.3802 76.7223 78.1806 76.4681 78.067 76.3387C78.051 76.3341 78.0307 76.3289 78.0057 76.3231C77.8735 76.2928 77.6743 76.2638 77.3995 76.2397C76.8533 76.192 76.0942 76.1712 75.1551 76.1702C73.5069 76.1683 71.368 76.2272 68.9777 76.293C68.8725 76.2959 68.7669 76.2988 68.6608 76.3017C68.557 77.8179 68.4194 79.1533 68.2413 80.2246C68.1392 80.839 68.0212 81.3824 67.883 81.8304C67.7505 82.26 67.5778 82.6765 67.3288 82.9759C66.7984 83.6137 65.8382 84.0087 64.7875 84.2865C63.6927 84.5759 62.3225 84.7805 60.7916 84.926C57.7261 85.2175 53.9117 85.2811 50.1462 85.2697C48.2606 85.264 46.3813 85.2395 44.6082 85.2147C44.4329 85.2123 44.2587 85.2098 44.0856 85.2074C42.5062 85.1852 41.0226 85.1644 39.7013 85.1583C38.2331 85.1516 36.9794 85.1634 36.0274 85.2108C35.5507 85.2346 35.1626 85.2667 34.8675 85.3074C34.7201 85.3277 34.6048 85.3491 34.5184 85.3699C34.4323 85.3907 34.397 85.4059 34.3939 85.4072L34.3937 85.4073C34.2056 85.5013 33.8976 85.7259 33.4672 86.1059C33.0503 86.4741 32.5623 86.9483 32.021 87.4978C31.2787 88.2515 30.4575 89.1247 29.6036 90.0327C29.2086 90.4527 28.8066 90.8801 28.4022 91.3066C27.1341 92.644 25.8458 93.9678 24.7267 94.9597C24.1681 95.4548 23.6329 95.8841 23.1498 96.1937C22.6995 96.4823 22.1712 96.75 21.6574 96.75C20.9824 96.75 20.5649 96.2984 20.3388 95.8593C20.1202 95.4346 20.0012 94.8912 19.9276 94.3393C19.78 93.2337 19.7801 91.7863 19.7801 90.4089V90.3682C19.7801 88.9418 19.7786 87.591 19.6457 86.5955C19.5785 86.0915 19.4861 85.7549 19.3876 85.5636C19.3689 85.5273 19.3539 85.5027 19.3427 85.4864C19.1874 85.4865 19.0172 85.4872 18.8345 85.4878C17.7003 85.4919 16.0854 85.4977 14.5734 85.4011C13.6798 85.3439 12.7954 85.2496 12.0498 85.0909C11.6767 85.0115 11.3214 84.9125 11.0092 84.7859C10.7041 84.6622 10.3953 84.4945 10.1552 84.2546C9.99227 84.0918 9.91094 83.8807 9.87182 83.7726C9.82072 83.6313 9.77545 83.4651 9.73418 83.2868C9.65111 82.9278 9.56959 82.4545 9.48987 81.8932C9.32989 80.7669 9.16932 79.2292 9.01936 77.4192C8.71918 73.7964 8.45849 69.0457 8.33179 64.2347C8.20515 59.426 8.2119 54.5406 8.44945 50.6532C8.56809 48.7118 8.7454 46.9995 8.99768 45.6626C9.12371 44.9947 9.2718 44.4021 9.44826 43.9135C9.61876 43.4413 9.84155 42.9914 10.1572 42.6788C10.3972 42.4412 10.7505 42.2887 11.0636 42.1794C11.4072 42.0596 11.8314 41.9501 12.3133 41.8491C13.2793 41.6465 14.5427 41.4645 15.9955 41.3075C18.9049 40.9933 22.6322 40.7738 26.3838 40.7016C30.1337 40.6294 33.9287 40.7041 36.9697 40.9829C38.4882 41.1222 39.8393 41.3141 40.9108 41.5707C41.4464 41.699 41.9289 41.8474 42.335 42.0213C42.7313 42.1912 43.1072 42.4073 43.3806 42.6973C43.6684 43.0028 43.8612 43.4 43.9984 43.8148C44.1376 44.2359 44.2352 44.7239 44.3044 45.2548C44.4425 46.3154 44.4768 47.6286 44.459 49.0839C44.4391 50.7126 44.3514 52.5904 44.2599 54.5493C44.1894 56.059 44.1166 57.6168 44.0709 59.1456C43.9643 62.7114 44 66.1936 44.5049 68.9265C45.0223 71.7271 45.9691 73.4026 47.3874 73.8898C49.2553 74.5315 52.4799 74.8269 56.2593 74.9243C59.7788 75.0151 63.6866 74.9338 67.246 74.8395C67.5417 69.1902 67.4525 61.3968 67.1844 54.8084C67.045 51.3807 66.8576 48.2903 66.6523 46.0084C66.5494 44.8655 66.4431 43.9369 66.3379 43.274C66.2851 42.9407 66.2349 42.6905 66.1898 42.52C66.182 42.4905 66.1748 42.4653 66.1683 42.4438C66.1179 42.421 66.0323 42.3863 65.8972 42.3454C65.6369 42.2666 65.2823 42.1902 64.8423 42.1188C63.9651 41.9765 62.8224 41.8658 61.5724 41.7819C59.0766 41.6144 56.2195 41.5583 54.3511 41.5583C53.9369 41.5583 53.6011 41.2225 53.6011 40.8083C53.6011 40.3941 53.9369 40.0583 54.3511 40.0583C56.2405 40.0583 59.1331 40.1148 61.6728 40.2853C62.9406 40.3703 64.1372 40.4848 65.0825 40.6382C65.5538 40.7147 65.9813 40.8037 66.3317 40.9097C66.645 41.0045 67.0266 41.1487 67.2822 41.4041C67.4174 41.5391 67.49 41.6996 67.5266 41.7885C67.571 41.8963 67.608 42.0158 67.6398 42.136C67.7038 42.3776 67.7632 42.6847 67.8194 43.0389C67.9324 43.751 68.0423 44.7183 68.1462 45.8739C68.3545 48.1889 68.5432 51.3056 68.6832 54.7474C68.9501 61.3082 69.0419 69.0909 68.7501 74.7987C68.8128 74.797 68.8753 74.7952 68.9377 74.7935C71.3226 74.7279 73.4856 74.6683 75.1567 74.6702C76.1063 74.6712 76.9176 74.6919 77.53 74.7454C77.8345 74.772 78.1115 74.8085 78.341 74.8611C78.4558 74.8874 78.5751 74.9215 78.6876 74.968C78.7919 75.0112 78.9391 75.0847 79.0678 75.2133C79.255 75.4004 79.5434 75.7732 79.8715 76.2109C80.1235 76.5471 80.423 76.9547 80.7566 77.4087C80.8761 77.5714 81 77.7401 81.1277 77.9135C82.1002 79.2348 83.3058 80.8552 84.5433 82.3673C85.7884 83.8889 87.0339 85.2609 88.0846 86.1095C88.6162 86.5389 89.0413 86.7869 89.3494 86.8812C89.6185 86.9635 89.6777 86.9025 89.7007 86.8787C89.7016 86.8777 89.7026 86.8768 89.7034 86.8759C90.1154 86.4643 90.4857 85.6288 90.8184 84.4328C91.1074 83.3937 91.338 82.2048 91.569 81.0133C91.5966 80.8711 91.6242 80.7289 91.6519 80.5869C91.9061 79.2828 92.173 77.9758 92.5302 76.9931C92.7082 76.5035 92.929 76.0349 93.2227 75.6769C93.5251 75.3082 93.9621 74.9939 94.5425 74.9939C95.6779 74.9939 96.8863 74.9882 97.9463 74.8502C98.9778 74.7158 99.7032 74.4735 100.097 74.1343C100.118 74.0681 100.144 73.9656 100.174 73.8198C100.237 73.5064 100.303 73.0588 100.369 72.485C100.501 71.3415 100.628 69.7542 100.742 67.8607C100.97 64.0768 101.146 59.1071 101.217 54.0994C101.287 49.0902 101.252 44.0558 101.059 40.1396C100.962 38.1792 100.827 36.5153 100.649 35.2804C100.56 34.6615 100.463 34.1694 100.361 33.8095C100.269 33.4856 100.194 33.351 100.173 33.3159C100.157 33.3067 100.123 33.2891 100.066 33.2655C99.951 33.2184 99.7849 33.1651 99.5601 33.1088C99.1113 32.9964 98.4923 32.8874 97.7143 32.7843C96.1619 32.5787 94.0473 32.4053 91.5467 32.263C86.5496 31.9787 80.0652 31.8213 73.5729 31.7695C67.0819 31.7176 60.5929 31.7713 55.589 31.908C53.0861 31.9765 50.9613 32.0655 49.3959 32.1719C48.6122 32.2252 47.978 32.2823 47.5106 32.342C47.2763 32.3719 47.0936 32.4013 46.9595 32.4291C46.835 32.4549 46.789 32.4723 46.7887 32.4716C46.7886 32.4714 46.7908 32.4704 46.7948 32.4684C46.1228 32.804 45.6567 33.4583 45.3552 34.2365C45.0549 35.0115 44.9549 35.819 44.9549 36.3025C44.9549 36.7167 44.6191 37.0525 44.2049 37.0525C43.7907 37.0525 43.4549 36.7167 43.4549 36.3025C43.4549 35.6598 43.5804 34.6653 43.9565 33.6946C44.3314 32.727 44.9926 31.6919 46.1245 31.1265C46.2877 31.0449 46.4861 30.9954 46.6549 30.9604C46.8414 30.9217 47.0661 30.8866 47.3205 30.8541C47.8304 30.789 48.498 30.7295 49.2942 30.6754C50.8888 30.567 53.0366 30.4773 55.5481 30.4086C60.573 30.2713 67.08 30.2175 73.5849 30.2695C80.0886 30.3215 86.6002 30.4791 91.6319 30.7654C94.1457 30.9085 96.3037 31.0843 97.9113 31.2973C98.7132 31.4036 99.396 31.5214 99.9245 31.6537C100.188 31.7198 100.43 31.7934 100.635 31.8778ZM100.074 74.1978C100.074 74.1977 100.075 74.1938 100.079 74.1867C100.076 74.1944 100.074 74.1978 100.074 74.1978ZM66.1335 42.3465C66.1335 42.3461 66.135 42.3489 66.1378 42.3554C66.1349 42.35 66.1336 42.3468 66.1335 42.3465ZM67.1544 76.3424C63.6282 76.4353 59.7383 76.5146 56.2207 76.4238C52.4583 76.3268 49.0145 76.0349 46.9 75.3084C44.6249 74.5268 43.5537 72.0342 43.0299 69.199C42.4935 66.2961 42.4647 62.6748 42.5716 59.1008C42.6192 57.5066 42.693 55.9349 42.7637 54.4278C42.854 52.506 42.9392 50.6894 42.9591 49.0656C42.9767 47.6304 42.9411 46.4019 42.817 45.4485C42.7549 44.9724 42.6733 44.5854 42.5742 44.2857C42.473 43.9797 42.3684 43.8104 42.2889 43.7261C42.218 43.6509 42.0556 43.5336 41.7441 43.4001C41.4423 43.2708 41.0477 43.1459 40.5614 43.0295C39.589 42.7966 38.3176 42.6128 36.8328 42.4767C33.8672 42.2047 30.1323 42.1297 26.4126 42.2013C22.6947 42.2728 19.0127 42.4904 16.1565 42.7989C14.7265 42.9533 13.5181 43.129 12.6211 43.3171C12.1714 43.4114 11.8164 43.5055 11.5577 43.5957C11.3357 43.6732 11.2416 43.729 11.2173 43.7434C11.2099 43.7478 11.2089 43.7484 11.2127 43.7446C11.1348 43.8218 11.0044 44.0207 10.8591 44.423C10.7198 44.8087 10.5895 45.3162 10.4717 45.9407C10.2362 47.1885 10.0637 48.83 9.94666 50.7447C9.71291 54.5698 9.70515 59.4064 9.83127 64.1952C9.95732 68.9815 10.2167 73.7039 10.5142 77.2954C10.6631 79.0926 10.8209 80.5975 10.975 81.6823C11.0523 82.2266 11.1267 82.651 11.1956 82.9486C11.2268 83.0834 11.2539 83.1793 11.2754 83.2425C11.3341 83.2838 11.4286 83.3374 11.5728 83.3958C11.777 83.4786 12.0412 83.5555 12.362 83.6238C13.0043 83.7605 13.8061 83.8489 14.6691 83.9041C16.1252 83.9972 17.6797 83.9918 18.817 83.9878C19.0276 83.9871 19.224 83.9864 19.4027 83.9864C20.0777 83.9864 20.4953 84.438 20.7213 84.8771C20.9399 85.3018 21.0589 85.8452 21.1326 86.3971C21.2801 87.5027 21.2801 88.95 21.2801 90.3274V90.3682C21.2801 91.7945 21.2816 93.1454 21.4144 94.1409C21.4817 94.6449 21.5741 94.9815 21.6725 95.1728C21.6883 95.2033 21.7014 95.2256 21.7119 95.2416C21.8071 95.219 22.0088 95.1433 22.3405 94.9307C22.7293 94.6816 23.1983 94.31 23.7318 93.8372C24.7969 92.8931 26.0452 91.6123 27.3137 90.2745C27.7074 89.8594 28.1034 89.4382 28.4955 89.0214C29.3562 88.1062 30.1976 87.2114 30.9524 86.4452C31.5032 85.8859 32.0193 85.3834 32.4743 84.9816C32.9159 84.5917 33.3477 84.2531 33.7233 84.0654C33.9836 83.9354 34.3311 83.8672 34.6624 83.8215C35.0192 83.7722 35.456 83.7374 35.9528 83.7127C36.9477 83.6631 38.2352 83.6516 39.7081 83.6584C41.0372 83.6644 42.5286 83.6854 44.1067 83.7075C44.2798 83.71 44.454 83.7124 44.6291 83.7149C46.4022 83.7396 48.2742 83.7641 50.1507 83.7697C53.9093 83.7811 57.6618 83.7168 60.6496 83.4328C62.1454 83.2906 63.4235 83.0956 64.4041 82.8363C65.4287 82.5655 65.9709 82.2628 66.1755 82.0168C66.2302 81.951 66.333 81.7665 66.4497 81.3883C66.5607 81.0284 66.6655 80.557 66.7617 79.9786C66.9236 79.0043 67.0537 77.7713 67.1544 76.3424ZM21.7409 95.2779C21.7409 95.2784 21.7383 95.2765 21.7333 95.2709C21.7385 95.2746 21.741 95.2774 21.7409 95.2779ZM11.3009 83.3075C11.3009 83.3077 11.2993 83.3048 11.2965 83.2984C11.2996 83.3041 11.301 83.3073 11.3009 83.3075ZM19.3192 85.4585C19.3193 85.458 19.3218 85.4598 19.3268 85.4655C19.3217 85.4618 19.3192 85.459 19.3192 85.4585Z" fill="#653E28"/>
</svg>
