<svg width="96" height="96" viewBox="0 0 96 96" fill="none" xmlns="http://www.w3.org/2000/svg">
<path d="M44.2577 77.8122C43.4873 75.6292 41.253 70.9552 38.4794 69.7225C35.0124 68.1816 26.9228 71.6486 24.6115 68.5669C22.3001 65.4851 24.2262 63.1738 23.841 62.4033C23.5328 61.787 22.4287 61.6329 21.9152 61.6329C21.7867 61.3761 21.607 60.7083 21.9152 60.092C22.2233 59.4756 22.5569 59.3217 22.6852 59.3217C21.5296 58.9365 20.4512 57.5495 20.7594 56.625C21.1446 55.4693 23.0708 55.4693 22.6856 53.9285C22.3004 52.3876 19.6039 52.7728 19.2186 50.8467C18.8334 48.9206 24.6117 46.224 24.6117 43.5275C24.6117 40.8309 23.0705 41.2163 23.4557 39.2902C23.8409 37.3641 24.611 36.9787 24.6113 34.2822C24.6117 31.5856 25.767 27.3482 31.9305 21.9551C38.0941 16.562 51.5768 17.3325 59.2812 20.4142C66.9856 23.496 73.5344 28.0648 73.5344 40.4459C73.5344 53.9286 65.83 55.4695 64.2891 60.0921C63.3646 62.8657 65.1879 68.6954 66.2152 71.2636" stroke="#653E28" stroke-width="1.5" stroke-linecap="round" stroke-linejoin="round"/>
<path d="M28.8486 42.3717C28.5918 41.4728 28.2323 39.3669 28.8486 38.1342C29.465 36.9015 29.8757 36.5933 30.004 36.5933C29.4904 35.4377 28.8484 32.587 30.3893 30.4298C31.9301 28.2726 34.6267 27.7333 35.7824 27.7333C36.0392 26.706 37.0921 24.5745 39.2493 24.2663C41.4066 23.9581 43.23 24.6515 43.872 25.0367C44.8992 24.0094 47.6472 22.109 50.4207 22.7253C53.1943 23.3417 54.915 25.8071 55.4286 26.9628C56.5843 26.3208 59.4349 25.2678 61.5922 26.1924C63.7494 27.1169 64.8023 29.6593 65.0591 30.815C66.4716 31.3286 69.3736 33.1263 69.6818 36.2081C69.99 39.2899 68.0125 41.3444 66.9852 41.9864C67.7557 43.5273 68.5261 47.3795 65.4444 50.4613C62.3626 53.543 57.541 51.7453 55.5155 50.4613M31.1597 45.4534C31.8017 45.8386 33.394 46.532 34.6267 46.2238C35.8594 45.9157 36.938 45.325 37.3232 45.0682M37.3232 38.5194C36.6812 39.033 35.4742 40.3685 35.7824 41.6012C36.0905 42.8339 37.1948 43.6557 37.7085 43.9125C37.5801 44.8114 37.7085 46.9172 39.2493 48.1499C40.7902 49.3827 42.4595 49.434 43.1016 49.3056C43.3584 49.8192 44.1802 50.8465 45.4129 50.8465C46.6456 50.8465 47.7242 50.3329 48.1094 50.076C48.7225 50.7181 50.5053 51.8481 52.7321 51.2317C54.9588 50.6154 55.9712 48.9204 56.1991 48.1499" stroke="#653E28" stroke-width="1.5" stroke-linecap="round" stroke-linejoin="round"/>
<path d="M44.2573 50.8467L46.5686 58.9363L51.9617 60.4772L50.0356 51.2319" stroke="#653E28" stroke-width="1.5" stroke-linecap="round" stroke-linejoin="round"/>
<path d="M50.4214 52.7729C50.8066 54.3138 51.9623 54.699 53.1179 54.699C54.2736 54.699 55.0671 57.7808 58.7152 56.6251C61.6336 55.7006 62.3632 53.415 62.3632 52.3877" stroke="#653E28" stroke-width="1.5" stroke-linecap="round" stroke-linejoin="round"/>
</svg>
