<svg width="96" height="96" viewBox="0 0 96 96" fill="none" xmlns="http://www.w3.org/2000/svg">
<path d="M45.6008 74.036L44.4008 57.236C43.8008 56.636 42.0002 55.436 41.4008 53.036C40.7505 50.4327 33.6008 41.036 34.2008 32.036C34.8008 23.036 44.401 22.436 48.601 22.436C52.801 22.436 63.001 22.436 64.201 32.036C65.401 41.636 57.601 50.036 56.401 53.036C55.492 55.3085 54.201 56.836 53.401 57.236L52.201 74.036" stroke="#653E28" stroke-width="1.5" stroke-linecap="round"/>
<path d="M35.3998 26.6364C32.1998 23.6364 23.8798 18.8364 16.1998 23.6364C8.51978 28.4364 10.9998 36.0363 13.1998 39.2362" stroke="#653E28" stroke-width="1.5" stroke-linecap="round"/>
<ellipse cx="18.6204" cy="42.2568" rx="5.55692" ry="7.2" transform="rotate(45 18.6204 42.2568)" stroke="#653E28" stroke-width="1.5" stroke-linecap="round"/>
<path d="M62.4005 26.6364C65.6005 23.6364 73.9205 18.8364 81.6005 23.6364C89.2805 28.4364 86.8005 36.0363 84.6005 39.2362" stroke="#653E28" stroke-width="1.5" stroke-linecap="round"/>
<ellipse rx="5.55692" ry="7.2" transform="matrix(-0.707107 0.707107 0.707107 0.707107 79.1799 42.2568)" stroke="#653E28" stroke-width="1.5" stroke-linecap="round"/>
</svg>
