<svg width="96" height="96" viewBox="0 0 96 96" fill="none" xmlns="http://www.w3.org/2000/svg">
<path d="M44.575 65.1672C43.446 67.994 42.2512 71.5021 41.5185 76.6312M44.575 65.1672C38.034 61.2114 29.866 54.0384 30.1781 45.8568C30.2856 43.0411 30.5447 35.0261 30.1783 33.0342C28.6957 24.9743 27.5998 22.7761 27.5996 17.6707C34.3659 14.4402 43.1532 13.5206 50.4304 15.2799C52.3643 15.7475 56.6082 18.1666 58.4884 19.3177C57.8079 21.3365 56.4086 24.7288 56.0648 25.8339C54.6394 30.4155 58.4231 32.8884 59.6165 36.7437C61.6757 38.6386 66.0521 42.7259 67.0835 43.916C68.3727 45.4036 74.2504 51.6422 69.3619 63.8085C66.33 71.3542 60.5692 78.8297 58.4884 82.4929M44.575 65.1672C49.0439 56.5646 52.3903 48.5283 58.0047 40.5961C58.6064 39.746 58.2554 39.1085 58.0047 38.896C52.7438 45.9767 47.3597 54.0853 37.1617 52.3634C32.7567 51.6196 30.5542 49.2288 30.1781 48.7507C30.3035 50.132 30.479 53.2984 30.1781 54.9135C29.8021 56.9324 29.8021 69.0456 32.112 75.9523" stroke="#653E28" stroke-width="1.5" stroke-linecap="round" stroke-linejoin="round"/>
<path d="M38.8341 35.9653C38.7054 36.2599 38.4866 36.9793 38.641 37.5003C38.8341 38.1514 39.0272 38.291 39.1237 38.0584C39.2203 37.8258 39.4134 37.2212 39.2685 36.8026C39.1527 36.4677 39.1237 36.2599 39.1237 36.1979" stroke="#653E28" stroke-width="1.5" stroke-linecap="round" stroke-linejoin="round"/>
</svg>
