<svg width="24" height="24" viewBox="0 0 24 24" fill="none" xmlns="http://www.w3.org/2000/svg">
<path d="M12.5777 2C15.0627 2 17.4959 2.97568 19.2561 4.77297C21.0163 6.51892 22 8.88108 22 11.3973C22 16.5838 17.7548 20.8459 12.5259 20.8459C10.9728 20.8459 9.41962 20.4865 8.0218 19.7162L3 21L4.34605 16.1216C3.56948 14.6838 3.10354 13.0919 3.10354 11.4486C3.05177 6.26216 7.297 2 12.5777 2Z" fill="#D67644"/>
<path d="M17.1343 13.5539L16.5648 13.2972C16.5648 13.2972 15.7365 12.9377 15.2187 12.681C15.167 12.681 15.1152 12.6296 15.0634 12.6296C14.9081 12.6296 14.8046 12.681 14.701 12.7323C14.701 12.7323 14.6493 12.7837 13.9245 13.6053C13.8727 13.708 13.7691 13.7593 13.6656 13.7593H13.6138C13.5621 13.7593 13.4585 13.708 13.4068 13.6566L13.1479 13.5539C12.5784 13.2972 12.0607 12.9891 11.6465 12.5783C11.543 12.4756 11.3877 12.3728 11.2841 12.2701C10.9217 11.9107 10.5593 11.4999 10.3005 11.0377L10.2487 10.935C10.1969 10.8837 10.1969 10.8323 10.1452 10.7296C10.1452 10.6269 10.1452 10.5242 10.1969 10.4728C10.1969 10.4728 10.404 10.2161 10.5593 10.062C10.6629 9.95934 10.7147 9.80528 10.8182 9.70258C10.9217 9.54852 10.9735 9.34312 10.9217 9.18906C10.87 8.93231 10.2487 7.54582 10.0934 7.23771C9.98986 7.08366 9.88631 7.03231 9.731 6.98096H9.57569C9.47215 6.98096 9.31683 6.98096 9.16152 6.98096C9.05798 6.98096 8.95443 7.03231 8.85089 7.03231L8.79912 7.08366C8.69558 7.13501 8.59204 7.23771 8.48849 7.28907C8.38495 7.39177 8.33318 7.49447 8.22964 7.59717C7.86724 8.05934 7.66016 8.6242 7.66016 9.18906C7.66016 9.59988 7.7637 10.0107 7.91901 10.3701L7.97078 10.5242C8.43672 11.4999 9.05798 12.3728 9.88631 13.1431L10.0934 13.3485C10.2487 13.5026 10.404 13.6053 10.5076 13.7593C11.5948 14.6837 12.8373 15.3512 14.2351 15.7107C14.3904 15.762 14.5975 15.762 14.7528 15.8134C14.9081 15.8134 15.1152 15.8134 15.2705 15.8134C15.5294 15.8134 15.84 15.7107 16.0471 15.608C16.2024 15.5053 16.3059 15.5053 16.4095 15.4026L16.513 15.2999C16.6166 15.1972 16.7201 15.1458 16.8236 15.0431C16.9272 14.9404 17.0307 14.8377 17.0825 14.735C17.186 14.5296 17.2378 14.2728 17.2896 14.0161C17.2896 13.9134 17.2896 13.7593 17.2896 13.6566C17.2896 13.6566 17.2378 13.6053 17.1343 13.5539Z" fill="#F4EEE3"/>
</svg>
