<?xml version="1.0" encoding="utf-8"?><svg xmlns="http://www.w3.org/2000/svg" xmlns:xlink="http://www.w3.org/1999/xlink"><symbol viewBox="0 0 24 24" id="account-header" xmlns="http://www.w3.org/2000/svg"><path fill-rule="evenodd" clip-rule="evenodd" d="M12 2C6.48 2 2 6.48 2 12s4.48 10 10 10 10-4.48 10-10S17.52 2 12 2zM7.07 18.28c.43-.9 3.05-1.78 4.93-1.78s4.51.88 4.93 1.78A7.893 7.893 0 0112 20c-1.86 0-3.57-.64-4.93-1.72zM12 14.5c1.46 0 4.93.59 6.36 2.33A7.95 7.95 0 0020 12c0-4.41-3.59-8-8-8s-8 3.59-8 8c0 1.82.62 3.49 1.64 4.83 1.43-1.74 4.9-2.33 6.36-2.33zM12 6c-1.94 0-3.5 1.56-3.5 3.5S10.06 13 12 13s3.5-1.56 3.5-3.5S13.94 6 12 6zm-1.5 3.5c0 .83.67 1.5 1.5 1.5s1.5-.67 1.5-1.5S12.83 8 12 8s-1.5.67-1.5 1.5z"/></symbol><symbol viewBox="0 0 22 24" id="basket" xmlns="http://www.w3.org/2000/svg"><g clip-path="url(#ba)"><path d="M10.363 18.443a2.046 2.046 0 00-2.045 2.042 2.046 2.046 0 004.09 0 2.046 2.046 0 00-2.045-2.042zm6.134 0a2.046 2.046 0 00-2.045 2.042 2.046 2.046 0 004.089 0 2.046 2.046 0 00-2.044-2.042zm3.978-8.199L7.413 6.891a.614.614 0 00-.75.73L8.67 16.4h-.786L5.482 5.895a.613.613 0 00-.474-.464l-4.27-.882A.614.614 0 00.489 5.75l3.885.802L6.797 17.15a.613.613 0 00.598.477h12.07a.615.615 0 00.607-.53l.858-6.175a.613.613 0 00-.455-.678zm-8.14 3.91a.613.613 0 01-1.227 0v-2.696a.613.613 0 011.227 0v2.696zm2.625 0a.613.613 0 01-1.227 0v-1.88a.613.613 0 011.227 0v1.88zm2.625 0a.613.613 0 01-1.227 0v-1.226a.613.613 0 011.227 0v1.226z"/></g><path fill-rule="evenodd" clip-rule="evenodd" d="M16.268 4.568a2.996 2.996 0 00-1.693-.523c-.627 0-1.21.193-1.693.523-.28-.843-.492-1.752-.492-2.383C12.39.98 13.37 0 14.575 0s2.185.98 2.185 2.185c0 .631-.212 1.54-.492 2.383zm-4.722 2.274l.024.006v-.011l-.024.005zm4.972 1.217c-1.333-.33-2.766-.681-4.129-1.013a2.185 2.185 0 114.129 1.013zm4.436 1.103c-.866-.217-2.155-.538-3.618-.9a2.995 2.995 0 00.243-1.425c.87.18 1.762.45 2.308.765.596.344.969.928 1.067 1.56zM9.869 6.439c-.36-.086-.706-.167-1.03-.243a2.19 2.19 0 01-.376-2.667 2.188 2.188 0 013.147-.7c.098.738.338 1.599.61 2.353a3.01 3.01 0 00-.449.774c-.628.113-1.305.278-1.902.483zm10.124.075a3.43 3.43 0 01-.217.114c-.696-.295-1.587-.526-2.397-.672a3.01 3.01 0 00-.449-.774c.262-.727.494-1.553.599-2.273.095-.067.189-.128.278-.18a2.188 2.188 0 012.986.8 2.188 2.188 0 01-.8 2.985z"/><defs><clipPath id="ba"><path transform="translate(0 3.064)" d="M0 0h20.936v20.936H0z"/></clipPath></defs></symbol><symbol viewBox="0 0 344.96 344.96" id="check" xmlns="http://www.w3.org/2000/svg"><g data-name="Слой 2"><path class="ccls-1" d="M321.85 86.24l-40-23.11-23.1-40H212.5L172.48 0l-40 23.11H86.24l-23.11 40-40 23.1v46.21L0 172.48l23.11 40v46.21l40 23.11 23.11 40h46.21l40 23.1 40-23.11h46.21l23.11-40 40-23.11V212.5l23.11-40-23.11-40V86.24zM156.91 243.07a16.79 16.79 0 01-23.34 0l-50.45-50.44a16.19 16.19 0 010-22.89l13.35-13.35a16.19 16.19 0 0122.89 0l25.87 25.87 80.34-80.35a16.19 16.19 0 0122.89 0l13.35 13.35a16.19 16.19 0 010 22.89z" data-name="Capa 1"/></g></symbol><symbol viewBox="0 0 28 16" id="coalla-logo" xmlns="http://www.w3.org/2000/svg"><path fill-rule="evenodd" clip-rule="evenodd" d="M23 11l-1-2c.022 0 .042 0 0 0 3.048-.075 4.049-1.657 4.049-3.5a3.6 3.6 0 00-3.512-3.536C18.108 2 19.307 8.381 19 7c-.565-.31-.892-1.343-1.686-1.54a12.176 12.176 0 00-6.629 0c-.794.2-1.12 1.23-1.686 1.54-.307 1.381.892-5-3.537-5.036A3.6 3.6 0 001.951 5.5c0 1.843 1 3.425 4.049 3.5-.044 0-.023 0 0 0l-1 2a5.6 5.6 0 01-5-5.522A5.52 5.52 0 015.463 0a5.187 5.187 0 014.845 3.475c.03.071.053.15.08.225a23.804 23.804 0 013.088-.657c.173-.028.348-.042.524-.043 1.226.103 2.436.338 3.612.7.027-.075.05-.155.08-.225A5.187 5.187 0 0122.537 0 5.521 5.521 0 0128 5.478 5.6 5.6 0 0123 11zm-1-2c-.022 0-.048 0 0 0zM6 9c.048 0 .022 0 0 0zm3.318 0a1.342 1.342 0 01.627 1.691 1.069 1.069 0 11-.628-1.684L9.318 9zM14 8.995c1.1 0 2 1.57 2 3.505 0 1.935-.9 3.5-2 3.5-1.076 0-1.952-1.492-2-3.355v-.3c.045-1.861.921-3.35 2-3.35zm4.686.013a1.354 1.354 0 011.261 1.292 1.069 1.069 0 11-1.89.4 1.342 1.342 0 01.626-1.693l.003.001z"/></symbol><symbol viewBox="0 0 18 22" id="currency" xmlns="http://www.w3.org/2000/svg"><path d="M.811 12.452H3.85v1.55H.811v1.302H3.85v3.751c0 .775-.279 1.302-.868 1.55-.186.093-.527.186-.992.217l-1.054.093V22h9.332v-1.085l-1.303-.124c-.465-.062-.775-.093-.96-.186-.745-.279-.9-.837-.9-1.55v-3.751h9.58v-1.302h-9.58v-1.55h2.45c2.076 0 3.937-.496 5.455-1.612 1.581-1.147 2.511-2.914 2.511-5.177 0-1.612-.62-2.914-1.89-3.906C14.39.796 12.745.3 10.761.3H.813v1.085c.557.062 1.363.124 2.17.403.743.248.867.899.867 1.612v7.75H.811v1.302zm12.06-3.1c-.713 1.054-1.985 1.798-4.217 1.798h-1.55V1.571h2.17c1.737 0 2.822.527 3.535 1.488.682.93.93 2.201.93 3.379 0 .837-.218 1.953-.869 2.914z"/></symbol><symbol viewBox="0 0 24 24" id="fb" xmlns="http://www.w3.org/2000/svg"><path d="M13.397 20.997v-8.196h2.765l.411-3.209h-3.176V7.548c0-.926.258-1.56 1.587-1.56h1.684v-2.86A22.108 22.108 0 0014.201 3c-2.444 0-4.122 1.492-4.122 4.231v2.355H7.332v3.21h2.753v8.201h3.312z"/></symbol><symbol viewBox="0 0 62 16" id="footer-logo" xmlns="http://www.w3.org/2000/svg"><path d="M12.072 11.297c0 .81-.21 1.49-.627 2.044-.418.54-.985.95-1.7 1.234A6.105 6.105 0 017.438 15H.498V.633h7.689c.674 0 1.254.182 1.74.546.486.351.863.81 1.133 1.376a3.968 3.968 0 01-.121 3.723 3.214 3.214 0 01-1.538 1.356c.823.243 1.47.682 1.943 1.316.485.634.728 1.416.728 2.347zM3.29 3.021v3.622h3.723c.459 0 .857-.162 1.194-.486.337-.324.506-.769.506-1.335 0-.54-.155-.972-.466-1.295a1.421 1.421 0 00-1.112-.506H3.29zm5.97 7.75a2.02 2.02 0 00-.486-1.356c-.324-.378-.722-.566-1.194-.566H3.29v3.784h4.148c.513 0 .944-.183 1.295-.547.35-.364.526-.803.526-1.315zM13.967.228h2.711v11.373c0 .499.081.83.243.991.162.162.384.243.668.243.216 0 .438-.027.668-.081.229-.054.431-.121.607-.202l.364 2.064a5.25 5.25 0 01-1.275.404 6.95 6.95 0 01-1.315.142c-.85 0-1.511-.223-1.983-.668-.459-.458-.688-1.106-.688-1.942V.228zm11.34 14.974c-1.161 0-2.16-.25-2.996-.748a5.265 5.265 0 01-1.902-2.024 5.682 5.682 0 01-.668-2.711c0-.985.223-1.896.668-2.732a5.27 5.27 0 011.923-2.003c.836-.513 1.828-.77 2.974-.77 1.147 0 2.132.257 2.955.77a5.078 5.078 0 011.922 2.003c.445.836.668 1.747.668 2.732 0 .97-.223 1.875-.668 2.711a5.22 5.22 0 01-1.922 2.024c-.823.499-1.808.748-2.955.748zM22.534 9.72c0 .62.121 1.173.364 1.659.243.472.573.843.992 1.113.418.27.89.405 1.416.405.513 0 .978-.135 1.396-.405.419-.284.75-.661.992-1.133.256-.486.384-1.04.384-1.66 0-.607-.128-1.146-.384-1.618a2.807 2.807 0 00-.992-1.134 2.434 2.434 0 00-1.396-.425c-.526 0-.998.142-1.416.425-.418.27-.749.648-.992 1.134-.243.472-.364 1.018-.364 1.639zm15.044 5.483c-1.16 0-2.159-.25-2.995-.748a5.266 5.266 0 01-1.902-2.024 5.682 5.682 0 01-.668-2.711c0-.985.223-1.896.668-2.732a5.27 5.27 0 011.922-2.003c.837-.513 1.828-.77 2.975-.77 1.146 0 2.131.257 2.954.77a5.079 5.079 0 011.922 2.003c.446.836.668 1.747.668 2.732 0 .97-.222 1.875-.668 2.711a5.22 5.22 0 01-1.922 2.024c-.823.499-1.808.748-2.954.748zM34.806 9.72c0 .62.122 1.173.365 1.659.243.472.573.843.991 1.113.419.27.89.405 1.417.405a2.52 2.52 0 001.396-.405c.418-.284.749-.661.992-1.133.256-.486.384-1.04.384-1.66 0-.607-.128-1.146-.384-1.618a2.807 2.807 0 00-.992-1.134 2.434 2.434 0 00-1.396-.425c-.526 0-.998.142-1.417.425a2.81 2.81 0 00-.991 1.134c-.243.472-.364 1.018-.364 1.639zM61.425 15h-2.712V9.05c0-.836-.148-1.45-.445-1.84-.283-.405-.681-.608-1.194-.608-.54 0-1.045.21-1.517.628-.473.404-.81.937-1.012 1.598V15h-2.712V9.05c0-.849-.148-1.47-.445-1.86-.283-.392-.681-.588-1.194-.588-.526 0-1.032.203-1.517.607-.472.405-.81.938-1.012 1.599V15h-2.712V4.397h2.449V6.36A3.998 3.998 0 0149 4.78c.688-.377 1.47-.566 2.348-.566.877 0 1.558.215 2.043.647.5.432.817.965.952 1.599.418-.729.964-1.282 1.638-1.66.675-.39 1.43-.586 2.267-.586.66 0 1.194.121 1.598.364.419.23.742.546.972.95.23.392.384.837.465 1.336.095.5.142 1.005.142 1.518V15z"/></symbol><symbol viewBox="0 0 17 17" id="footer-logo-sm" xmlns="http://www.w3.org/2000/svg"><path d="M1.5 8.5A6.5 6.5 0 008 15h7.5V9a7 7 0 00-7-7H8a6.5 6.5 0 00-6.5 6.5z"/></symbol><symbol viewBox="0 0 24 24" id="instagram" xmlns="http://www.w3.org/2000/svg"><path d="M8.318 3A5.325 5.325 0 003 8.318v7.364A5.325 5.325 0 008.318 21h7.364A5.325 5.325 0 0021 15.682V8.318A5.325 5.325 0 0015.682 3H8.318zm0 .818h7.364c2.49 0 4.5 2.01 4.5 4.5v7.364c0 2.49-2.01 4.5-4.5 4.5H8.318c-2.49 0-4.5-2.01-4.5-4.5V8.318c0-2.49 2.01-4.5 4.5-4.5zm8.591 2.455a.818.818 0 100 1.637.818.818 0 000-1.637zM12 7.5c-2.48 0-4.5 2.02-4.5 4.5s2.02 4.5 4.5 4.5 4.5-2.02 4.5-4.5-2.02-4.5-4.5-4.5zm0 .818A3.676 3.676 0 0115.682 12 3.676 3.676 0 0112 15.682 3.676 3.676 0 018.318 12 3.676 3.676 0 0112 8.318z"/></symbol><symbol viewBox="0 0 64 27" id="logo" xmlns="http://www.w3.org/2000/svg"><path d="M13.072 17.297c0 .81-.21 1.49-.627 2.044-.418.54-.985.95-1.7 1.234A6.105 6.105 0 018.438 21h-6.94V6.633h7.689c.674 0 1.254.182 1.74.546.486.351.863.81 1.133 1.376a3.967 3.967 0 01-.121 3.723 3.214 3.214 0 01-1.538 1.356c.823.243 1.47.682 1.943 1.316.485.634.728 1.416.728 2.347zM4.29 9.021v3.622h3.723c.459 0 .857-.162 1.194-.486.337-.323.506-.769.506-1.335 0-.54-.155-.972-.466-1.295a1.421 1.421 0 00-1.112-.506H4.29zm5.97 7.75a2.02 2.02 0 00-.486-1.356c-.324-.378-.722-.566-1.194-.566H4.29v3.784h4.148c.513 0 .944-.183 1.295-.547a1.83 1.83 0 00.526-1.315zm4.708-10.543h2.711v11.373c0 .499.081.83.243.991.162.162.384.243.668.243.216 0 .438-.027.668-.081a3.22 3.22 0 00.607-.203l.364 2.065a5.25 5.25 0 01-1.275.404 6.95 6.95 0 01-1.315.142c-.85 0-1.511-.223-1.983-.668-.459-.459-.688-1.106-.688-1.942V6.228zm11.34 14.974c-1.161 0-2.16-.25-2.996-.748a5.265 5.265 0 01-1.902-2.024 5.682 5.682 0 01-.668-2.711c0-.985.223-1.896.668-2.732a5.27 5.27 0 011.923-2.003c.836-.513 1.828-.77 2.974-.77 1.147 0 2.132.257 2.955.77a5.078 5.078 0 011.922 2.003c.445.836.668 1.747.668 2.732 0 .97-.223 1.875-.668 2.711a5.22 5.22 0 01-1.922 2.024c-.823.499-1.808.748-2.955.748zm-2.773-5.483c0 .62.121 1.173.364 1.659.243.472.573.843.992 1.113.418.27.89.404 1.416.404.513 0 .978-.134 1.396-.404.419-.284.75-.661.992-1.133.256-.486.384-1.04.384-1.66 0-.607-.128-1.146-.384-1.618a2.806 2.806 0 00-.992-1.134 2.434 2.434 0 00-1.396-.425c-.526 0-.998.142-1.416.425-.418.27-.749.648-.992 1.134-.243.472-.364 1.018-.364 1.639zm15.044 5.483c-1.16 0-2.159-.25-2.995-.748a5.266 5.266 0 01-1.902-2.024 5.682 5.682 0 01-.668-2.711c0-.985.223-1.896.668-2.732a5.27 5.27 0 011.922-2.003c.837-.513 1.828-.77 2.975-.77 1.146 0 2.131.257 2.954.77a5.079 5.079 0 011.922 2.003c.446.836.668 1.747.668 2.732 0 .97-.222 1.875-.668 2.711a5.22 5.22 0 01-1.922 2.024c-.823.499-1.808.748-2.954.748zm-2.773-5.483c0 .62.122 1.173.365 1.659.243.472.573.843.991 1.113.419.27.89.404 1.417.404a2.52 2.52 0 001.396-.404c.418-.284.749-.661.992-1.133.256-.486.384-1.04.384-1.66 0-.607-.128-1.146-.384-1.618a2.807 2.807 0 00-.992-1.134 2.434 2.434 0 00-1.396-.425c-.526 0-.998.142-1.417.425a2.81 2.81 0 00-.991 1.134c-.243.472-.364 1.018-.364 1.639zM62.425 21h-2.712v-5.95c0-.836-.148-1.45-.445-1.84-.283-.405-.681-.608-1.194-.608-.54 0-1.045.21-1.517.628-.473.404-.81.937-1.012 1.598V21h-2.712v-5.95c0-.849-.148-1.47-.445-1.86-.283-.392-.681-.588-1.194-.588-.526 0-1.032.203-1.517.607-.472.405-.81.938-1.012 1.599V21h-2.712V10.397h2.449v1.963A3.998 3.998 0 0150 10.78c.688-.378 1.47-.566 2.348-.566.877 0 1.558.216 2.043.647.5.432.817.965.952 1.599.418-.729.964-1.282 1.638-1.66.675-.39 1.43-.586 2.267-.586.66 0 1.194.121 1.598.364.419.23.742.546.972.95.23.392.384.837.465 1.337.095.499.142 1.005.142 1.517V21z"/></symbol><symbol viewBox="0 0 16 16" id="northWestArrow" xmlns="http://www.w3.org/2000/svg"><path d="M11.334 3.667h-7v7H5V4.805l6.764 6.764.472-.471-6.764-6.765h5.862v-.666z"/></symbol><symbol viewBox="0 0 24 24" id="notification" xmlns="http://www.w3.org/2000/svg"><path fill-rule="evenodd" clip-rule="evenodd" d="M13 3a1 1 0 10-2 0v2.083A6.002 6.002 0 006 11v3.697l-1.832 2.748A1 1 0 005 19h14a1 1 0 00.832-1.555L18 14.697V11a6.002 6.002 0 00-5-5.917V3zm-5 8a4 4 0 118 0v4a1 1 0 00.168.555L17.131 17H6.87l.963-1.445A1 1 0 008 15v-4z"/><path d="M14 20a2 2 0 01-4 0h4z"/></symbol><symbol viewBox="0 0 24 24" id="play" xmlns="http://www.w3.org/2000/svg"><path fill-rule="evenodd" clip-rule="evenodd" d="M12 24c6.627 0 12-5.373 12-12S18.627 0 12 0 0 5.373 0 12s5.373 12 12 12zm-2.919-9.029V9.683c0-.872.918-1.439 1.697-1.048l5.29 2.654a1.172 1.172 0 01-.004 2.096l-5.288 2.635a1.172 1.172 0 01-1.695-1.049z"/></symbol><symbol viewBox="0 0 25 24" id="popup" xmlns="http://www.w3.org/2000/svg"><g filter="url(#na)"><path fill-rule="evenodd" clip-rule="evenodd" d="M11 3h11v11H11V3zm1 1h9v9h-9V4z"/><path d="M10.001 7.963v1H4.938v10.084h10.084V15h1v5.047H3.938V7.963H10z"/></g><defs><filter id="na" x="-2" y="-3" width="30" height="30" filterUnits="userSpaceOnUse" color-interpolation-filters="sRGB"><feFlood flood-opacity="0" result="BackgroundImageFix"/><feColorMatrix in="SourceAlpha" values="0 0 0 0 0 0 0 0 0 0 0 0 0 0 0 0 0 0 127 0" result="hardAlpha"/><feOffset/><feGaussianBlur stdDeviation="1.5"/><feColorMatrix values="0 0 0 0 1 0 0 0 0 1 0 0 0 0 1 0 0 0 0.56 0"/><feBlend in2="BackgroundImageFix" result="effect1_dropShadow_1551_9641"/><feBlend in="SourceGraphic" in2="effect1_dropShadow_1551_9641" result="shape"/></filter></defs></symbol><symbol viewBox="0 0 13 7" id="shevron-down" xmlns="http://www.w3.org/2000/svg"><path fill-rule="evenodd" clip-rule="evenodd" d="M6.248 5.557L1.102.374l-.707.712 5.853 5.896 5.854-5.896-.707-.712-5.147 5.183z"/></symbol><symbol viewBox="0 0 5 8" id="shevron-right" xmlns="http://www.w3.org/2000/svg"><path fill-rule="evenodd" clip-rule="evenodd" d="M3.529 4L.098.57.569.097 4.471 4 .57 7.902l-.471-.471L3.528 4z"/></symbol><symbol viewBox="0 0 24 24" id="telegram" xmlns="http://www.w3.org/2000/svg"><path fill-rule="evenodd" clip-rule="evenodd" d="M13.25 18.697l5.056 2.064a.684.684 0 00.614-.034c.2-.118.32-.286.357-.502l2.857-17.142a.698.698 0 00-.301-.715.693.693 0 00-.402-.122.682.682 0 00-.357.1L2.503 13.06c-.253.142-.372.361-.357.659.022.305.17.51.446.614l5.409 1.808s3.685-3.111 6.229-5.166a66.727 66.727 0 011.716-1.352c-.335.78-.638 1.437-.918 1.993-1.251 2.487-2.023 2.953-2.957 3.518-.728.44-1.554.94-2.783 2.502-.277 1.496 0 3.895 0 3.895 0 .15.043.285.129.408a.7.7 0 00.34.262.6.6 0 00.246.045c.23 0 .413-.086.547-.257l2.7-3.293zm-3.024 2.11a22.126 22.126 0 01-.043-.706c-.03-.682-.029-1.444.052-2.047 1.015-1.25 1.656-1.639 2.327-2.045.221-.135.446-.27.688-.44 1.131-.793 2.097-2.01 3.615-5.553l1.474-3.438-2.993 2.245c-1.024.768-3.031 2.415-4.762 3.852a600.832 600.832 0 00-2.798 2.34l-4.223-1.412L21.048 3.515 18.351 19.7l-5.406-2.207-2.719 3.315z"/></symbol><symbol viewBox="0 0 16 16" id="viber" xmlns="http://www.w3.org/2000/svg"><path d="M8 1.335c-1.071.013-3.374.19-4.662 1.37-.958.948-1.292 2.35-1.331 4.084-.033 1.728-.072 4.973 3.058 5.856v1.346s-.02.538.337.648c.438.14.688-.275 1.105-.72l.778-.879c2.142.178 3.782-.232 3.97-.293.435-.139 2.883-.451 3.283-3.696.41-3.351-.2-5.463-1.301-6.418h-.007c-.332-.306-1.668-1.279-4.652-1.29 0 0-.222-.014-.578-.008zm.037.942a7.02 7.02 0 01.488.011c2.527.007 3.732.767 4.017 1.023.927.794 1.405 2.697 1.055 5.495-.332 2.713-2.317 2.885-2.685 3.002-.156.05-1.6.406-3.42.289 0 0-1.356 1.634-1.78 2.055-.067.074-.146.095-.196.085-.071-.018-.093-.107-.089-.229l.013-2.233c-2.655-.733-2.498-3.5-2.47-4.946.033-1.446.304-2.628 1.113-3.43 1.088-.982 3.043-1.115 3.953-1.122zm.2 1.446a.166.166 0 100 .332 3.136 3.136 0 012.242.883c.606.588.9 1.378.912 2.411 0 .092.074.167.167.167V7.51a.167.167 0 00.168-.165 3.588 3.588 0 00-1.009-2.646c-.66-.645-1.496-.977-2.48-.977zm-2.198.382a.523.523 0 00-.342.067H5.69a2.61 2.61 0 00-.637.523 1.003 1.003 0 00-.256.525.71.71 0 00.026.302l.01.006c.172.504.396.988.67 1.444a8.48 8.48 0 001.29 1.762l.015.022.024.017.015.018.017.015c.532.505 1.127.94 1.769 1.295.734.4 1.18.588 1.447.667v.004c.078.024.15.034.221.034.228-.016.444-.109.613-.262a2.53 2.53 0 00.517-.638v-.004c.128-.241.085-.469-.1-.623-.37-.323-.77-.61-1.195-.857-.285-.155-.574-.061-.69.095l-.25.315c-.129.156-.361.134-.361.134l-.007.004C7.093 8.527 6.63 6.772 6.63 6.772s-.022-.239.139-.36l.312-.252c.15-.122.254-.41.094-.695a7.498 7.498 0 00-.856-1.194.475.475 0 00-.28-.167zm2.486.495c-.221 0-.221.334.003.334A2.098 2.098 0 0110 5.572 1.94 1.94 0 0110.5 7a.168.168 0 00.167.165l.007.009a.169.169 0 00.167-.167c.015-.662-.191-1.218-.595-1.663C9.84 4.9 9.273 4.65 8.549 4.6h-.024zm.274.898c-.228-.006-.236.335-.01.341.55.029.816.306.851.877a.166.166 0 00.165.163h.007a.168.168 0 00.16-.178c-.039-.744-.445-1.164-1.166-1.202H8.8z"/></symbol><symbol viewBox="0 0 24 24" id="visibility" xmlns="http://www.w3.org/2000/svg"><path fill-rule="evenodd" clip-rule="evenodd" d="M12 4C7 4 2.73 7.11 1 11.5 2.73 15.89 7 19 12 19s9.27-3.11 11-7.5C21.27 7.11 17 4 12 4zm0 12.5c-2.76 0-5-2.24-5-5s2.24-5 5-5 5 2.24 5 5-2.24 5-5 5zm-3-5c0-1.66 1.34-3 3-3s3 1.34 3 3-1.34 3-3 3-3-1.34-3-3z"/></symbol><symbol viewBox="0 0 24 24" id="vk" xmlns="http://www.w3.org/2000/svg"><path d="M21.579 6.855c.14-.465 0-.806-.662-.806h-2.193c-.558 0-.813.295-.953.619 0 0-1.115 2.719-2.695 4.482-.51.513-.743.675-1.021.675-.139 0-.341-.162-.341-.627V6.855c0-.558-.161-.806-.626-.806H9.642c-.348 0-.558.258-.558.504 0 .528.79.65.871 2.138v3.228c0 .707-.127.836-.407.836-.743 0-2.551-2.73-3.624-5.853-.209-.607-.42-.852-.98-.852H2.752c-.627 0-.752.295-.752.619 0 .582.743 3.462 3.461 7.27 1.812 2.602 4.363 4.012 6.687 4.012 1.393 0 1.565-.313 1.565-.853v-1.966c0-.626.133-.752.574-.752.324 0 .882.164 2.183 1.417 1.486 1.486 1.732 2.153 2.567 2.153h2.192c.626 0 .939-.313.759-.931-.197-.615-.907-1.51-1.849-2.57-.512-.603-1.277-1.253-1.51-1.578-.325-.42-.231-.604 0-.976.001 0 2.672-3.761 2.95-5.04z"/></symbol><symbol viewBox="0 0 24 24" id="whatsapp" xmlns="http://www.w3.org/2000/svg"><g fill-rule="evenodd" clip-rule="evenodd"><path d="M17.578 12.658l-.017-.008-.016-.008a5.343 5.343 0 01-.388-.206l-.105-.06c-.141-.08-.304-.172-.465-.258a5.823 5.823 0 00-.675-.314 2.445 2.445 0 00-.85-.174c-.391 0-.672.14-.792.2l-.014.006-.145.072-.115.114c-.14.139-.259.307-.33.41l-.068.095c-.056.08-.1.144-.15.21-.316-.066-.685-.27-1.088-.643a6.423 6.423 0 01-1.091-1.378l.023-.03c.097-.127.17-.213.23-.273l.07-.07.055-.082c.2-.297.394-.805.239-1.336a4.23 4.23 0 00-.165-.475 26.46 26.46 0 00-.735-1.662l-.028-.056-.035-.052a1.622 1.622 0 00-1.085-.708 2.073 2.073 0 00-1.021.102 3.633 3.633 0 00-1.292.813l-.045.044-.038.05a3.605 3.605 0 00-.783 2.208c0 1.093.455 2.063.986 2.85.533.791 1.202 1.482 1.743 2.02a10.107 10.107 0 004.567 2.612c.778.248 1.753.221 2.536-.167l.055-.028.052-.034c.652-.43 1.443-1.096 1.671-2.228l.02-.098v-.1l.001-.04.004-.066v-.002c.002-.052.008-.182-.016-.328a1.215 1.215 0 00-.246-.561 1.32 1.32 0 00-.454-.36zm-7.382-2.185c-.052.051-.052.154-.052.257l.156.308c.64 1.143 1.921 2.721 3.365 2.721.292 0 .545-.36.763-.674.097-.14.188-.269.272-.353.104-.05.207-.102.363-.102.412 0 .99.33 1.488.612.216.123.418.238.583.312.172.086.167.191.159.347a2.127 2.127 0 00-.004.115c-.148.735-.66 1.207-1.243 1.592-.533.264-1.249.289-1.812.103a9.105 9.105 0 01-4.141-2.362c-1.072-1.064-2.434-2.532-2.434-4.16 0-.565.208-1.13.57-1.592.398-.394 1.416-1.025 1.864-.36.155.309.776 1.695.828 1.952.052.154 0 .36-.103.514-.15.147-.29.333-.425.514a9.616 9.616 0 01-.197.256z"/><path d="M4.346 16.122L3 21l5.022-1.284c1.398.77 2.95 1.13 4.504 1.13 5.229 0 9.474-4.262 9.474-9.449a9.281 9.281 0 00-2.744-6.624C17.496 2.976 15.063 2 12.578 2c-5.281 0-9.526 4.262-9.474 9.449 0 1.643.465 3.235 1.242 4.673zm14.196-10.65l.005.006.005.005A8.281 8.281 0 0121 11.397c0 4.634-3.797 8.449-8.474 8.449-1.4 0-2.784-.324-4.022-1.006l-.346-.19-3.735.954L5.417 16l-.191-.354c-.71-1.315-1.122-2.745-1.122-4.197v-.01C4.056 6.819 7.843 3 12.577 3c2.227 0 4.4.875 5.964 2.473z"/></g></symbol><symbol viewBox="0 0 24 24" id="whatsapp-qestions" xmlns="http://www.w3.org/2000/svg"><path d="M19.256 4.773C17.496 2.976 15.063 2 12.578 2c-5.281 0-9.526 4.262-9.474 9.449 0 1.643.465 3.235 1.242 4.673L3 21l5.022-1.284c1.398.77 2.95 1.13 4.504 1.13 5.229 0 9.474-4.262 9.474-9.449a9.281 9.281 0 00-2.744-6.624zm-6.678 14.481c-1.398 0-2.796-.36-3.987-1.078l-.31-.154-3.003.77.777-2.927-.208-.308C3.57 11.91 4.657 7.084 8.384 4.824c3.728-2.26 8.542-1.18 10.82 2.517 2.278 3.697 1.191 8.473-2.536 10.732-1.191.77-2.64 1.181-4.09 1.181zm4.556-5.7l-.57-.257s-.828-.36-1.346-.616c-.052 0-.104-.051-.155-.051a.755.755 0 00-.363.102s-.051.052-.776.873a.285.285 0 01-.26.154h-.05a.394.394 0 01-.208-.102l-.259-.103c-.57-.257-1.087-.565-1.501-.976-.104-.102-.26-.205-.363-.308-.362-.36-.724-.77-.983-1.232l-.052-.103c-.052-.051-.052-.103-.104-.205 0-.103 0-.206.052-.257 0 0 .207-.257.363-.41.103-.104.155-.258.258-.36.104-.154.156-.36.104-.514-.052-.257-.673-1.643-.828-1.951-.104-.154-.207-.206-.363-.257h-.569c-.104 0-.207.051-.31.051l-.053.052c-.103.051-.207.154-.31.205-.104.103-.156.206-.26.308A2.606 2.606 0 007.66 9.19c0 .411.104.822.26 1.181l.051.154a8.557 8.557 0 001.916 2.62l.207.205c.155.154.31.256.414.41a9.276 9.276 0 003.727 1.952c.156.051.363.051.518.102h.518c.259 0 .57-.102.776-.205.156-.103.26-.103.363-.205l.103-.103c.104-.103.207-.154.31-.257.104-.102.208-.205.26-.308.103-.205.155-.462.207-.719v-.36s-.052-.05-.155-.102z"/></symbol><symbol viewBox="0 0 56 56" id="youtube-play" xmlns="http://www.w3.org/2000/svg"><path fill-rule="evenodd" clip-rule="evenodd" d="M28 56c15.464 0 28-12.536 28-28S43.464 0 28 0 0 12.536 0 28s12.536 28 28 28zm-6.811-19.173V20.694a1.563 1.563 0 012.263-1.397l16.133 8.094c1.15.578 1.148 2.221-.004 2.795l-16.133 8.04a1.563 1.563 0 01-2.26-1.4z"/></symbol><symbol fill-rule="evenodd" clip-rule="evenodd" viewBox="0 0 24 24" id="zoom" xmlns="http://www.w3.org/2000/svg"><path d="M15.853 16.56A9.458 9.458 0 019.5 19C4.257 19 0 14.743 0 9.5S4.257 0 9.5 0 19 4.257 19 9.5c0 2.442-.923 4.67-2.44 6.353l7.44 7.44-.707.707-7.44-7.44zM9.5 1C14.191 1 18 4.809 18 9.5S14.191 18 9.5 18 1 14.191 1 9.5 4.809 1 9.5 1zM5 9h4V5h1v4h4v1h-4v4H9v-4H5V9z"/></symbol></svg>