<?xml version="1.0" encoding="utf-8"?><svg xmlns="http://www.w3.org/2000/svg" xmlns:xlink="http://www.w3.org/1999/xlink"><symbol viewBox="0 0 24 24" id="account-header" xmlns="http://www.w3.org/2000/svg"><path fill-rule="evenodd" clip-rule="evenodd" d="M12 2C6.48 2 2 6.48 2 12s4.48 10 10 10 10-4.48 10-10S17.52 2 12 2zM7.07 18.28c.43-.9 3.05-1.78 4.93-1.78s4.51.88 4.93 1.78A7.893 7.893 0 0112 20c-1.86 0-3.57-.64-4.93-1.72zM12 14.5c1.46 0 4.93.59 6.36 2.33A7.95 7.95 0 0020 12c0-4.41-3.59-8-8-8s-8 3.59-8 8c0 1.82.62 3.49 1.64 4.83 1.43-1.74 4.9-2.33 6.36-2.33zM12 6c-1.94 0-3.5 1.56-3.5 3.5S10.06 13 12 13s3.5-1.56 3.5-3.5S13.94 6 12 6zm-1.5 3.5c0 .83.67 1.5 1.5 1.5s1.5-.67 1.5-1.5S12.83 8 12 8s-1.5.67-1.5 1.5z"/></symbol><symbol viewBox="0 0 22 24" id="basket" xmlns="http://www.w3.org/2000/svg"><g clip-path="url(#aba)"><path d="M10.363 18.443a2.046 2.046 0 00-2.045 2.042 2.046 2.046 0 004.09 0 2.046 2.046 0 00-2.045-2.042zm6.134 0a2.046 2.046 0 00-2.045 2.042 2.046 2.046 0 004.089 0 2.046 2.046 0 00-2.044-2.042zm3.978-8.199L7.413 6.891a.614.614 0 00-.75.73L8.67 16.4h-.786L5.482 5.895a.613.613 0 00-.474-.464l-4.27-.882A.614.614 0 00.489 5.75l3.885.802L6.797 17.15a.613.613 0 00.598.477h12.07a.615.615 0 00.607-.53l.858-6.175a.613.613 0 00-.455-.678zm-8.14 3.91a.613.613 0 01-1.227 0v-2.696a.613.613 0 011.227 0v2.696zm2.625 0a.613.613 0 01-1.227 0v-1.88a.613.613 0 011.227 0v1.88zm2.625 0a.613.613 0 01-1.227 0v-1.226a.613.613 0 011.227 0v1.226z"/></g><path fill-rule="evenodd" clip-rule="evenodd" d="M16.268 4.568a2.996 2.996 0 00-1.693-.523c-.627 0-1.21.193-1.693.523-.28-.843-.492-1.752-.492-2.383C12.39.98 13.37 0 14.575 0s2.185.98 2.185 2.185c0 .631-.212 1.54-.492 2.383zm-4.722 2.274l.024.006v-.011l-.024.005zm4.972 1.217c-1.333-.33-2.766-.681-4.129-1.013a2.185 2.185 0 114.129 1.013zm4.436 1.103c-.866-.217-2.155-.538-3.618-.9a2.995 2.995 0 00.243-1.425c.87.18 1.762.45 2.308.765.596.344.969.928 1.067 1.56zM9.869 6.439c-.36-.086-.706-.167-1.03-.243a2.19 2.19 0 01-.376-2.667 2.188 2.188 0 013.147-.7c.098.738.338 1.599.61 2.353a3.01 3.01 0 00-.449.774c-.628.113-1.305.278-1.902.483zm10.124.075a3.43 3.43 0 01-.217.114c-.696-.295-1.587-.526-2.397-.672a3.01 3.01 0 00-.449-.774c.262-.727.494-1.553.599-2.273.095-.067.189-.128.278-.18a2.188 2.188 0 012.986.8 2.188 2.188 0 01-.8 2.985z"/><defs><clipPath id="aba"><path transform="translate(0 3.064)" d="M0 0h20.936v20.936H0z"/></clipPath></defs></symbol><symbol viewBox="0 0 24 24" id="bookmark" xmlns="http://www.w3.org/2000/svg"><path fill-rule="evenodd" clip-rule="evenodd" d="M6.5 7A2.5 2.5 0 019 4.5h6A2.5 2.5 0 0117.5 7v13.214L12 14.67l-5.5 5.544V7zM9 5.5A1.5 1.5 0 007.5 7v10.786L12 13.25l4.5 4.536V7A1.5 1.5 0 0015 5.5H9z"/></symbol><symbol viewBox="0 0 24 24" id="bookmarkActive" xmlns="http://www.w3.org/2000/svg"><path fill-rule="evenodd" clip-rule="evenodd" d="M9 4.5A2.5 2.5 0 006.5 7v13.214L12 14.67l5.5 5.544V7A2.5 2.5 0 0015 4.5H9z"/></symbol><symbol viewBox="0 0 24 24" id="check" xmlns="http://www.w3.org/2000/svg"><path d="M9 16.17L4.83 12l-1.42 1.41L9 19 21 7l-1.41-1.41L9 16.17z"/></symbol><symbol viewBox="0 0 12 20" id="chevron-left" xmlns="http://www.w3.org/2000/svg"><path fill-rule="evenodd" clip-rule="evenodd" d="M10.411.244l1.179 1.179L3.012 10l8.578 8.578-1.179 1.178L.655 10 10.411.244z"/></symbol><symbol viewBox="0 0 16 16" id="chevron-left-sm" xmlns="http://www.w3.org/2000/svg"><path fill-rule="evenodd" clip-rule="evenodd" d="M9.764 4.098l.471.471L6.805 8l3.43 3.431-.471.471L5.86 8l3.903-3.902z"/></symbol><symbol viewBox="0 0 12 20" id="chevron-right" xmlns="http://www.w3.org/2000/svg"><path fill-rule="evenodd" clip-rule="evenodd" d="M8.822 10L.244 1.423 1.423.244 11.179 10l-9.756 9.756-1.179-1.178L8.822 10z"/></symbol><symbol viewBox="0 0 24 24" id="close" xmlns="http://www.w3.org/2000/svg"><path d="M12 12.707l5.646 5.647.708-.707L12.707 12l5.647-5.646-.707-.708L12 11.293 6.354 5.646l-.708.708L11.293 12l-5.647 5.646.708.708L12 12.707z"/></symbol><symbol viewBox="0 0 28 16" id="coalla-logo" xmlns="http://www.w3.org/2000/svg"><path fill-rule="evenodd" clip-rule="evenodd" d="M23 11l-1-2c.022 0 .042 0 0 0 3.048-.075 4.049-1.657 4.049-3.5a3.6 3.6 0 00-3.512-3.536C18.108 2 19.307 8.381 19 7c-.565-.31-.892-1.343-1.686-1.54a12.176 12.176 0 00-6.629 0c-.794.2-1.12 1.23-1.686 1.54-.307 1.381.892-5-3.537-5.036A3.6 3.6 0 001.951 5.5c0 1.843 1 3.425 4.049 3.5-.044 0-.023 0 0 0l-1 2a5.6 5.6 0 01-5-5.522A5.52 5.52 0 015.463 0a5.187 5.187 0 014.845 3.475c.03.071.053.15.08.225a23.804 23.804 0 013.088-.657c.173-.028.348-.042.524-.043 1.226.103 2.436.338 3.612.7.027-.075.05-.155.08-.225A5.187 5.187 0 0122.537 0 5.521 5.521 0 0128 5.478 5.6 5.6 0 0123 11zm-1-2c-.022 0-.048 0 0 0zM6 9c.048 0 .022 0 0 0zm3.318 0a1.342 1.342 0 01.627 1.691 1.069 1.069 0 11-.628-1.684L9.318 9zM14 8.995c1.1 0 2 1.57 2 3.505 0 1.935-.9 3.5-2 3.5-1.076 0-1.952-1.492-2-3.355v-.3c.045-1.861.921-3.35 2-3.35zm4.686.013a1.354 1.354 0 011.261 1.292 1.069 1.069 0 11-1.89.4 1.342 1.342 0 01.626-1.693l.003.001z"/></symbol><symbol viewBox="0 0 18 22" id="currency" xmlns="http://www.w3.org/2000/svg"><path d="M.811 12.452H3.85v1.55H.811v1.302H3.85v3.751c0 .775-.279 1.302-.868 1.55-.186.093-.527.186-.992.217l-1.054.093V22h9.332v-1.085l-1.303-.124c-.465-.062-.775-.093-.96-.186-.745-.279-.9-.837-.9-1.55v-3.751h9.58v-1.302h-9.58v-1.55h2.45c2.076 0 3.937-.496 5.455-1.612 1.581-1.147 2.511-2.914 2.511-5.177 0-1.612-.62-2.914-1.89-3.906C14.39.796 12.745.3 10.761.3H.813v1.085c.557.062 1.363.124 2.17.403.743.248.867.899.867 1.612v7.75H.811v1.302zm12.06-3.1c-.713 1.054-1.985 1.798-4.217 1.798h-1.55V1.571h2.17c1.737 0 2.822.527 3.535 1.488.682.93.93 2.201.93 3.379 0 .837-.218 1.953-.869 2.914z"/></symbol><symbol viewBox="0 0 24 24" id="facebook-reg" xmlns="http://www.w3.org/2000/svg"><path fill-rule="evenodd" clip-rule="evenodd" d="M11.995 2c5.515 0 9.995 4.48 9.995 9.995 0 4.985-3.65 9.112-8.427 9.869v-6.979h2.317l.44-2.89h-.01v-.01h-2.768v-1.866c0-.79.4-1.569 1.64-1.569h1.251V6.11l-.01-.001V6.1s-1.127-.215-2.224-.215c-2.276 0-3.762 1.394-3.762 3.896v2.204H7.884v2.89h.01v.01h2.543v6.982C5.66 21.118 2 16.987 2 11.995 2 6.48 6.48 2 11.995 2z"/></symbol><symbol viewBox="0 0 24 24" id="fb" xmlns="http://www.w3.org/2000/svg"><path d="M13.397 20.997v-8.196h2.765l.411-3.209h-3.176V7.548c0-.926.258-1.56 1.587-1.56h1.684v-2.86A22.108 22.108 0 0014.201 3c-2.444 0-4.122 1.492-4.122 4.231v2.355H7.332v3.21h2.753v8.201h3.312z"/></symbol><symbol viewBox="0 0 24 24" id="fb-share" xmlns="http://www.w3.org/2000/svg"><path fill-rule="evenodd" clip-rule="evenodd" d="M15.88 14.886h-2.317v6.978a9.97 9.97 0 001-.212c4.277-1.136 7.427-5.026 7.427-9.657C21.99 6.48 17.51 2 11.995 2 6.48 2 2 6.48 2 11.995c0 4.638 3.158 8.532 7.437 9.662.327.086.66.157 1 .21v-6.982H7.894v-.01h-.01v-2.89h2.553V9.78c0-2.502 1.486-3.896 3.762-3.896 1.097 0 2.224.215 2.224.215v.009l.01.002v2.44h-1.25c-1.24 0-1.64.778-1.64 1.568v1.866h2.768l-.002.01h.011l-.44 2.89zm1.593-3.891h.012l-.746 4.89h-2.176v4.728c3.719-1.107 6.427-4.545 6.427-8.618C20.99 7.032 16.958 3 11.995 3 7.032 3 3 7.032 3 11.995c0 4.08 2.717 7.522 6.437 8.624v-4.733H6.894v-.01h-.01v-4.891h2.553V9.78c0-1.45.434-2.7 1.318-3.59.883-.89 2.1-1.306 3.444-1.306.607 0 1.21.06 1.65.116a15.76 15.76 0 01.7.106l.043.008.013.002.005.001v.008-.008l.813.155v.007l.01.002V9.55h-2.25c-.4 0-.507.117-.53.144-.048.054-.11.182-.11.425v.866h2.932l-.002.01zM16.423 6.1l.043-.224-.043.224z"/></symbol><symbol viewBox="0 0 62 16" id="footer-logo" xmlns="http://www.w3.org/2000/svg"><path d="M12.072 11.297c0 .81-.21 1.49-.627 2.044-.418.54-.985.95-1.7 1.234A6.105 6.105 0 017.438 15H.498V.633h7.689c.674 0 1.254.182 1.74.546.486.351.863.81 1.133 1.376a3.968 3.968 0 01-.121 3.723 3.214 3.214 0 01-1.538 1.356c.823.243 1.47.682 1.943 1.316.485.634.728 1.416.728 2.347zM3.29 3.021v3.622h3.723c.459 0 .857-.162 1.194-.486.337-.324.506-.769.506-1.335 0-.54-.155-.972-.466-1.295a1.421 1.421 0 00-1.112-.506H3.29zm5.97 7.75a2.02 2.02 0 00-.486-1.356c-.324-.378-.722-.566-1.194-.566H3.29v3.784h4.148c.513 0 .944-.183 1.295-.547.35-.364.526-.803.526-1.315zM13.967.228h2.711v11.373c0 .499.081.83.243.991.162.162.384.243.668.243.216 0 .438-.027.668-.081.229-.054.431-.121.607-.202l.364 2.064a5.25 5.25 0 01-1.275.404 6.95 6.95 0 01-1.315.142c-.85 0-1.511-.223-1.983-.668-.459-.458-.688-1.106-.688-1.942V.228zm11.34 14.974c-1.161 0-2.16-.25-2.996-.748a5.265 5.265 0 01-1.902-2.024 5.682 5.682 0 01-.668-2.711c0-.985.223-1.896.668-2.732a5.27 5.27 0 011.923-2.003c.836-.513 1.828-.77 2.974-.77 1.147 0 2.132.257 2.955.77a5.078 5.078 0 011.922 2.003c.445.836.668 1.747.668 2.732 0 .97-.223 1.875-.668 2.711a5.22 5.22 0 01-1.922 2.024c-.823.499-1.808.748-2.955.748zM22.534 9.72c0 .62.121 1.173.364 1.659.243.472.573.843.992 1.113.418.27.89.405 1.416.405.513 0 .978-.135 1.396-.405.419-.284.75-.661.992-1.133.256-.486.384-1.04.384-1.66 0-.607-.128-1.146-.384-1.618a2.807 2.807 0 00-.992-1.134 2.434 2.434 0 00-1.396-.425c-.526 0-.998.142-1.416.425-.418.27-.749.648-.992 1.134-.243.472-.364 1.018-.364 1.639zm15.044 5.483c-1.16 0-2.159-.25-2.995-.748a5.266 5.266 0 01-1.902-2.024 5.682 5.682 0 01-.668-2.711c0-.985.223-1.896.668-2.732a5.27 5.27 0 011.922-2.003c.837-.513 1.828-.77 2.975-.77 1.146 0 2.131.257 2.954.77a5.079 5.079 0 011.922 2.003c.446.836.668 1.747.668 2.732 0 .97-.222 1.875-.668 2.711a5.22 5.22 0 01-1.922 2.024c-.823.499-1.808.748-2.954.748zM34.806 9.72c0 .62.122 1.173.365 1.659.243.472.573.843.991 1.113.419.27.89.405 1.417.405a2.52 2.52 0 001.396-.405c.418-.284.749-.661.992-1.133.256-.486.384-1.04.384-1.66 0-.607-.128-1.146-.384-1.618a2.807 2.807 0 00-.992-1.134 2.434 2.434 0 00-1.396-.425c-.526 0-.998.142-1.417.425a2.81 2.81 0 00-.991 1.134c-.243.472-.364 1.018-.364 1.639zM61.425 15h-2.712V9.05c0-.836-.148-1.45-.445-1.84-.283-.405-.681-.608-1.194-.608-.54 0-1.045.21-1.517.628-.473.404-.81.937-1.012 1.598V15h-2.712V9.05c0-.849-.148-1.47-.445-1.86-.283-.392-.681-.588-1.194-.588-.526 0-1.032.203-1.517.607-.472.405-.81.938-1.012 1.599V15h-2.712V4.397h2.449V6.36A3.998 3.998 0 0149 4.78c.688-.377 1.47-.566 2.348-.566.877 0 1.558.215 2.043.647.5.432.817.965.952 1.599.418-.729.964-1.282 1.638-1.66.675-.39 1.43-.586 2.267-.586.66 0 1.194.121 1.598.364.419.23.742.546.972.95.23.392.384.837.465 1.336.095.5.142 1.005.142 1.518V15z"/></symbol><symbol viewBox="0 0 17 17" id="footer-logo-sm" xmlns="http://www.w3.org/2000/svg"><path d="M1.5 8.5A6.5 6.5 0 008 15h7.5V9a7 7 0 00-7-7H8a6.5 6.5 0 00-6.5 6.5z"/></symbol><symbol viewBox="0 0 24 24" id="google-reg" xmlns="http://www.w3.org/2000/svg"><path d="M21 12.165c0-.738-.06-1.277-.194-1.835H12.18v3.331h5.063c-.102.828-.653 2.075-1.878 2.913l-.017.112 2.727 2.064.19.019C20 17.203 21 14.899 21 12.165z"/><path d="M12.18 20.944c2.482 0 4.564-.799 6.086-2.175l-2.9-2.195c-.776.529-1.817.898-3.185.898a5.52 5.52 0 01-5.227-3.73l-.108.008-2.836 2.145-.037.1c1.51 2.933 4.614 4.949 8.208 4.949z"/><path d="M6.953 13.742a5.413 5.413 0 01-.306-1.776c0-.619.112-1.217.296-1.776l-.005-.119-2.872-2.179-.094.044a8.82 8.82 0 00-.98 4.03 8.83 8.83 0 00.98 4.03l2.981-2.255z"/><path d="M12.18 6.46c1.726 0 2.89.727 3.554 1.336l2.593-2.474c-1.593-1.446-3.665-2.334-6.146-2.334-3.594 0-6.697 2.015-8.208 4.948l2.97 2.254a5.543 5.543 0 015.238-3.73z"/></symbol><symbol viewBox="0 0 16 16" id="help" xmlns="http://www.w3.org/2000/svg"><circle cx="8" cy="8" r="5.5"/><path d="M6 6.667c0-.667.4-2 2-2s2 1 2 2-1.333 1.666-1.667 2C7.595 9.405 7.667 10 7.667 10M7.5 10.833h.333v.333H7.5z"/></symbol><symbol viewBox="0 0 24 24" id="instagram" xmlns="http://www.w3.org/2000/svg"><path d="M8.318 3A5.325 5.325 0 003 8.318v7.364A5.325 5.325 0 008.318 21h7.364A5.325 5.325 0 0021 15.682V8.318A5.325 5.325 0 0015.682 3H8.318zm0 .818h7.364c2.49 0 4.5 2.01 4.5 4.5v7.364c0 2.49-2.01 4.5-4.5 4.5H8.318c-2.49 0-4.5-2.01-4.5-4.5V8.318c0-2.49 2.01-4.5 4.5-4.5zm8.591 2.455a.818.818 0 100 1.637.818.818 0 000-1.637zM12 7.5c-2.48 0-4.5 2.02-4.5 4.5s2.02 4.5 4.5 4.5 4.5-2.02 4.5-4.5-2.02-4.5-4.5-4.5zm0 .818A3.676 3.676 0 0115.682 12 3.676 3.676 0 0112 15.682 3.676 3.676 0 018.318 12 3.676 3.676 0 0112 8.318z"/></symbol><symbol viewBox="0 0 64 27" id="logo" xmlns="http://www.w3.org/2000/svg"><path d="M13.072 17.297c0 .81-.21 1.49-.627 2.044-.418.54-.985.95-1.7 1.234A6.105 6.105 0 018.438 21h-6.94V6.633h7.689c.674 0 1.254.182 1.74.546.486.351.863.81 1.133 1.376a3.967 3.967 0 01-.121 3.723 3.214 3.214 0 01-1.538 1.356c.823.243 1.47.682 1.943 1.316.485.634.728 1.416.728 2.347zM4.29 9.021v3.622h3.723c.459 0 .857-.162 1.194-.486.337-.323.506-.769.506-1.335 0-.54-.155-.972-.466-1.295a1.421 1.421 0 00-1.112-.506H4.29zm5.97 7.75a2.02 2.02 0 00-.486-1.356c-.324-.378-.722-.566-1.194-.566H4.29v3.784h4.148c.513 0 .944-.183 1.295-.547a1.83 1.83 0 00.526-1.315zm4.708-10.543h2.711v11.373c0 .499.081.83.243.991.162.162.384.243.668.243.216 0 .438-.027.668-.081a3.22 3.22 0 00.607-.203l.364 2.065a5.25 5.25 0 01-1.275.404 6.95 6.95 0 01-1.315.142c-.85 0-1.511-.223-1.983-.668-.459-.459-.688-1.106-.688-1.942V6.228zm11.34 14.974c-1.161 0-2.16-.25-2.996-.748a5.265 5.265 0 01-1.902-2.024 5.682 5.682 0 01-.668-2.711c0-.985.223-1.896.668-2.732a5.27 5.27 0 011.923-2.003c.836-.513 1.828-.77 2.974-.77 1.147 0 2.132.257 2.955.77a5.078 5.078 0 011.922 2.003c.445.836.668 1.747.668 2.732 0 .97-.223 1.875-.668 2.711a5.22 5.22 0 01-1.922 2.024c-.823.499-1.808.748-2.955.748zm-2.773-5.483c0 .62.121 1.173.364 1.659.243.472.573.843.992 1.113.418.27.89.404 1.416.404.513 0 .978-.134 1.396-.404.419-.284.75-.661.992-1.133.256-.486.384-1.04.384-1.66 0-.607-.128-1.146-.384-1.618a2.806 2.806 0 00-.992-1.134 2.434 2.434 0 00-1.396-.425c-.526 0-.998.142-1.416.425-.418.27-.749.648-.992 1.134-.243.472-.364 1.018-.364 1.639zm15.044 5.483c-1.16 0-2.159-.25-2.995-.748a5.266 5.266 0 01-1.902-2.024 5.682 5.682 0 01-.668-2.711c0-.985.223-1.896.668-2.732a5.27 5.27 0 011.922-2.003c.837-.513 1.828-.77 2.975-.77 1.146 0 2.131.257 2.954.77a5.079 5.079 0 011.922 2.003c.446.836.668 1.747.668 2.732 0 .97-.222 1.875-.668 2.711a5.22 5.22 0 01-1.922 2.024c-.823.499-1.808.748-2.954.748zm-2.773-5.483c0 .62.122 1.173.365 1.659.243.472.573.843.991 1.113.419.27.89.404 1.417.404a2.52 2.52 0 001.396-.404c.418-.284.749-.661.992-1.133.256-.486.384-1.04.384-1.66 0-.607-.128-1.146-.384-1.618a2.807 2.807 0 00-.992-1.134 2.434 2.434 0 00-1.396-.425c-.526 0-.998.142-1.417.425a2.81 2.81 0 00-.991 1.134c-.243.472-.364 1.018-.364 1.639zM62.425 21h-2.712v-5.95c0-.836-.148-1.45-.445-1.84-.283-.405-.681-.608-1.194-.608-.54 0-1.045.21-1.517.628-.473.404-.81.937-1.012 1.598V21h-2.712v-5.95c0-.849-.148-1.47-.445-1.86-.283-.392-.681-.588-1.194-.588-.526 0-1.032.203-1.517.607-.472.405-.81.938-1.012 1.599V21h-2.712V10.397h2.449v1.963A3.998 3.998 0 0150 10.78c.688-.378 1.47-.566 2.348-.566.877 0 1.558.216 2.043.647.5.432.817.965.952 1.599.418-.729.964-1.282 1.638-1.66.675-.39 1.43-.586 2.267-.586.66 0 1.194.121 1.598.364.419.23.742.546.972.95.23.392.384.837.465 1.337.095.499.142 1.005.142 1.517V21z"/></symbol><symbol viewBox="0 0 16 16" id="northWestArrow" xmlns="http://www.w3.org/2000/svg"><path d="M11.334 3.667h-7v7H5V4.805l6.764 6.764.472-.471-6.764-6.765h5.862v-.666z"/></symbol><symbol viewBox="0 0 24 24" id="notification" xmlns="http://www.w3.org/2000/svg"><path fill-rule="evenodd" clip-rule="evenodd" d="M13 3a1 1 0 10-2 0v2.083A6.002 6.002 0 006 11v3.697l-1.832 2.748A1 1 0 005 19h14a1 1 0 00.832-1.555L18 14.697V11a6.002 6.002 0 00-5-5.917V3zm-5 8a4 4 0 118 0v4a1 1 0 00.168.555L17.131 17H6.87l.963-1.445A1 1 0 008 15v-4z"/><path d="M14 20a2 2 0 01-4 0h4z"/></symbol><symbol viewBox="0 0 24 24" id="play" xmlns="http://www.w3.org/2000/svg"><path fill-rule="evenodd" clip-rule="evenodd" d="M12 24c6.627 0 12-5.373 12-12S18.627 0 12 0 0 5.373 0 12s5.373 12 12 12zm-2.919-9.029V9.683c0-.872.918-1.439 1.697-1.048l5.29 2.654a1.172 1.172 0 01-.004 2.096l-5.288 2.635a1.172 1.172 0 01-1.695-1.049z"/></symbol><symbol viewBox="0 0 16 16" id="playVideo" xmlns="http://www.w3.org/2000/svg"><path d="M4 4.355v6.629c0 .774.814 1.277 1.506.932l6.63-3.303c.768-.383.77-1.478.002-1.863l-6.63-3.326A1.042 1.042 0 004 4.354z"/></symbol><symbol viewBox="0 0 22 22" id="plus" xmlns="http://www.w3.org/2000/svg"><path d="M10.555 11.444v6.667h.89v-6.667h6.666v-.888h-6.667V3.889h-.889v6.667H3.89v.889h6.666z"/></symbol><symbol viewBox="0 0 19 18" id="popup" xmlns="http://www.w3.org/2000/svg"><path fill-rule="evenodd" clip-rule="evenodd" d="M8 0h11v11H8V0zm1 1h9v9H9V1z"/><path d="M7.001 4.963v1H1.937v10.084h10.085V12h1v5.047H.937V4.963h6.064z"/></symbol><symbol viewBox="0 0 24 24" id="quote" xmlns="http://www.w3.org/2000/svg"><path d="M12.945 18c3.461-2.368 5.156-5.004 5.05-7.906 0-1.948-1.342-3.094-2.93-3.094-1.696 0-2.896 1.413-2.896 2.826 0 1.948 1.306 2.789 2.86 2.789 1.095 0 1.801-.917 2.19-1.108 0 .955-.46 2.024-1.343 3.17a15.952 15.952 0 01-3.213 3.056l.282.267zm-7.203 0c3.46-2.368 5.155-5.004 5.05-7.906C10.791 8.146 9.52 7 7.86 7 6.165 7 5 8.413 5 9.826c0 1.948 1.307 2.789 2.825 2.789.989 0 1.942-.84 2.19-1.108 0 .955-.46 1.986-1.342 3.132a15.84 15.84 0 01-3.179 3.094l.248.267z"/></symbol><symbol viewBox="0 0 96 96" id="sFaqExperts-1" xmlns="http://www.w3.org/2000/svg"><path d="M44.575 65.167c-1.129 2.827-2.323 6.335-3.056 11.464m3.056-11.464c-6.54-3.956-14.709-11.129-14.396-19.31.107-2.816.366-10.83 0-12.823-1.483-8.06-2.579-10.258-2.579-15.363 6.766-3.23 15.554-4.15 22.83-2.391 1.935.468 6.179 2.887 8.059 4.038-.68 2.018-2.08 5.41-2.424 6.516-1.425 4.582 2.359 7.054 3.552 10.91 2.06 1.895 6.436 5.982 7.467 7.172 1.29 1.488 7.167 7.726 2.278 19.893-3.031 7.545-8.792 15.02-10.873 18.684M44.576 65.167c4.468-8.602 7.815-16.639 13.43-24.57.6-.851.25-1.489 0-1.701-5.262 7.08-10.646 15.19-20.844 13.467-4.405-.743-6.607-3.134-6.983-3.612.125 1.381.3 4.547 0 6.163-.376 2.018-.376 14.132 1.933 21.038"/><path d="M38.835 35.965c-.13.295-.348 1.014-.194 1.535.194.651.387.791.483.558.097-.232.29-.837.145-1.255-.116-.335-.145-.543-.145-.605"/></symbol><symbol viewBox="0 0 96 96" id="sFaqExperts-2" xmlns="http://www.w3.org/2000/svg"><path d="M45.6 74.036l-1.2-16.8c-.6-.6-2.4-1.8-3-4.2-.65-2.603-7.8-12-7.2-21 .6-9 10.201-9.6 14.401-9.6 4.2 0 14.4 0 15.6 9.6 1.2 9.6-6.6 18-7.8 21-.909 2.273-2.2 3.8-3 4.2l-1.2 16.8M35.4 26.636c-3.2-3-11.52-7.8-19.2-3s-5.2 12.4-3 15.6"/><ellipse cx="18.62" cy="42.257" rx="5.557" ry="7.2" transform="rotate(45 18.62 42.257)"/><path d="M62.4 26.636c3.2-3 11.52-7.8 19.2-3s5.2 12.4 3 15.6"/><ellipse rx="5.557" ry="7.2" transform="scale(-1 1) rotate(45 -90.598 -74.45)"/></symbol><symbol viewBox="0 0 96 96" id="sFaqExperts-3" xmlns="http://www.w3.org/2000/svg"><path d="M36.54 25.974C35.373 18.65 30.927 13.2 25.62 13.2c-6.196 0-11.22 7.435-11.22 16.605 0 9.171 5.024 16.606 11.22 16.606 5.306 0 9.752-5.45 10.92-12.774"/><path d="M24.087 29.345h13.376c2.938 0 5.587 2.114 5.473 5.05-.034.876-.149 1.705-.399 2.33-.922 2.306-9.686 14.299-9.225 19.834.35 4.193 3.536 5.227 4.613 5.535m20.705-36.12C59.8 18.65 64.245 13.2 69.55 13.2c6.197 0 11.22 7.435 11.22 16.605 0 9.171-5.023 16.606-11.22 16.606-5.305 0-9.75-5.45-10.92-12.774"/><path d="M71.084 29.345H57.707c-2.938 0-5.586 2.114-5.472 5.05.034.876.149 1.705.399 2.33.922 2.306 9.686 14.299 9.225 19.834-.35 4.193-3.537 5.227-4.613 5.535"/><path d="M57.009 61.17c0 2.63-1.078 5.948-2.847 8.605-1.784 2.681-4.124 4.483-6.551 4.483-2.427 0-4.767-1.802-6.551-4.483-1.77-2.657-2.847-5.975-2.847-8.605 0-5.098 4.11-8.475 9.398-8.475 5.288 0 9.398 3.377 9.398 8.475zM45.304 74.086v7.841m4.152-7.377v7.38"/></symbol><symbol viewBox="0 0 96 96" id="sFaqExperts-4" xmlns="http://www.w3.org/2000/svg"><circle cx="31.609" cy="64.324" r="14.809"/><circle cx="31.8" cy="64.2" r="6.6"/><path d="M41.38 36.55a1 1 0 011.414 0l4.69 4.69 8.233 8.233 4.794 4.794a1 1 0 010 1.414l-3.897 3.897a1 1 0 01-1.414 0l-4.832-4.832-8.234-8.234-4.65-4.651a1 1 0 010-1.415l3.896-3.896zm28.747 28.746a1 1 0 011.414 0l.194.194 1.374 1.375.211.21a1 1 0 010 1.415l-3.896 3.896a1 1 0 01-1.415 0l-.217-.217-1.374-1.374-.188-.188a1 1 0 010-1.414l3.897-3.897zM28.71 23.88a1 1 0 011.414 0l.202.2 1.386 1.387.219.22a1 1 0 010 1.413l-3.897 3.897a1 1 0 01-1.414 0l-.225-.226-1.387-1.386-.195-.195a1 1 0 010-1.414l3.897-3.896z"/><rect x="20.919" y="38.042" width="25.536" height="13.519" rx="2" transform="rotate(-45 20.919 38.042)"/><rect width="25.536" height="13.519" rx="2" transform="scale(1 -1) rotate(45 121.657 33.268)"/></symbol><symbol viewBox="0 0 96 96" id="sFaqExperts-5" xmlns="http://www.w3.org/2000/svg"><path d="M44.258 77.812c-.77-2.183-3.005-6.857-5.779-8.09-3.467-1.54-11.556 1.927-13.867-1.155-2.312-3.082-.386-5.393-.771-6.164-.308-.616-1.412-.77-1.926-.77-.128-.257-.308-.925 0-1.541.308-.616.642-.77.77-.77-1.155-.386-2.234-1.773-1.926-2.697.386-1.156 2.312-1.156 1.927-2.697-.386-1.54-3.082-1.155-3.467-3.081-.386-1.926 5.393-4.623 5.393-7.32 0-2.696-1.541-2.31-1.156-4.237.385-1.926 1.155-2.311 1.155-5.008 0-2.696 1.156-6.934 7.32-12.327 6.163-5.393 19.646-4.622 27.35-1.54 7.705 3.081 14.253 7.65 14.253 20.03 0 13.484-7.704 15.024-9.245 19.647-.924 2.774.899 8.603 1.926 11.172"/><path d="M28.849 42.372c-.257-.9-.617-3.005 0-4.238.616-1.233 1.027-1.54 1.155-1.54-.514-1.156-1.156-4.007.385-6.164s4.238-2.697 5.393-2.697c.257-1.027 1.31-3.159 3.467-3.467 2.158-.308 3.981.386 4.623.77 1.027-1.027 3.775-2.927 6.549-2.31 2.773.616 4.494 3.081 5.008 4.237 1.155-.642 4.006-1.695 6.163-.77 2.157.924 3.21 3.466 3.467 4.622 1.413.514 4.315 2.311 4.623 5.393.308 3.082-1.67 5.136-2.697 5.778.77 1.541 1.541 5.394-1.54 8.475-3.082 3.082-7.904 1.284-9.93 0M31.16 45.453c.642.386 2.234 1.079 3.467.77 1.232-.307 2.311-.898 2.696-1.155m0-6.549c-.642.514-1.849 1.85-1.54 3.082.307 1.233 1.412 2.055 1.925 2.312-.128.898 0 3.004 1.541 4.237s3.21 1.284 3.853 1.156c.256.513 1.078 1.54 2.31 1.54 1.234 0 2.312-.513 2.697-.77.613.642 2.396 1.772 4.623 1.156 2.227-.617 3.24-2.312 3.467-3.082"/><path d="M44.257 50.847l2.312 8.09 5.393 1.54-1.926-9.245m.385 1.541c.386 1.54 1.541 1.926 2.697 1.926 1.156 0 1.95 3.082 5.597 1.926 2.919-.924 3.648-3.21 3.648-4.237"/></symbol><symbol viewBox="0 0 24 24" id="search" xmlns="http://www.w3.org/2000/svg"><path fill-rule="evenodd" clip-rule="evenodd" d="M14.163 15.87a6.5 6.5 0 11.784-.63l3.907 3.906-.708.708-3.983-3.984zM16 10.5a5.5 5.5 0 11-11 0 5.5 5.5 0 0111 0z"/></symbol><symbol viewBox="0 0 24 24" id="share" xmlns="http://www.w3.org/2000/svg"><path d="M8.889 15.111L15.11 8.89m-.777 7L11.223 19A4.4 4.4 0 015 12.778l3.11-3.111M9.667 8.11L12.777 5A4.4 4.4 0 0119 11.222l-3.11 3.11"/></symbol><symbol viewBox="0 0 13 7" id="shevron-down" xmlns="http://www.w3.org/2000/svg"><path fill-rule="evenodd" clip-rule="evenodd" d="M6.248 5.557L1.102.374l-.707.712 5.853 5.896 5.854-5.896-.707-.712-5.147 5.183z"/></symbol><symbol viewBox="0 0 5 8" id="shevron-right" xmlns="http://www.w3.org/2000/svg"><path fill-rule="evenodd" clip-rule="evenodd" d="M3.529 4L.098.57.569.097 4.471 4 .57 7.902l-.471-.471L3.528 4z"/></symbol><symbol viewBox="0 0 16 16" id="shevron-right-sm" xmlns="http://www.w3.org/2000/svg"><path fill-rule="evenodd" clip-rule="evenodd" d="M9.529 8L6.098 4.57l.471-.472L10.471 8 6.57 11.902l-.471-.471L9.528 8z"/></symbol><symbol viewBox="0 0 24 24" id="telegram" xmlns="http://www.w3.org/2000/svg"><path fill-rule="evenodd" clip-rule="evenodd" d="M13.25 18.697l5.056 2.064a.684.684 0 00.614-.034c.2-.118.32-.286.357-.502l2.857-17.142a.698.698 0 00-.301-.715.693.693 0 00-.402-.122.682.682 0 00-.357.1L2.503 13.06c-.253.142-.372.361-.357.659.022.305.17.51.446.614l5.409 1.808s3.685-3.111 6.229-5.166a66.727 66.727 0 011.716-1.352c-.335.78-.638 1.437-.918 1.993-1.251 2.487-2.023 2.953-2.957 3.518-.728.44-1.554.94-2.783 2.502-.277 1.496 0 3.895 0 3.895 0 .15.043.285.129.408a.7.7 0 00.34.262.6.6 0 00.246.045c.23 0 .413-.086.547-.257l2.7-3.293zm-3.024 2.11a22.126 22.126 0 01-.043-.706c-.03-.682-.029-1.444.052-2.047 1.015-1.25 1.656-1.639 2.327-2.045.221-.135.446-.27.688-.44 1.131-.793 2.097-2.01 3.615-5.553l1.474-3.438-2.993 2.245c-1.024.768-3.031 2.415-4.762 3.852a600.832 600.832 0 00-2.798 2.34l-4.223-1.412L21.048 3.515 18.351 19.7l-5.406-2.207-2.719 3.315z"/></symbol><symbol viewBox="0 0 24 24" id="telegram-filled" xmlns="http://www.w3.org/2000/svg"><path fill-rule="evenodd" clip-rule="evenodd" d="M21.99 2.837L19.133 19.98a.703.703 0 01-.357.502.684.684 0 01-.614.034l-5.056-2.065-2.7 3.292a.657.657 0 01-.548.257.604.604 0 01-.245-.045.7.7 0 01-.34-.262.697.697 0 01-.129-.407V17.39l9.643-11.82-11.93 10.324-4.41-1.808c-.275-.104-.423-.309-.446-.614-.015-.297.104-.517.357-.658L20.93 2.1c.111-.067.23-.1.357-.1.148 0 .282.04.401.123a.698.698 0 01.302.714z"/></symbol><symbol viewBox="0 0 24 24" id="twitter-share" xmlns="http://www.w3.org/2000/svg"><path fill-rule="evenodd" clip-rule="evenodd" d="M20.644 9.3a8.304 8.304 0 001.9-1.818l1.338-1.762-2.099.814c.117-.202.216-.415.296-.636l.546-1.523-1.459.769a8.056 8.056 0 01-2.084.746c-.844-.683-1.961-1.09-3.16-1.09-2.549 0-4.706 1.843-4.706 4.221 0 .047 0 .094.002.14-2.895-.303-5.429-1.606-7.17-3.497l-.566-.615-.455.697a3.918 3.918 0 00-.656 2.152c0 .63.155 1.226.429 1.76l-.46-.225v1.05c0 1.075.445 2.042 1.161 2.777l-.086-.017.385 1.041c.434 1.175 1.414 2.11 2.65 2.583-.813.433-1.413.692-2.544.692a7.96 7.96 0 01-.899-.045L.658 17.25l1.888 1.383C4.24 19.872 6.05 20.3 8.427 20.3c7.858 0 12.218-5.78 12.218-10.857l-.001-.142zm.338-2.191zm.22-.061zm-9.66 2.444a12.577 12.577 0 01-.305-.027c-2.986-.301-5.607-1.64-7.41-3.598 1.864 2.024 4.603 3.387 7.715 3.625zm-7.888.871zm1.013 3.423zm2.563 3.002c-.115.06-.224.12-.33.177l-.06.033c-.954.517-1.615.861-2.934.861 1.346 0 2.007-.358 2.994-.894l.33-.177zM3.409 6.35l-.015.027.015-.027zm18.063-.659zM4.294 10.516a4.008 4.008 0 01.037.03l-.037-.03zm-1.298.266l.002.028-.002-.028zm2.469 3.02zm-.92.597l.013.026zm.013.026c.07.138.149.271.236.4zm3.109 2.111a4.602 4.602 0 01.045.006l-.045-.006zM3.32 18.393c.06.037.12.072.18.107l-.044-.026a6.242 6.242 0 01-.136-.08zM21.625 7.6l.033-.038-.033.038zm.38-.458l.022-.03zm-1.713.146zm-16.98.61c0-.468.114-.912.318-1.32 1.981 2 4.79 3.322 7.946 3.543.12.009.242.016.364.021l.404.018-.101-.392a2.528 2.528 0 01-.056-.293 3.395 3.395 0 01-.029-.453c0-1.782 1.644-3.296 3.765-3.296 1.086 0 2.076.407 2.765 1.056l.11.103.148-.026a9.347 9.347 0 001.854-.526c-.18.255-.4.486-.654.689a3.79 3.79 0 01-.603.393l.174.564a10.158 10.158 0 001.372-.251 7.336 7.336 0 01-1.26.998l-.15.094.01.177c.008.149.014.296.014.447 0 4.587-3.958 9.933-11.276 9.933-1.79 0-3.03-.241-4.328-.895 1.608-.039 2.486-.564 3.682-1.28l.119-.07c.162-.098.32-.2.475-.306l.765-.53-.93-.017a4.293 4.293 0 01-.503-.039c-1.242-.17-2.272-.872-2.807-1.81a6.312 6.312 0 00.524 0c.306-.014.605-.053.887-.121l-.017-.587a4.127 4.127 0 01-.723-.2c-1.214-.458-2.087-1.449-2.258-2.613a4.786 4.786 0 001.501.278l1.134.02-.976-.578a3.691 3.691 0 01-.486-.342c-.725-.604-1.173-1.458-1.173-2.388z"/></symbol><symbol viewBox="0 0 16 16" id="viber" xmlns="http://www.w3.org/2000/svg"><path d="M8 1.335c-1.071.013-3.374.19-4.662 1.37-.958.948-1.292 2.35-1.331 4.084-.033 1.728-.072 4.973 3.058 5.856v1.346s-.02.538.337.648c.438.14.688-.275 1.105-.72l.778-.879c2.142.178 3.782-.232 3.97-.293.435-.139 2.883-.451 3.283-3.696.41-3.351-.2-5.463-1.301-6.418h-.007c-.332-.306-1.668-1.279-4.652-1.29 0 0-.222-.014-.578-.008zm.037.942a7.02 7.02 0 01.488.011c2.527.007 3.732.767 4.017 1.023.927.794 1.405 2.697 1.055 5.495-.332 2.713-2.317 2.885-2.685 3.002-.156.05-1.6.406-3.42.289 0 0-1.356 1.634-1.78 2.055-.067.074-.146.095-.196.085-.071-.018-.093-.107-.089-.229l.013-2.233c-2.655-.733-2.498-3.5-2.47-4.946.033-1.446.304-2.628 1.113-3.43 1.088-.982 3.043-1.115 3.953-1.122zm.2 1.446a.166.166 0 100 .332 3.136 3.136 0 012.242.883c.606.588.9 1.378.912 2.411 0 .092.074.167.167.167V7.51a.167.167 0 00.168-.165 3.588 3.588 0 00-1.009-2.646c-.66-.645-1.496-.977-2.48-.977zm-2.198.382a.523.523 0 00-.342.067H5.69a2.61 2.61 0 00-.637.523 1.003 1.003 0 00-.256.525.71.71 0 00.026.302l.01.006c.172.504.396.988.67 1.444a8.48 8.48 0 001.29 1.762l.015.022.024.017.015.018.017.015c.532.505 1.127.94 1.769 1.295.734.4 1.18.588 1.447.667v.004c.078.024.15.034.221.034.228-.016.444-.109.613-.262a2.53 2.53 0 00.517-.638v-.004c.128-.241.085-.469-.1-.623-.37-.323-.77-.61-1.195-.857-.285-.155-.574-.061-.69.095l-.25.315c-.129.156-.361.134-.361.134l-.007.004C7.093 8.527 6.63 6.772 6.63 6.772s-.022-.239.139-.36l.312-.252c.15-.122.254-.41.094-.695a7.498 7.498 0 00-.856-1.194.475.475 0 00-.28-.167zm2.486.495c-.221 0-.221.334.003.334A2.098 2.098 0 0110 5.572 1.94 1.94 0 0110.5 7a.168.168 0 00.167.165l.007.009a.169.169 0 00.167-.167c.015-.662-.191-1.218-.595-1.663C9.84 4.9 9.273 4.65 8.549 4.6h-.024zm.274.898c-.228-.006-.236.335-.01.341.55.029.816.306.851.877a.166.166 0 00.165.163h.007a.168.168 0 00.16-.178c-.039-.744-.445-1.164-1.166-1.202H8.8z"/></symbol><symbol viewBox="0 0 24 24" id="visibility" xmlns="http://www.w3.org/2000/svg"><path fill-rule="evenodd" clip-rule="evenodd" d="M12 4C7 4 2.73 7.11 1 11.5 2.73 15.89 7 19 12 19s9.27-3.11 11-7.5C21.27 7.11 17 4 12 4zm0 12.5c-2.76 0-5-2.24-5-5s2.24-5 5-5 5 2.24 5 5-2.24 5-5 5zm-3-5c0-1.66 1.34-3 3-3s3 1.34 3 3-1.34 3-3 3-3-1.34-3-3z"/></symbol><symbol viewBox="0 0 24 24" id="vk" xmlns="http://www.w3.org/2000/svg"><path d="M21.579 6.855c.14-.465 0-.806-.662-.806h-2.193c-.558 0-.813.295-.953.619 0 0-1.115 2.719-2.695 4.482-.51.513-.743.675-1.021.675-.139 0-.341-.162-.341-.627V6.855c0-.558-.161-.806-.626-.806H9.642c-.348 0-.558.258-.558.504 0 .528.79.65.871 2.138v3.228c0 .707-.127.836-.407.836-.743 0-2.551-2.73-3.624-5.853-.209-.607-.42-.852-.98-.852H2.752c-.627 0-.752.295-.752.619 0 .582.743 3.462 3.461 7.27 1.812 2.602 4.363 4.012 6.687 4.012 1.393 0 1.565-.313 1.565-.853v-1.966c0-.626.133-.752.574-.752.324 0 .882.164 2.183 1.417 1.486 1.486 1.732 2.153 2.567 2.153h2.192c.626 0 .939-.313.759-.931-.197-.615-.907-1.51-1.849-2.57-.512-.603-1.277-1.253-1.51-1.578-.325-.42-.231-.604 0-.976.001 0 2.672-3.761 2.95-5.04z"/></symbol><symbol viewBox="0 0 24 24" id="vk-share" xmlns="http://www.w3.org/2000/svg"><path fill-rule="evenodd" clip-rule="evenodd" d="M16.821 6.24l.01-.02c.112-.244.3-.556.627-.805.343-.26.763-.394 1.233-.394h2.182c.457 0 1.072.116 1.45.657.35.503.276 1.062.174 1.41-.11.467-.386 1.038-.663 1.553a30.758 30.758 0 01-1.031 1.746 65.03 65.03 0 01-1.193 1.822l-.065.097-.059.087c.088.096.24.25.472.479l.005.004c.274.272.62.614.905.948.467.536.902 1.051 1.247 1.52.332.45.646.943.794 1.422l.004.015.005.016c.129.47.15 1.098-.279 1.609-.408.486-1.002.594-1.448.594h-2.182c-.361 0-.695-.079-1.013-.249a3.104 3.104 0 01-.735-.578 17.21 17.21 0 01-.52-.566 23.99 23.99 0 00-1-1.075c-.472-.46-.813-.736-1.049-.9v1.493c0 .354-.052 1.018-.7 1.455-.492.333-1.166.399-1.867.399-2.706 0-5.55-1.632-7.493-4.465-1.397-1.98-2.295-3.732-2.848-5.079a14.702 14.702 0 01-.591-1.707C1.077 7.298 1 6.903 1 6.619c0-.237.031-.711.397-1.108C1.774 5.104 2.292 5 2.741 5h2.203c.423 0 .894.094 1.29.458.346.317.517.739.63 1.071.517 1.5 1.204 2.904 1.84 3.918.082.13.162.252.24.366V8.7c-.035-.52-.173-.739-.277-.883a4.014 4.014 0 00-.119-.154l-.007-.009a3.221 3.221 0 01-.17-.228 1.602 1.602 0 01-.296-.913c0-.8.652-1.512 1.55-1.512h3.432c.417 0 .935.123 1.29.596.304.402.345.882.345 1.215v3.194c.546-.711 1.03-1.532 1.404-2.242a21.754 21.754 0 00.707-1.48l.008-.018.002-.004.008-.02zm.917.4s-1.123 2.734-2.69 4.506c-.508.512-.742.683-1.017.683-.148 0-.339-.17-.339-.64V6.81c0-.555-.17-.811-.635-.811H9.625c-.339 0-.55.256-.55.512 0 .205.114.35.261.535.236.298.555.7.607 1.622v3.246c0 .704-.127.832-.402.832-.742 0-2.542-2.754-3.622-5.893C5.707 6.234 5.495 6 4.944 6H2.741C2.106 6 2 6.299 2 6.62c0 .576.741 3.48 3.453 7.323 1.8 2.626 4.363 4.036 6.672 4.036 1.398 0 1.567-.32 1.567-.854v-1.986c0-.64.127-.747.572-.747.318 0 .89.17 2.182 1.43.445.449.78.824 1.051 1.13.636.713.934 1.048 1.512 1.048h2.181c.636 0 .932-.32.763-.94-.19-.619-.91-1.515-1.843-2.583-.258-.303-.58-.623-.867-.906-.278-.275-.522-.516-.637-.674-.317-.427-.233-.598 0-.982.003-.01.068-.106.175-.265.091-.136.213-.316.355-.53l.136-.205c.804-1.219 2.072-3.22 2.257-4.082.149-.47 0-.812-.656-.812H18.69c-.55 0-.805.3-.953.62zm-7.961 5.155l.01.005-.01-.005z"/></symbol><symbol viewBox="0 0 24 24" id="vkontakte-reg" xmlns="http://www.w3.org/2000/svg"><path fill-rule="evenodd" clip-rule="evenodd" d="M20.576 6.75c.134-.423 0-.73-.59-.73h-1.964c-.496 0-.724.268-.858.557 0 0-1.01 2.46-2.421 4.054-.457.461-.667.615-.915.615-.133 0-.305-.154-.305-.576V6.73c0-.5-.152-.73-.572-.73H9.863a.475.475 0 00-.496.461c0 .48.705.596.782 1.941v2.921c0 .634-.115.75-.362.75-.668 0-2.288-2.48-3.26-5.304C6.337 6.21 6.145 6 5.65 6H3.667C3.095 6 3 6.269 3 6.557c0 .52.667 3.133 3.107 6.592 1.62 2.364 3.927 3.632 6.005 3.632 1.258 0 1.411-.288 1.411-.769v-1.787c0-.577.114-.673.515-.673.286 0 .8.154 1.963 1.288 1.335 1.345 1.563 1.96 2.307 1.96h1.963c.572 0 .84-.288.687-.846-.172-.557-.82-1.364-1.659-2.325-.457-.538-1.144-1.134-1.353-1.422-.286-.384-.21-.538 0-.884-.02 0 2.383-3.42 2.63-4.574z"/></symbol><symbol viewBox="0 0 24 24" id="warning" xmlns="http://www.w3.org/2000/svg"><path fill-rule="evenodd" clip-rule="evenodd" d="M19.53 21c1.54 0 2.503-1.669 1.73-3.002L13.73 4.99c-.77-1.33-2.692-1.331-3.462 0L2.737 17.998C1.965 19.33 2.927 21 4.467 21H19.53zm-7.531-3a1 1 0 110-2 1 1 0 010 2zm-1-5a1 1 0 002 0v-2a1 1 0 10-2 0v2z"/></symbol><symbol viewBox="0 0 24 24" id="whatsapp" xmlns="http://www.w3.org/2000/svg"><g fill-rule="evenodd" clip-rule="evenodd"><path d="M17.578 12.658l-.017-.008-.016-.008a5.343 5.343 0 01-.388-.206l-.105-.06c-.141-.08-.304-.172-.465-.258a5.823 5.823 0 00-.675-.314 2.445 2.445 0 00-.85-.174c-.391 0-.672.14-.792.2l-.014.006-.145.072-.115.114c-.14.139-.259.307-.33.41l-.068.095c-.056.08-.1.144-.15.21-.316-.066-.685-.27-1.088-.643a6.423 6.423 0 01-1.091-1.378l.023-.03c.097-.127.17-.213.23-.273l.07-.07.055-.082c.2-.297.394-.805.239-1.336a4.23 4.23 0 00-.165-.475 26.46 26.46 0 00-.735-1.662l-.028-.056-.035-.052a1.622 1.622 0 00-1.085-.708 2.073 2.073 0 00-1.021.102 3.633 3.633 0 00-1.292.813l-.045.044-.038.05a3.605 3.605 0 00-.783 2.208c0 1.093.455 2.063.986 2.85.533.791 1.202 1.482 1.743 2.02a10.107 10.107 0 004.567 2.612c.778.248 1.753.221 2.536-.167l.055-.028.052-.034c.652-.43 1.443-1.096 1.671-2.228l.02-.098v-.1l.001-.04.004-.066v-.002c.002-.052.008-.182-.016-.328a1.215 1.215 0 00-.246-.561 1.32 1.32 0 00-.454-.36zm-7.382-2.185c-.052.051-.052.154-.052.257l.156.308c.64 1.143 1.921 2.721 3.365 2.721.292 0 .545-.36.763-.674.097-.14.188-.269.272-.353.104-.05.207-.102.363-.102.412 0 .99.33 1.488.612.216.123.418.238.583.312.172.086.167.191.159.347a2.127 2.127 0 00-.004.115c-.148.735-.66 1.207-1.243 1.592-.533.264-1.249.289-1.812.103a9.105 9.105 0 01-4.141-2.362c-1.072-1.064-2.434-2.532-2.434-4.16 0-.565.208-1.13.57-1.592.398-.394 1.416-1.025 1.864-.36.155.309.776 1.695.828 1.952.052.154 0 .36-.103.514-.15.147-.29.333-.425.514a9.616 9.616 0 01-.197.256z"/><path d="M4.346 16.122L3 21l5.022-1.284c1.398.77 2.95 1.13 4.504 1.13 5.229 0 9.474-4.262 9.474-9.449a9.281 9.281 0 00-2.744-6.624C17.496 2.976 15.063 2 12.578 2c-5.281 0-9.526 4.262-9.474 9.449 0 1.643.465 3.235 1.242 4.673zm14.196-10.65l.005.006.005.005A8.281 8.281 0 0121 11.397c0 4.634-3.797 8.449-8.474 8.449-1.4 0-2.784-.324-4.022-1.006l-.346-.19-3.735.954L5.417 16l-.191-.354c-.71-1.315-1.122-2.745-1.122-4.197v-.01C4.056 6.819 7.843 3 12.577 3c2.227 0 4.4.875 5.964 2.473z"/></g></symbol><symbol viewBox="0 0 24 24" id="whatsapp-filled" xmlns="http://www.w3.org/2000/svg"><path d="M12.578 2c2.485 0 4.918.976 6.678 2.773A9.281 9.281 0 0122 11.397c0 5.187-4.245 9.449-9.474 9.449-1.553 0-3.106-.36-4.504-1.13L3 21l1.346-4.878c-.777-1.438-1.242-3.03-1.242-4.673C3.052 6.262 7.297 2 12.578 2z"/><path d="M17.134 13.554l-.57-.257s-.828-.36-1.345-.616c-.052 0-.104-.051-.156-.051-.155 0-.258.051-.362.102 0 0-.052.052-.777.873a.285.285 0 01-.258.154h-.052a.393.393 0 01-.207-.102l-.26-.103c-.569-.257-1.086-.565-1.5-.976-.104-.102-.26-.205-.363-.308-.362-.36-.725-.77-.984-1.232l-.051-.103c-.052-.051-.052-.103-.104-.205 0-.103 0-.206.052-.257 0 0 .207-.257.362-.411.104-.103.156-.257.26-.36.103-.153.154-.359.103-.513-.052-.257-.673-1.643-.829-1.951-.103-.154-.207-.206-.362-.257h-.569c-.104 0-.208.051-.311.051l-.052.052c-.103.051-.207.154-.31.205-.104.103-.156.205-.26.308A2.605 2.605 0 007.66 9.19c0 .41.104.822.259 1.181l.052.154a8.558 8.558 0 001.915 2.62l.207.204c.156.155.311.257.415.411a9.276 9.276 0 003.727 1.952c.155.051.363.051.518.102h.518c.258 0 .569-.102.776-.205.155-.103.259-.103.363-.205l.103-.103c.104-.103.207-.154.31-.257.104-.103.208-.205.26-.308.103-.205.155-.462.207-.719v-.36s-.052-.05-.156-.102z"/></symbol><symbol viewBox="0 0 24 24" id="whatsapp-qestions" xmlns="http://www.w3.org/2000/svg"><path d="M19.256 4.773C17.496 2.976 15.063 2 12.578 2c-5.281 0-9.526 4.262-9.474 9.449 0 1.643.465 3.235 1.242 4.673L3 21l5.022-1.284c1.398.77 2.95 1.13 4.504 1.13 5.229 0 9.474-4.262 9.474-9.449a9.281 9.281 0 00-2.744-6.624zm-6.678 14.481c-1.398 0-2.796-.36-3.987-1.078l-.31-.154-3.003.77.777-2.927-.208-.308C3.57 11.91 4.657 7.084 8.384 4.824c3.728-2.26 8.542-1.18 10.82 2.517 2.278 3.697 1.191 8.473-2.536 10.732-1.191.77-2.64 1.181-4.09 1.181zm4.556-5.7l-.57-.257s-.828-.36-1.346-.616c-.052 0-.104-.051-.155-.051a.755.755 0 00-.363.102s-.051.052-.776.873a.285.285 0 01-.26.154h-.05a.394.394 0 01-.208-.102l-.259-.103c-.57-.257-1.087-.565-1.501-.976-.104-.102-.26-.205-.363-.308-.362-.36-.724-.77-.983-1.232l-.052-.103c-.052-.051-.052-.103-.104-.205 0-.103 0-.206.052-.257 0 0 .207-.257.363-.41.103-.104.155-.258.258-.36.104-.154.156-.36.104-.514-.052-.257-.673-1.643-.828-1.951-.104-.154-.207-.206-.363-.257h-.569c-.104 0-.207.051-.31.051l-.053.052c-.103.051-.207.154-.31.205-.104.103-.156.206-.26.308A2.606 2.606 0 007.66 9.19c0 .411.104.822.26 1.181l.051.154a8.557 8.557 0 001.916 2.62l.207.205c.155.154.31.256.414.41a9.276 9.276 0 003.727 1.952c.156.051.363.051.518.102h.518c.259 0 .57-.102.776-.205.156-.103.26-.103.363-.205l.103-.103c.104-.103.207-.154.31-.257.104-.102.208-.205.26-.308.103-.205.155-.462.207-.719v-.36s-.052-.05-.155-.102z"/></symbol><symbol viewBox="0 0 56 56" id="youtube-play" xmlns="http://www.w3.org/2000/svg"><path fill-rule="evenodd" clip-rule="evenodd" d="M28 56c15.464 0 28-12.536 28-28S43.464 0 28 0 0 12.536 0 28s12.536 28 28 28zm-6.811-19.173V20.694a1.563 1.563 0 012.263-1.397l16.133 8.094c1.15.578 1.148 2.221-.004 2.795l-16.133 8.04a1.563 1.563 0 01-2.26-1.4z"/></symbol><symbol fill-rule="evenodd" clip-rule="evenodd" viewBox="0 0 24 24" id="zoom" xmlns="http://www.w3.org/2000/svg"><path d="M15.853 16.56A9.458 9.458 0 019.5 19C4.257 19 0 14.743 0 9.5S4.257 0 9.5 0 19 4.257 19 9.5c0 2.442-.923 4.67-2.44 6.353l7.44 7.44-.707.707-7.44-7.44zM9.5 1C14.191 1 18 4.809 18 9.5S14.191 18 9.5 18 1 14.191 1 9.5 4.809 1 9.5 1zM5 9h4V5h1v4h4v1h-4v4H9v-4H5V9z"/></symbol></svg>