<svg width="18" height="22" viewBox="0 0 18 22" fill="none" xmlns="http://www.w3.org/2000/svg">
<path d="M0.811484 12.452H3.84948V14.002H0.811484V15.304H3.84948V19.055C3.84948 19.83 3.57048 20.357 2.98148 20.605C2.79548 20.698 2.45448 20.791 1.98948 20.822L0.935485 20.915V22H10.2665V20.915L8.96448 20.791C8.49949 20.729 8.18948 20.698 8.00349 20.605C7.25948 20.326 7.10448 19.768 7.10448 19.055V15.304H16.6835V14.002H7.10448V12.452H9.55348C11.6305 12.452 13.4905 11.956 15.0095 10.84C16.5905 9.693 17.5205 7.926 17.5205 5.663C17.5205 4.051 16.9005 2.749 15.6295 1.757C14.3895 0.796 12.7465 0.299999 10.7625 0.299999H0.811484V1.385C1.36948 1.447 2.17548 1.509 2.98148 1.788C3.72548 2.036 3.84948 2.687 3.84948 3.4V11.15H0.811484V12.452ZM12.8705 9.352C12.1575 10.406 10.8865 11.15 8.65449 11.15H7.10448V1.571H9.27448C11.0105 1.571 12.0955 2.098 12.8085 3.059C13.4905 3.989 13.7385 5.26 13.7385 6.438C13.7385 7.275 13.5215 8.391 12.8705 9.352Z" fill="#D67644"/>
</svg>
