<svg width="24" height="24" viewBox="0 0 24 24" fill="none" xmlns="http://www.w3.org/2000/svg">
<path d="M8 5.5C6.61929 5.5 5.5 6.61929 5.5 8V10H4.5V8C4.5 6.067 6.067 4.5 8 4.5H16C17.933 4.5 19.5 6.067 19.5 8V16C19.5 17.933 17.933 19.5 16 19.5H8C6.067 19.5 4.5 17.933 4.5 16V14H5.5V16C5.5 17.3807 6.61929 18.5 8 18.5H16C17.3807 18.5 18.5 17.3807 18.5 16V8C18.5 6.61929 17.3807 5.5 16 5.5H8Z" fill="#653E28"/>
<path d="M13.7929 12.5H5V11.5H13.7929L11.6464 9.35355L12.3536 8.64645L15.7071 12L12.3536 15.3536L11.6464 14.6464L13.7929 12.5Z" fill="#653E28"/>
</svg>
