<svg width="24" height="24" viewBox="0 0 24 24" fill="none" xmlns="http://www.w3.org/2000/svg">
<path fill-rule="evenodd" clip-rule="evenodd" d="M15.8797 14.8855H13.5629V21.8636C13.9023 21.8098 14.2359 21.7391 14.5629 21.6522C18.8403 20.5163 21.9897 16.6261 21.9897 11.9949C21.9897 6.47975 17.51 2 11.9949 2C6.47975 2 2 6.47975 2 11.9949C2 16.6326 5.1583 20.5272 9.4367 21.657C9.76379 21.7434 10.0974 21.8136 10.4367 21.8667V14.8855H7.89404V14.8754H7.88416V11.9846H10.4367V9.78063C10.4367 7.27934 11.9231 5.88519 14.1989 5.88519C15.2957 5.88519 16.4234 6.10046 16.4234 6.10046V6.1087L16.4333 6.11054V8.55031H15.1826C13.9422 8.55031 13.5424 9.3294 13.5424 10.1187V11.9846H16.3106L16.3091 11.9947H16.3205L15.8797 14.8855ZM17.4731 10.9947H17.4845L16.7388 15.8855H14.5629V20.6134C18.2818 19.5063 20.9897 16.0679 20.9897 11.9949C20.9897 7.03204 16.9577 3 11.9949 3C7.03204 3 3 7.03204 3 11.9949C3 16.0747 5.71687 19.5172 9.4367 20.6187V15.8855H6.89404V15.8754H6.88416V10.9846H9.4367V9.78063C9.4367 8.33125 9.87127 7.08074 10.7545 6.19058C11.6377 5.30055 12.8559 4.88519 14.1989 4.88519C14.8061 4.88519 15.4085 4.94429 15.8498 5.00097C16.0728 5.02961 16.2597 5.0583 16.3921 5.08005C16.4584 5.09094 16.5113 5.10014 16.5485 5.10677L16.5923 5.11471L16.6048 5.11705L16.61 5.11803C16.61 5.11803 16.6107 5.11817 16.6092 5.12612L16.61 5.11803L17.4234 5.27331V5.28007L17.4333 5.28194V9.55031H15.1826C14.7833 9.55031 14.6764 9.66659 14.6522 9.69446C14.6053 9.74846 14.5424 9.87612 14.5424 10.1187V10.9846H17.4746L17.4731 10.9947ZM16.4234 6.10046C16.4389 6.0191 16.4531 5.94449 16.4662 5.87605L16.4234 6.10046Z" fill="#653E28"/>
</svg>
