<svg width="62" height="16" viewBox="0 0 62 16" fill="none" xmlns="http://www.w3.org/2000/svg">
<path d="M12.0719 11.297C12.0719 12.1064 11.8628 12.7876 11.4446 13.3407C11.0265 13.8803 10.4599 14.2918 9.74489 14.5751C9.0434 14.8584 8.27447 15 7.43808 15H0.497405V0.633009H8.18678C8.86129 0.633009 9.44136 0.815126 9.92701 1.17936C10.4127 1.5301 10.7904 1.98877 11.0602 2.55535C11.33 3.12194 11.4649 3.70201 11.4649 4.29558C11.4649 4.99707 11.2895 5.65808 10.9388 6.27863C10.588 6.88569 10.0754 7.33761 9.40089 7.63439C10.2238 7.87721 10.8713 8.31564 11.3435 8.94968C11.8291 9.58371 12.0719 10.3661 12.0719 11.297ZM3.28986 3.02076V6.64286H7.01314C7.4718 6.64286 7.86976 6.48098 8.20701 6.15722C8.54427 5.83346 8.71289 5.38828 8.71289 4.8217C8.71289 4.28209 8.55776 3.85041 8.24749 3.52664C7.9507 3.18939 7.57972 3.02076 7.13455 3.02076H3.28986ZM9.25925 10.7708C9.25925 10.2447 9.09736 9.79281 8.7736 9.41509C8.44984 9.03736 8.05188 8.8485 7.57972 8.8485H3.28986V12.6325H7.43808C7.9507 12.6325 8.38239 12.4504 8.73313 12.0861C9.08387 11.7219 9.25925 11.2835 9.25925 10.7708ZM13.9677 0.228306H16.6792V11.6005C16.6792 12.0996 16.7602 12.4301 16.9221 12.592C17.0839 12.7539 17.3065 12.8348 17.5898 12.8348C17.8057 12.8348 18.0283 12.8079 18.2576 12.7539C18.4869 12.6999 18.6893 12.6325 18.8646 12.5515L19.2289 14.6155C18.8646 14.7909 18.4397 14.9258 17.9541 15.0202C17.4684 15.1147 17.03 15.1619 16.6388 15.1619C15.7889 15.1619 15.1279 14.9393 14.6557 14.4941C14.1971 14.0355 13.9677 13.3879 13.9677 12.5515V0.228306ZM25.3072 15.2024C24.147 15.2024 23.1488 14.9528 22.3124 14.4536C21.4895 13.941 20.8554 13.2665 20.4103 12.4301C19.9651 11.5937 19.7425 10.6899 19.7425 9.71861C19.7425 8.73383 19.9651 7.82325 20.4103 6.98686C20.8689 6.15047 21.5097 5.48271 22.3326 4.98358C23.169 4.47095 24.1605 4.21464 25.3072 4.21464C26.4538 4.21464 27.4386 4.47095 28.2615 4.98358C29.0979 5.48271 29.7387 6.15047 30.1839 6.98686C30.629 7.82325 30.8516 8.73383 30.8516 9.71861C30.8516 10.6899 30.629 11.5937 30.1839 12.4301C29.7387 13.2665 29.0979 13.941 28.2615 14.4536C27.4386 14.9528 26.4538 15.2024 25.3072 15.2024ZM22.535 9.71861C22.535 10.3392 22.6564 10.8923 22.8992 11.3779C23.142 11.8501 23.4725 12.221 23.8907 12.4908C24.3089 12.7606 24.7811 12.8955 25.3072 12.8955C25.8198 12.8955 26.2852 12.7606 26.7034 12.4908C27.1216 12.2075 27.4521 11.8298 27.6949 11.3577C27.9512 10.872 28.0794 10.3189 28.0794 9.69838C28.0794 9.09132 27.9512 8.55172 27.6949 8.07956C27.4521 7.59392 27.1216 7.21619 26.7034 6.94639C26.2852 6.6631 25.8198 6.52145 25.3072 6.52145C24.7811 6.52145 24.3089 6.6631 23.8907 6.94639C23.4725 7.21619 23.142 7.59392 22.8992 8.07956C22.6564 8.55172 22.535 9.09807 22.535 9.71861ZM37.5787 15.2024C36.4186 15.2024 35.4203 14.9528 34.5839 14.4536C33.761 13.941 33.127 13.2665 32.6818 12.4301C32.2366 11.5937 32.014 10.6899 32.014 9.71861C32.014 8.73383 32.2366 7.82325 32.6818 6.98686C33.1405 6.15047 33.7812 5.48271 34.6041 4.98358C35.4405 4.47095 36.4321 4.21464 37.5787 4.21464C38.7254 4.21464 39.7102 4.47095 40.5331 4.98358C41.3694 5.48271 42.0102 6.15047 42.4554 6.98686C42.9006 7.82325 43.1232 8.73383 43.1232 9.71861C43.1232 10.6899 42.9006 11.5937 42.4554 12.4301C42.0102 13.2665 41.3694 13.941 40.5331 14.4536C39.7102 14.9528 38.7254 15.2024 37.5787 15.2024ZM34.8065 9.71861C34.8065 10.3392 34.9279 10.8923 35.1707 11.3779C35.4136 11.8501 35.7441 12.221 36.1623 12.4908C36.5805 12.7606 37.0526 12.8955 37.5787 12.8955C38.0913 12.8955 38.5568 12.7606 38.9749 12.4908C39.3931 12.2075 39.7237 11.8298 39.9665 11.3577C40.2228 10.872 40.3509 10.3189 40.3509 9.69838C40.3509 9.09132 40.2228 8.55172 39.9665 8.07956C39.7237 7.59392 39.3931 7.21619 38.9749 6.94639C38.5568 6.6631 38.0913 6.52145 37.5787 6.52145C37.0526 6.52145 36.5805 6.6631 36.1623 6.94639C35.7441 7.21619 35.4136 7.59392 35.1707 8.07956C34.9279 8.55172 34.8065 9.09807 34.8065 9.71861ZM61.4248 15H58.7133V9.05085C58.7133 8.21446 58.5649 7.60066 58.2681 7.20945C57.9848 6.80474 57.5868 6.60239 57.0742 6.60239C56.5346 6.60239 56.0287 6.81149 55.5566 7.22968C55.0844 7.63439 54.7472 8.16725 54.5448 8.82826V15H51.8333V9.05085C51.8333 8.20097 51.6849 7.58043 51.3881 7.18921C51.1048 6.798 50.7069 6.60239 50.1943 6.60239C49.6681 6.60239 49.1623 6.80474 48.6766 7.20945C48.2045 7.61415 47.8672 8.14701 47.6649 8.80803V15H44.9533V4.39676H47.4018V6.35957C47.793 5.67157 48.3259 5.14546 49.0004 4.78123C49.6884 4.4035 50.4708 4.21464 51.3477 4.21464C52.2245 4.21464 52.9058 4.43048 53.3914 4.86217C53.8906 5.29385 54.2076 5.82671 54.3425 6.46075C54.7607 5.73228 55.307 5.17918 55.9815 4.80146C56.656 4.41025 57.4115 4.21464 58.2479 4.21464C58.9089 4.21464 59.4417 4.33605 59.8464 4.57887C60.2646 4.80821 60.5884 5.12522 60.8177 5.52993C61.0471 5.92114 61.2022 6.36632 61.2831 6.86545C61.3776 7.36459 61.4248 7.87047 61.4248 8.38309V15Z" fill="#653E28"/>
</svg>
