<svg width="64" height="27" viewBox="0 0 64 27" fill="none" xmlns="http://www.w3.org/2000/svg">
<path d="M13.0719 17.297C13.0719 18.1064 12.8628 18.7876 12.4446 19.3407C12.0265 19.8803 11.4599 20.2918 10.7449 20.5751C10.0434 20.8584 9.27447 21 8.43808 21H1.4974V6.63301H9.18678C9.86129 6.63301 10.4414 6.81513 10.927 7.17936C11.4127 7.5301 11.7904 7.98877 12.0602 8.55535C12.33 9.12194 12.4649 9.70201 12.4649 10.2956C12.4649 10.9971 12.2895 11.6581 11.9388 12.2786C11.588 12.8857 11.0754 13.3376 10.4009 13.6344C11.2238 13.8772 11.8713 14.3156 12.3435 14.9497C12.8291 15.5837 13.0719 16.3661 13.0719 17.297ZM4.28986 9.02076V12.6429H8.01314C8.4718 12.6429 8.86976 12.481 9.20701 12.1572C9.54427 11.8335 9.71289 11.3883 9.71289 10.8217C9.71289 10.2821 9.55776 9.85041 9.24749 9.52664C8.9507 9.18939 8.57972 9.02076 8.13455 9.02076H4.28986ZM10.2592 16.7708C10.2592 16.2447 10.0974 15.7928 9.7736 15.4151C9.44984 15.0374 9.05188 14.8485 8.57972 14.8485H4.28986V18.6325H8.43808C8.9507 18.6325 9.38239 18.4504 9.73313 18.0861C10.0839 17.7219 10.2592 17.2835 10.2592 16.7708ZM14.9677 6.22831H17.6792V17.6005C17.6792 18.0996 17.7602 18.4301 17.9221 18.592C18.0839 18.7539 18.3065 18.8348 18.5898 18.8348C18.8057 18.8348 19.0283 18.8079 19.2576 18.7539C19.4869 18.6999 19.6893 18.6325 19.8646 18.5515L20.2289 20.6155C19.8646 20.7909 19.4397 20.9258 18.9541 21.0202C18.4684 21.1147 18.03 21.1619 17.6388 21.1619C16.7889 21.1619 16.1279 20.9393 15.6557 20.4941C15.1971 20.0355 14.9677 19.3879 14.9677 18.5515V6.22831ZM26.3072 21.2024C25.147 21.2024 24.1488 20.9528 23.3124 20.4536C22.4895 19.941 21.8554 19.2665 21.4103 18.4301C20.9651 17.5937 20.7425 16.6899 20.7425 15.7186C20.7425 14.7338 20.9651 13.8232 21.4103 12.9869C21.8689 12.1505 22.5097 11.4827 23.3326 10.9836C24.169 10.471 25.1605 10.2146 26.3072 10.2146C27.4538 10.2146 28.4386 10.471 29.2615 10.9836C30.0979 11.4827 30.7387 12.1505 31.1839 12.9869C31.629 13.8232 31.8516 14.7338 31.8516 15.7186C31.8516 16.6899 31.629 17.5937 31.1839 18.4301C30.7387 19.2665 30.0979 19.941 29.2615 20.4536C28.4386 20.9528 27.4538 21.2024 26.3072 21.2024ZM23.535 15.7186C23.535 16.3392 23.6564 16.8923 23.8992 17.3779C24.142 17.8501 24.4725 18.221 24.8907 18.4908C25.3089 18.7606 25.7811 18.8955 26.3072 18.8955C26.8198 18.8955 27.2852 18.7606 27.7034 18.4908C28.1216 18.2075 28.4521 17.8298 28.6949 17.3577C28.9512 16.872 29.0794 16.3189 29.0794 15.6984C29.0794 15.0913 28.9512 14.5517 28.6949 14.0796C28.4521 13.5939 28.1216 13.2162 27.7034 12.9464C27.2852 12.6631 26.8198 12.5215 26.3072 12.5215C25.7811 12.5215 25.3089 12.6631 24.8907 12.9464C24.4725 13.2162 24.142 13.5939 23.8992 14.0796C23.6564 14.5517 23.535 15.0981 23.535 15.7186ZM38.5787 21.2024C37.4186 21.2024 36.4203 20.9528 35.5839 20.4536C34.761 19.941 34.127 19.2665 33.6818 18.4301C33.2366 17.5937 33.014 16.6899 33.014 15.7186C33.014 14.7338 33.2366 13.8232 33.6818 12.9869C34.1405 12.1505 34.7812 11.4827 35.6041 10.9836C36.4405 10.471 37.4321 10.2146 38.5787 10.2146C39.7254 10.2146 40.7102 10.471 41.5331 10.9836C42.3694 11.4827 43.0102 12.1505 43.4554 12.9869C43.9006 13.8232 44.1232 14.7338 44.1232 15.7186C44.1232 16.6899 43.9006 17.5937 43.4554 18.4301C43.0102 19.2665 42.3694 19.941 41.5331 20.4536C40.7102 20.9528 39.7254 21.2024 38.5787 21.2024ZM35.8065 15.7186C35.8065 16.3392 35.9279 16.8923 36.1707 17.3779C36.4136 17.8501 36.7441 18.221 37.1623 18.4908C37.5805 18.7606 38.0526 18.8955 38.5787 18.8955C39.0913 18.8955 39.5568 18.7606 39.9749 18.4908C40.3931 18.2075 40.7237 17.8298 40.9665 17.3577C41.2228 16.872 41.3509 16.3189 41.3509 15.6984C41.3509 15.0913 41.2228 14.5517 40.9665 14.0796C40.7237 13.5939 40.3931 13.2162 39.9749 12.9464C39.5568 12.6631 39.0913 12.5215 38.5787 12.5215C38.0526 12.5215 37.5805 12.6631 37.1623 12.9464C36.7441 13.2162 36.4136 13.5939 36.1707 14.0796C35.9279 14.5517 35.8065 15.0981 35.8065 15.7186ZM62.4248 21H59.7133V15.0509C59.7133 14.2145 59.5649 13.6007 59.2681 13.2094C58.9848 12.8047 58.5868 12.6024 58.0742 12.6024C57.5346 12.6024 57.0287 12.8115 56.5566 13.2297C56.0844 13.6344 55.7472 14.1672 55.5448 14.8283V21H52.8333V15.0509C52.8333 14.201 52.6849 13.5804 52.3881 13.1892C52.1048 12.798 51.7069 12.6024 51.1943 12.6024C50.6681 12.6024 50.1623 12.8047 49.6766 13.2094C49.2045 13.6142 48.8672 14.147 48.6649 14.808V21H45.9533V10.3968H48.4018V12.3596C48.793 11.6716 49.3259 11.1455 50.0004 10.7812C50.6884 10.4035 51.4708 10.2146 52.3477 10.2146C53.2245 10.2146 53.9058 10.4305 54.3914 10.8622C54.8906 11.2939 55.2076 11.8267 55.3425 12.4607C55.7607 11.7323 56.307 11.1792 56.9815 10.8015C57.656 10.4102 58.4115 10.2146 59.2479 10.2146C59.9089 10.2146 60.4417 10.3361 60.8464 10.5789C61.2646 10.8082 61.5884 11.1252 61.8177 11.5299C62.0471 11.9211 62.2022 12.3663 62.2831 12.8655C62.3776 13.3646 62.4248 13.8705 62.4248 14.3831V21Z" fill="#653E28"/>
</svg>
