<svg width="24" height="24" viewBox="0 0 24 24" fill="none" xmlns="http://www.w3.org/2000/svg">
<path fill-rule="evenodd" clip-rule="evenodd" d="M13 3C13 2.44772 12.5523 2 12 2C11.4477 2 11 2.44772 11 3V5.08296C8.16229 5.55904 6 8.027 6 11V14.6972L4.16795 17.4453C3.96338 17.7522 3.94431 18.1467 4.11833 18.4719C4.29235 18.797 4.63121 19 5 19H19C19.3688 19 19.7077 18.797 19.8817 18.4719C20.0557 18.1467 20.0366 17.7522 19.8321 17.4453L18 14.6972V11C18 8.027 15.8377 5.55904 13 5.08296V3ZM8 11C8 8.79086 9.79086 7 12 7C14.2091 7 16 8.79086 16 11V15C16 15.1974 16.0584 15.3904 16.168 15.5547L17.1315 17H6.86852L7.83205 15.5547C7.94156 15.3904 8 15.1974 8 15V11Z" fill="#653E28"/>
<path d="M14 20C14 21.1045 13.1045 22 12 22C10.8954 22 10 21.1046 10 20H14Z" fill="#653E28"/>
</svg>
