<svg width="24" height="24" viewBox="0 0 24 24" fill="none" xmlns="http://www.w3.org/2000/svg">
<path d="M12.9455 18C16.4062 15.6319 18.1013 12.9965 17.9953 10.0937C17.9953 8.14583 16.6534 7 15.0643 7C13.3693 7 12.1686 8.41319 12.1686 9.82639C12.1686 11.7743 13.4752 12.6146 15.029 12.6146C16.1237 12.6146 16.83 11.6979 17.2184 11.5069C17.2184 12.4618 16.7594 13.5313 15.8765 14.6771C14.9584 15.8229 13.899 16.8542 12.663 17.7326L12.9455 18ZM5.74158 18C9.20229 15.6319 10.8973 12.9965 10.7914 10.0937C10.7914 8.14583 9.52011 7 7.86038 7C6.16534 7 5 8.41319 5 9.82639C5 11.7743 6.3066 12.6146 7.82507 12.6146C8.81384 12.6146 9.76731 11.7743 10.0145 11.5069C10.0145 12.4618 9.55543 13.4931 8.67259 14.6389C7.75444 15.8229 6.69504 16.8542 5.49439 17.7326L5.74158 18Z" fill="#653E28"/>
</svg>
