<svg width="16" height="16" viewBox="0 0 16 16" fill="none" xmlns="http://www.w3.org/2000/svg">
<path fill-rule="evenodd" clip-rule="evenodd" d="M7.99203 1.33331C4.31203 1.33331 1.33203 4.31998 1.33203 7.99998C1.33203 11.68 4.31203 14.6666 7.99203 14.6666C11.6787 14.6666 14.6654 11.68 14.6654 7.99998C14.6654 4.31998 11.6787 1.33331 7.99203 1.33331ZM7.9987 13.3333C5.05203 13.3333 2.66536 10.9466 2.66536 7.99998C2.66536 5.05331 5.05203 2.66665 7.9987 2.66665C10.9454 2.66665 13.332 5.05331 13.332 7.99998C13.332 10.9466 10.9454 13.3333 7.9987 13.3333ZM7.33203 4.66665H8.33203V8.16665L11.332 9.94665L10.832 10.7666L7.33203 8.66665V4.66665Z" fill="#D67644"/>
</svg>
