<svg width="96" height="96" viewBox="0 0 96 96" fill="none" xmlns="http://www.w3.org/2000/svg">
<path d="M36.5407 25.9735C35.3718 18.65 30.9263 13.2002 25.6207 13.2002C19.4239 13.2002 14.4004 20.6346 14.4004 29.8055C14.4004 38.9763 19.4239 46.4107 25.6207 46.4107C30.9263 46.4107 35.3718 40.9609 36.5407 33.6374" stroke="#653E28" stroke-width="1.5" stroke-linecap="round" stroke-linejoin="round"/>
<path d="M24.0869 29.3447H37.4634V29.3447C40.4015 29.3447 43.0499 31.4591 42.9358 34.395C42.9018 35.2709 42.7873 36.0996 42.5372 36.7248C41.6147 39.0311 32.8508 51.0238 33.3121 56.5589C33.6615 60.7517 36.8484 61.7865 37.9246 62.094" stroke="#653E28" stroke-width="1.5" stroke-linecap="round" stroke-linejoin="round"/>
<path d="M58.6302 25.9735C59.7991 18.65 64.2446 13.2002 69.5502 13.2002C75.747 13.2002 80.7705 20.6346 80.7705 29.8055C80.7705 38.9763 75.747 46.4107 69.5502 46.4107C64.2446 46.4107 59.7991 40.9609 58.6302 33.6374" stroke="#653E28" stroke-width="1.5" stroke-linecap="round" stroke-linejoin="round"/>
<path d="M71.084 29.3447H57.7075V29.3447C54.7694 29.3447 52.121 31.4591 52.2351 34.395C52.2691 35.2709 52.3836 36.0996 52.6337 36.7248C53.5562 39.0311 62.3201 51.0238 61.8588 56.5589C61.5094 60.7517 58.3225 61.7865 57.2463 62.094" stroke="#653E28" stroke-width="1.5" stroke-linecap="round" stroke-linejoin="round"/>
<path d="M57.0087 61.1705C57.0087 63.8004 55.9313 67.1176 54.1622 69.7754C52.3779 72.456 50.038 74.2582 47.611 74.2582C45.1841 74.2582 42.8442 72.456 41.0599 69.7754C39.2908 67.1176 38.2134 63.8004 38.2134 61.1705C38.2134 56.0717 42.3231 52.6953 47.611 52.6953C52.8989 52.6953 57.0087 56.0717 57.0087 61.1705Z" stroke="#653E28" stroke-width="1.5"/>
<path d="M45.3037 74.0859V81.9273" stroke="#653E28" stroke-width="1.5" stroke-linecap="round" stroke-linejoin="round"/>
<path d="M49.4556 74.5493V81.9294" stroke="#653E28" stroke-width="1.5" stroke-linecap="round" stroke-linejoin="round"/>
</svg>
