<svg width="96" height="96" viewBox="0 0 96 96" fill="none" xmlns="http://www.w3.org/2000/svg">
<ellipse cx="31.6091" cy="64.3244" rx="14.8088" ry="14.8088" stroke="#653E28" stroke-width="1.5" stroke-linecap="round" stroke-linejoin="round"/>
<ellipse cx="31.8002" cy="64.1996" rx="6.6" ry="6.6" stroke="#653E28" stroke-width="1.5" stroke-linecap="round" stroke-linejoin="round"/>
<path d="M41.3798 36.5499C41.7703 36.1594 42.4035 36.1594 42.794 36.5499L47.4834 41.2392L55.7173 49.4731L60.511 54.2668C60.9015 54.6574 60.9015 55.2905 60.511 55.681L56.6144 59.5776C56.2239 59.9681 55.5907 59.9681 55.2002 59.5776L50.3683 54.7456L42.1343 46.5117L37.4833 41.8606C37.0927 41.4701 37.0927 40.837 37.4833 40.4464L41.3798 36.5499Z" stroke="#653E28" stroke-width="1.5" stroke-linecap="round" stroke-linejoin="round"/>
<path d="M70.1269 65.2965C70.5174 64.9059 71.1506 64.9059 71.5411 65.2965L71.7348 65.4901L73.1092 66.8645L73.3203 67.0756C73.7108 67.4662 73.7108 68.0993 73.3203 68.4898L69.4237 72.3864C69.0332 72.7769 68.4 72.7769 68.0095 72.3864L67.792 72.1689L66.4176 70.7945L66.2303 70.6072C65.8398 70.2167 65.8398 69.5835 66.2303 69.193L70.1269 65.2965Z" stroke="#653E28" stroke-width="1.5" stroke-linecap="round" stroke-linejoin="round"/>
<path d="M28.7099 23.8795C29.1004 23.4889 29.7336 23.4889 30.1241 23.8795L30.3255 24.0809L31.7118 25.4672L31.9308 25.6862C32.3213 26.0767 32.3213 26.7098 31.9308 27.1004L28.0342 30.9969C27.6437 31.3874 27.0105 31.3874 26.62 30.9969L26.3946 30.7715L25.0083 29.3852L24.8133 29.1902C24.4228 28.7997 24.4228 28.1665 24.8133 27.776L28.7099 23.8795Z" stroke="#653E28" stroke-width="1.5" stroke-linecap="round" stroke-linejoin="round"/>
<rect x="20.9189" y="38.0425" width="25.5359" height="13.519" rx="2" transform="rotate(-45 20.9189 38.0425)" stroke="#653E28" stroke-width="1.5" stroke-linecap="round" stroke-linejoin="round"/>
<rect width="25.5359" height="13.519" rx="2" transform="matrix(0.707107 -0.707107 -0.707107 -0.707107 59.1567 76.2803)" stroke="#653E28" stroke-width="1.5" stroke-linecap="round" stroke-linejoin="round"/>
</svg>
