<svg width="96" height="96" viewBox="0 0 96 96" fill="none" xmlns="http://www.w3.org/2000/svg">
<path d="M44.5755 65.1672C43.4464 67.994 42.2517 71.5021 41.5189 76.6312M44.5755 65.1672C38.0345 61.2114 29.8665 54.0384 30.1786 45.8568C30.2861 43.0411 30.5451 35.0261 30.1788 33.0342C28.6962 24.9743 27.6002 22.7761 27.6001 17.6707C34.3664 14.4402 43.1536 13.5206 50.4309 15.2799C52.3648 15.7475 56.6087 18.1666 58.4888 19.3177C57.8084 21.3365 56.4091 24.7288 56.0653 25.8339C54.6398 30.4155 58.4236 32.8884 59.617 36.7437C61.6762 38.6386 66.0526 42.7259 67.084 43.916C68.3732 45.4036 74.2508 51.6422 69.3624 63.8085C66.3305 71.3542 60.5697 78.8297 58.4888 82.4929M44.5755 65.1672C49.0444 56.5646 52.3908 48.5283 58.0052 40.5961C58.6068 39.746 58.2559 39.1085 58.0052 38.896C52.7443 45.9767 47.3602 54.0853 37.1622 52.3634C32.7572 51.6196 30.5547 49.2288 30.1786 48.7507C30.304 50.132 30.4795 53.2984 30.1786 54.9135C29.8026 56.9324 29.8026 69.0456 32.1125 75.9523" stroke="#653E28" stroke-width="1.5" stroke-linecap="round" stroke-linejoin="round"/>
<path d="M38.8346 35.9653C38.7059 36.2599 38.487 36.9793 38.6415 37.5003C38.8346 38.1514 39.0277 38.291 39.1242 38.0584C39.2208 37.8258 39.4138 37.2212 39.269 36.8026C39.1532 36.4677 39.1242 36.2599 39.1242 36.1979" stroke="#653E28" stroke-width="1.5" stroke-linecap="round" stroke-linejoin="round"/>
</svg>
