<?xml version="1.0" encoding="utf-8"?>
<!-- Generator: Adobe Illustrator 22.0.1, SVG Export Plug-In . SVG Version: 6.00 Build 0)  -->
<svg version="1.1" id="Слой_1" xmlns="http://www.w3.org/2000/svg" xmlns:xlink="http://www.w3.org/1999/xlink" x="0px" y="0px"
	 viewBox="0 0 395.4 485.1" style="enable-background:new 0 0 395.4 485.1;" xml:space="preserve">
<path d="M390.7,403.4l-57.9-81.1c-8.8-12.3-27.1-14.5-40.7-4.8L250.6,347c-57.6-30.6-122-121-132.3-185.4l41.5-29.6
	c13.6-9.7,17.5-27.7,8.7-40.1l-57.9-81.1C101.8-1.5,83.4-3.6,69.9,6.1L26.5,37C-45,88.1,46.2,265.3,87.7,323.4
	c41.5,58.1,179.4,202,251,150.9l43.3-30.9C395.6,433.7,399.5,415.7,390.7,403.4L390.7,403.4z"/>
</svg>
