<svg width="24" height="24" viewBox="0 0 24 24" fill="none" xmlns="http://www.w3.org/2000/svg">
<path fill-rule="evenodd" clip-rule="evenodd" d="M20.6436 9.30059C21.385 8.78869 22.0174 8.17439 22.5431 7.48235L23.8816 5.72048L21.7832 6.53434C21.8998 6.33209 21.999 6.11941 22.0786 5.8976L22.6251 4.37451L21.1661 5.14366C20.5286 5.47969 19.8293 5.73056 19.0824 5.88952C18.2376 5.207 17.121 4.80066 15.9226 4.80066C13.3731 4.80066 11.2161 6.64302 11.2161 9.02142C11.2161 9.06815 11.2168 9.11493 11.2181 9.16176C8.32289 8.85768 5.78932 7.55513 4.04794 5.66404L3.48158 5.04898L3.02709 5.74616C2.61758 6.37435 2.3707 7.10497 2.3707 7.89775C2.3707 8.52792 2.52619 9.1238 2.79997 9.65709L2.33971 9.43318V10.4828C2.33971 11.5585 2.78497 12.5248 3.50128 13.2602L3.41453 13.2432L3.79976 14.2843C4.23429 15.4586 5.21375 16.3944 6.4509 16.8667C5.63713 17.3004 5.03674 17.5593 3.90622 17.5593C3.58993 17.5593 3.29589 17.5468 3.00718 17.5142L0.658203 17.2485L2.54626 18.632C4.23883 19.8723 6.04991 20.3 8.42738 20.3C16.2852 20.3 20.6451 14.5205 20.6451 9.44349C20.6451 9.39519 20.6446 9.34757 20.6436 9.30059ZM20.982 7.10876C20.982 7.10875 20.982 7.10876 20.982 7.10876ZM21.2018 7.04762C21.3879 6.99325 21.5712 6.93298 21.7515 6.86685C21.6704 6.89661 21.5886 6.92519 21.5062 6.95258C21.4056 6.98604 21.3041 7.01772 21.2018 7.04762ZM11.5421 9.49238C11.4401 9.48457 11.3385 9.47555 11.2374 9.46533C8.25116 9.16383 5.63002 7.82502 3.82726 5.86725C5.69108 7.89133 8.42965 9.25381 11.5421 9.49238C11.5421 9.49239 11.5421 9.49238 11.5421 9.49238ZM3.65393 10.363C3.65394 10.3631 3.65393 10.363 3.65393 10.363ZM4.66654 13.7855C4.66654 13.7855 4.66653 13.7855 4.66654 13.7855ZM7.22992 16.7875C7.11545 16.8487 7.00596 16.9081 6.90022 16.9654L6.84094 16.9976C5.88632 17.515 5.22495 17.8593 3.90622 17.8593C5.25207 17.8593 5.91324 17.5007 6.90022 16.9654C7.00596 16.9081 7.11545 16.8487 7.22992 16.7875C7.22993 16.7875 7.22992 16.7875 7.22992 16.7875ZM3.40861 6.35147C3.40384 6.36037 3.39911 6.3693 3.39441 6.37824L3.40861 6.35147ZM21.4723 5.69207C21.4723 5.69206 21.4723 5.69207 21.4723 5.69207ZM4.29427 10.5163C4.45746 10.6523 4.63309 10.7761 4.81926 10.8862C4.81927 10.8862 4.81926 10.8862 4.81926 10.8862C4.64689 10.7843 4.48357 10.6706 4.33078 10.5464L4.29427 10.5163ZM2.99561 10.7817C2.99649 10.7911 2.9974 10.8005 2.99835 10.8098L2.99561 10.7817ZM5.46496 13.802C5.71211 13.8953 5.97151 13.9674 6.24018 14.016C6.24018 14.016 6.24017 14.016 6.24018 14.016C5.99144 13.9711 5.75067 13.9058 5.52018 13.8224C5.50171 13.8157 5.48331 13.8089 5.46496 13.802ZM4.54475 14.3994L4.55775 14.4254ZM4.55775 14.4254C4.62743 14.5632 4.7065 14.6965 4.79425 14.8247ZM7.66652 16.5363C7.84227 16.5604 8.02174 16.5746 8.20418 16.578C8.20419 16.578 8.20418 16.578 8.20418 16.578C8.03742 16.5749 7.87316 16.5627 7.71194 16.5423L7.66652 16.5363ZM3.31983 18.3932C3.37908 18.4296 3.4393 18.4652 3.50047 18.5L3.45567 18.4743C3.40984 18.4477 3.36456 18.4207 3.31983 18.3932ZM21.6246 7.59908C21.6358 7.58652 21.647 7.57393 21.6581 7.56131L21.6246 7.59908ZM22.0045 7.14059C22.0119 7.13099 22.0192 7.12137 22.0266 7.11174ZM20.2919 7.2874C20.1273 7.41542 19.9508 7.53199 19.7639 7.63586C19.9665 7.52327 20.157 7.39574 20.3332 7.25487C20.3195 7.26579 20.3058 7.27664 20.2919 7.2874ZM3.31275 7.89775C3.31275 7.42903 3.42622 6.9849 3.62954 6.57725C5.61146 8.5774 8.41926 9.89865 11.5759 10.1205C11.6966 10.129 11.8178 10.1359 11.9395 10.1412L12.3435 10.1586L12.243 9.76687C12.2187 9.67225 12.2001 9.57473 12.1866 9.47422C12.1671 9.32934 12.1582 9.17847 12.1582 9.02142C12.1582 7.23896 13.8018 5.72456 15.9226 5.72456C17.0092 5.72456 17.9988 6.13231 18.6877 6.78092L18.7973 6.88409L18.9455 6.85792C19.5924 6.74369 20.2135 6.56787 20.8005 6.33248C20.6197 6.58652 20.3994 6.81788 20.1459 7.02053C19.9615 7.16788 19.7597 7.29993 19.5431 7.41428L19.7167 7.97771C19.9958 7.94635 20.2714 7.90396 20.5429 7.85056C20.7269 7.81438 20.909 7.77313 21.089 7.72683C20.7128 8.09859 20.293 8.43322 19.8287 8.72455L19.6786 8.81876L19.6887 8.99573C19.6972 9.1449 19.7031 9.29225 19.7031 9.44349C19.7031 14.0299 15.7449 19.3761 8.42738 19.3761C6.63724 19.3761 5.39727 19.1346 4.0991 18.4809C5.70737 18.4423 6.58488 17.9172 7.78107 17.2014L7.90004 17.1303C8.06249 17.0332 8.22086 16.9313 8.37485 16.8248L9.13957 16.2958L8.20993 16.2781C8.03924 16.2748 7.87148 16.2616 7.70733 16.239C6.46493 16.0685 5.43474 15.3668 4.90013 14.4289C4.9922 14.4329 5.08379 14.4344 5.17389 14.4344C5.25778 14.4344 5.34116 14.4326 5.4239 14.4289C5.73037 14.4152 6.0289 14.3758 6.31069 14.3076L6.29359 13.7208C6.04283 13.6755 5.80101 13.6081 5.57087 13.5213C4.35707 13.0633 3.48446 12.072 3.31279 10.9077C3.56096 10.9969 3.8218 11.0674 4.08989 11.1152C4.3265 11.1574 4.56922 11.182 4.81424 11.1861L5.94844 11.2052L4.97194 10.6279C4.79946 10.526 4.63701 10.4114 4.48631 10.2858C3.76113 9.68159 3.31275 8.82841 3.31275 7.89775Z" fill="#653E28"/>
</svg>
