<svg width="24" height="24" viewBox="0 0 24 24" fill="none" xmlns="http://www.w3.org/2000/svg">
<path fill-rule="evenodd" clip-rule="evenodd" d="M16.8212 6.24035L16.8304 6.22047C16.9434 5.97635 17.1309 5.66377 17.4582 5.41487C17.8011 5.1541 18.2207 5.02135 18.691 5.02135H20.8727C21.3297 5.02135 21.945 5.13717 22.3229 5.67849C22.6738 6.18128 22.599 6.74016 22.4967 7.08864C22.3868 7.55535 22.1114 8.12555 21.8341 8.64101C21.5301 9.20613 21.1579 9.82296 20.8029 10.3868C20.4466 10.9528 20.1008 11.4763 19.8468 11.8564C19.7549 11.9938 19.6741 12.114 19.6099 12.2093C19.5857 12.2453 19.5638 12.2778 19.5447 12.3064C19.5202 12.3428 19.501 12.3715 19.4865 12.3933C19.574 12.4894 19.7268 12.6428 19.9583 12.8718L19.9628 12.8763C20.2375 13.1481 20.583 13.4898 20.8677 13.824C21.3354 14.3599 21.7697 14.8751 22.1148 15.3439C22.4466 15.7945 22.7611 16.2867 22.9087 16.7663L22.9134 16.7813L22.9175 16.7965C23.0465 17.2679 23.0686 17.895 22.639 18.406C22.2307 18.8916 21.637 19 21.1905 19H19.0088C18.648 19 18.3135 18.9214 17.9961 18.7514C17.7014 18.5935 17.4627 18.378 17.2609 18.1731C17.1007 18.0104 16.9248 17.8128 16.7417 17.6071C16.6983 17.5582 16.6544 17.5089 16.6102 17.4595C16.3716 17.1928 16.0924 16.886 15.7418 16.5323C15.2689 16.0717 14.9281 15.7959 14.6922 15.6312V17.1246C14.6922 17.4785 14.6396 18.1429 13.9928 18.5802C13.5001 18.9133 12.8264 18.9786 12.1248 18.9786C9.41926 18.9786 6.57587 17.3469 4.63163 14.5141C3.23486 12.5332 2.33659 10.7822 1.78435 9.43545C1.5082 8.762 1.31681 8.18534 1.19292 7.72752C1.07691 7.29884 1 6.90262 1 6.61922C1 6.38204 1.03146 5.90797 1.39748 5.51133C1.77356 5.10379 2.29159 5 2.74135 5H4.94423C5.36739 5 5.83824 5.09415 6.23478 5.4582C6.5797 5.77485 6.75061 6.19689 6.86442 6.52944C7.38073 8.02944 8.0684 9.43301 8.70391 10.4465C8.78581 10.5771 8.8657 10.6994 8.94307 10.8132V8.69921C8.90948 8.17982 8.77066 7.9601 8.66675 7.8164C8.63161 7.76781 8.59633 7.72329 8.54805 7.66234L8.54088 7.6533C8.49645 7.59721 8.43092 7.5145 8.37045 7.42522C8.23647 7.22741 8.07463 6.923 8.07463 6.51245C8.07463 5.71153 8.7266 5 9.62535 5H13.0568C13.4741 5 13.9918 5.12347 14.3477 5.59551C14.6509 5.99763 14.6922 6.47767 14.6922 6.81139V10.0045C15.2378 9.29405 15.7215 8.4733 16.0959 7.76262C16.3238 7.32992 16.5048 6.95014 16.6284 6.67969C16.6901 6.54467 16.7373 6.43743 16.7685 6.36511C16.7841 6.32896 16.7957 6.30158 16.8032 6.28386L16.8112 6.26465L16.8128 6.26069L16.8212 6.24035ZM17.7379 6.64057C17.7379 6.64057 16.6153 9.37366 15.0478 11.1459C14.5395 11.6584 14.3065 11.8292 14.0311 11.8292C13.8828 11.8292 13.6922 11.6584 13.6922 11.1886V6.81139C13.6922 6.25623 13.5227 6 13.0568 6H9.62535C9.28644 6 9.07463 6.25623 9.07463 6.51245C9.07463 6.71679 9.18947 6.86168 9.33598 7.04654C9.57221 7.34459 9.89078 7.74652 9.94307 8.66904V11.9146C9.94307 12.6192 9.81598 12.7473 9.54062 12.7473C8.79927 12.7473 6.99884 9.99288 5.91858 6.85409C5.70677 6.23488 5.49495 6 4.94423 6H2.74135C2.10591 6 2 6.29893 2 6.61922C2 7.19573 2.74135 10.0996 5.45259 13.9431C7.25302 16.5694 9.81598 17.9786 12.1248 17.9786C13.5227 17.9786 13.6922 17.6584 13.6922 17.1246V15.1388C13.6922 14.4982 13.8193 14.3915 14.2641 14.3915C14.5818 14.3915 15.1537 14.5623 16.4458 15.8221C16.8908 16.2706 17.2251 16.6461 17.4974 16.9519C18.1326 17.6653 18.4306 18 19.0088 18H21.1905C21.8259 18 22.1224 17.6797 21.953 17.0605C21.7624 16.4413 21.0422 15.5445 20.1102 14.4769C19.8524 14.1737 19.5294 13.8541 19.2431 13.5709C18.9647 13.2956 18.7212 13.0547 18.6063 12.8968C18.2886 12.4698 18.3733 12.2989 18.6063 11.9146C18.6095 11.9055 18.6737 11.8094 18.7812 11.6496C18.8721 11.5145 18.9939 11.3335 19.136 11.1198C19.1795 11.0543 19.2249 10.9858 19.2719 10.9146C20.0759 9.69639 21.3441 7.69453 21.5294 6.83274C21.6776 6.36299 21.5294 6.02135 20.8727 6.02135H18.691C18.1403 6.02135 17.8861 6.32028 17.7379 6.64057ZM9.77697 11.7946C9.78364 11.7979 9.78711 11.8003 9.78711 11.8003C9.78711 11.8003 9.78383 11.7989 9.77697 11.7946Z" fill="#653E28"/>
</svg>
