<svg width="24" height="24" viewBox="0 0 24 24" fill="none" xmlns="http://www.w3.org/2000/svg">
<path fill-rule="evenodd" clip-rule="evenodd" d="M19.53 21C21.0707 21 22.0328 19.3312 21.2609 17.9979L13.7298 4.98963C12.9595 3.65906 11.0384 3.65905 10.2681 4.98962L2.73698 17.9979C1.96505 19.3312 2.92717 21 4.46784 21H19.53ZM11.9989 18C11.4467 18 10.9989 17.5523 10.9989 17C10.9989 16.4477 11.4467 16 11.9989 16C12.5512 16 12.9989 16.4477 12.9989 17C12.9989 17.5523 12.5512 18 11.9989 18ZM10.9989 13C10.9989 13.5523 11.4467 14 11.9989 14C12.5512 14 12.9989 13.5523 12.9989 13V11C12.9989 10.4477 12.5512 9.99997 11.9989 9.99997C11.4467 9.99997 10.9989 10.4477 10.9989 11V13Z" fill="#DB717A"/>
</svg>
