<svg width="24" height="24" viewBox="0 0 24 24" fill="none" xmlns="http://www.w3.org/2000/svg">
<path d="M19.2561 4.77297C17.4959 2.97568 15.0627 2 12.5777 2C7.297 2 3.05177 6.26216 3.10354 11.4486C3.10354 13.0919 3.56948 14.6838 4.34605 16.1216L3 21L8.0218 19.7162C9.41962 20.4865 10.9728 20.8459 12.5259 20.8459C17.7548 20.8459 22 16.5838 22 11.3973C22 8.88108 21.0163 6.51892 19.2561 4.77297ZM12.5777 19.2541C11.1798 19.2541 9.78202 18.8946 8.59128 18.1757L8.28065 18.0216L5.27793 18.7919L6.0545 15.8649L5.84741 15.5568C3.56948 11.9108 4.65668 7.08378 8.3842 4.82432C12.1117 2.56486 16.9264 3.64324 19.2044 7.34054C21.4823 11.0378 20.3951 15.8135 16.6676 18.073C15.4768 18.8432 14.0272 19.2541 12.5777 19.2541ZM17.1335 13.5541L16.564 13.2973C16.564 13.2973 15.7357 12.9378 15.218 12.6811C15.1662 12.6811 15.1144 12.6297 15.0627 12.6297C14.9074 12.6297 14.8038 12.6811 14.7003 12.7324C14.7003 12.7324 14.6485 12.7838 13.9237 13.6054C13.8719 13.7081 13.7684 13.7595 13.6649 13.7595H13.6131C13.5613 13.7595 13.4578 13.7081 13.406 13.6568L13.1471 13.5541C12.5777 13.2973 12.0599 12.9892 11.6458 12.5784C11.5422 12.4757 11.3869 12.373 11.2834 12.2703C10.921 11.9108 10.5586 11.5 10.2997 11.0378L10.248 10.9351C10.1962 10.8838 10.1962 10.8324 10.1444 10.7297C10.1444 10.627 10.1444 10.5243 10.1962 10.473C10.1962 10.473 10.4033 10.2162 10.5586 10.0622C10.6621 9.95946 10.7139 9.80541 10.8174 9.7027C10.921 9.54865 10.9728 9.34324 10.921 9.18919C10.8692 8.93243 10.248 7.54595 10.0926 7.23784C9.9891 7.08378 9.88556 7.03243 9.73025 6.98108H9.57493C9.47139 6.98108 9.31608 6.98108 9.16076 6.98108C9.05722 6.98108 8.95368 7.03243 8.85014 7.03243L8.79837 7.08378C8.69482 7.13513 8.59128 7.23784 8.48774 7.28919C8.3842 7.39189 8.33243 7.49459 8.22888 7.5973C7.86649 8.05946 7.6594 8.62432 7.6594 9.18919C7.6594 9.6 7.76294 10.0108 7.91826 10.3703L7.97003 10.5243C8.43597 11.5 9.05722 12.373 9.88556 13.1432L10.0926 13.3486C10.248 13.5027 10.4033 13.6054 10.5068 13.7595C11.594 14.6838 12.8365 15.3514 14.2343 15.7108C14.3896 15.7622 14.5967 15.7622 14.752 15.8135C14.9074 15.8135 15.1144 15.8135 15.2698 15.8135C15.5286 15.8135 15.8392 15.7108 16.0463 15.6081C16.2016 15.5054 16.3052 15.5054 16.4087 15.4027L16.5123 15.3C16.6158 15.1973 16.7193 15.1459 16.8229 15.0432C16.9264 14.9405 17.03 14.8378 17.0817 14.7351C17.1853 14.5297 17.2371 14.273 17.2888 14.0162C17.2888 13.9135 17.2888 13.7595 17.2888 13.6568C17.2888 13.6568 17.2371 13.6054 17.1335 13.5541Z" fill="white"/>
</svg>
