<?xml version="1.0" encoding="utf-8"?>
<!-- Generator: Adobe Illustrator 25.0.0, SVG Export Plug-In . SVG Version: 6.00 Build 0)  -->
<svg version="1.1" id="Слой_1" xmlns="http://www.w3.org/2000/svg" xmlns:xlink="http://www.w3.org/1999/xlink" x="0px" y="0px"
	 viewBox="0 0 290 290" style="enable-background:new 0 0 290 290;" xml:space="preserve">
<style type="text/css">
	.st0{fill-rule:evenodd;clip-rule:evenodd;}
</style>
<desc>Created with Fabric.js 1.7.22</desc>
<g transform="translate(128 128) scale(0.72 0.72)">
	<g transform="translate(-175.05 -175.05000000000004) scale(3.89 3.89)">
		<path class="st0" d="M82.8,19.1C74.4,10.7,63.2,6.1,51.3,6.1c-24.6,0-44.6,20-44.6,44.6c0,7.9,2.1,15.5,6,22.3L6.3,96.1l23.6-6.2
			c6.5,3.6,13.8,5.4,21.3,5.4h0c0,0,0,0,0,0c24.6,0,44.6-20,44.6-44.6C95.9,38.8,91.2,27.6,82.8,19.1z M33.1,52.3
			c-0.6-0.7-4.5-6-4.5-11.5s2.9-8.2,3.9-9.3c1-1.1,2.2-1.4,3-1.4s1.5,0,2.1,0c0.7,0,1.6-0.3,2.5,1.9c0.9,2.2,3.2,7.7,3.4,8.3
			c0.3,0.6,0.5,1.2,0.1,2c-0.4,0.7-0.6,1.2-1.1,1.9s-1.2,1.5-1.7,2c-0.6,0.6-1.1,1.2-0.5,2.3c0.7,1.1,2.9,4.8,6.2,7.7
			c4.3,3.8,7.8,5,9,5.5c1.1,0.6,1.8,0.5,2.4-0.3s2.8-3.3,3.5-4.4c0.7-1.1,1.5-0.9,2.5-0.6c1,0.4,6.5,3.1,7.6,3.6
			c1.1,0.6,1.9,0.8,2.1,1.3c0.3,0.5,0.3,2.7-0.7,5.3c-0.9,2.6-5.4,5-7.5,5.3c-1.9,0.3-4.3,0.4-7-0.4c-1.6-0.5-3.7-1.2-6.4-2.3
			C41,64.3,33.7,53,33.1,52.3z"/>
	</g>
</g>
</svg>
