<svg width="24" height="24" viewBox="0 0 24 24" fill="none" xmlns="http://www.w3.org/2000/svg">
<g id="WhatsApp">
<g id="Union">
<path fill-rule="evenodd" clip-rule="evenodd" d="M17.5778 12.6582L17.5613 12.65L17.5446 12.6424C17.4563 12.6026 17.3335 12.5361 17.157 12.4362L17.0518 12.3764C16.9106 12.296 16.7482 12.2036 16.5874 12.1178C16.3835 12.0091 16.1504 11.8935 15.912 11.8038C15.6839 11.718 15.3844 11.6297 15.0627 11.6297C14.6705 11.6297 14.3903 11.7695 14.2699 11.8296L14.256 11.8365L14.111 11.9085L13.9961 12.0224C13.8564 12.1609 13.7372 12.3291 13.6653 12.4312C13.6408 12.466 13.6186 12.4976 13.598 12.5271C13.542 12.6074 13.4973 12.6714 13.4474 12.7362C13.132 12.6709 12.7629 12.4662 12.3602 12.0935C11.9285 11.6939 11.5479 11.1821 11.269 10.7162L11.2921 10.6859C11.3892 10.5591 11.4612 10.4727 11.5217 10.4127L11.5921 10.3428L11.6474 10.2605C11.8469 9.96377 12.0409 9.4563 11.8859 8.92493C11.8453 8.76582 11.7717 8.57788 11.7208 8.44982C11.6475 8.26533 11.5556 8.04776 11.4629 7.8344C11.2806 7.4146 11.0769 6.96885 10.9856 6.78769L10.9575 6.73187L10.9226 6.67999C10.6537 6.27994 10.264 6.04529 9.83812 5.972C9.44926 5.90507 9.08826 5.98091 8.81698 6.07415C8.28265 6.2578 7.80404 6.61021 7.52468 6.8873L7.48044 6.93119L7.44198 6.98023C6.95317 7.60361 6.65942 8.38243 6.65942 9.18917C6.65942 10.2817 7.11403 11.2522 7.6449 12.0396C8.17791 12.8301 8.84665 13.5212 9.38844 14.0586C10.6504 15.3103 12.2204 16.2195 13.9549 16.6714C14.7334 16.9188 15.7076 16.8923 16.4907 16.504L16.5462 16.4764L16.5979 16.4422C17.2499 16.0111 18.0409 15.3456 18.2691 14.2139L18.2889 14.116V14.0162C18.2889 14.0013 18.2892 13.9942 18.2902 13.9754C18.291 13.962 18.292 13.9425 18.2935 13.9103L18.2936 13.9082C18.2959 13.8563 18.3017 13.7262 18.2777 13.5796C18.2495 13.4084 18.1809 13.2076 18.0316 13.019C17.89 12.8401 17.7206 12.729 17.5778 12.6582ZM10.1962 10.473C10.1444 10.5243 10.1444 10.627 10.1444 10.7297L10.2998 11.0378C10.9401 12.1811 12.221 13.7594 13.6649 13.7594C13.9574 13.7594 14.2097 13.3981 14.4279 13.0854C14.5253 12.9459 14.6159 12.8161 14.7003 12.7324C14.8038 12.6811 14.9074 12.6297 15.0627 12.6297C15.4751 12.6297 16.0539 12.9591 16.5507 13.2418C16.7675 13.3652 16.9686 13.4797 17.1335 13.554C17.3063 13.6397 17.3008 13.7453 17.2927 13.9008C17.2908 13.9365 17.2889 13.9748 17.2889 14.0162C17.1408 14.7507 16.6288 15.2229 16.0463 15.6081C15.5132 15.8725 14.797 15.8968 14.2344 15.7108C12.6638 15.3069 11.2388 14.4855 10.0927 13.3486C9.02068 12.2853 7.65942 10.8168 7.65942 9.18917C7.65942 8.62431 7.86651 8.05944 8.22891 7.59728C8.62656 7.20285 9.64497 6.57172 10.0927 7.23782C10.248 7.54593 10.8692 8.93241 10.921 9.18917C10.9728 9.34322 10.921 9.54863 10.8175 9.70268C10.6685 9.85047 10.5288 10.0363 10.3931 10.2168C10.3268 10.3051 10.2613 10.3922 10.1962 10.473Z" fill="white"/>
<path fill-rule="evenodd" clip-rule="evenodd" d="M4.34605 16.1216L3 21L8.0218 19.7162C9.41962 20.4865 10.9728 20.8459 12.5259 20.8459C17.7548 20.8459 22 16.5838 22 11.3973C22 8.88108 21.0163 6.51892 19.2561 4.77297C17.4959 2.97568 15.0627 2 12.5777 2C7.297 2 3.05177 6.26216 3.10354 11.4486C3.10354 13.0919 3.56948 14.6838 4.34605 16.1216ZM18.5417 5.47267L18.5468 5.47785L18.5519 5.48295C20.1212 7.03957 21 9.14548 21 11.3973C21 16.0309 17.2031 19.8459 12.5259 19.8459C11.1264 19.8459 9.74173 19.5222 8.50442 18.8404L8.15768 18.6493L4.4225 19.6042L5.41695 16.0001L5.22592 15.6464C4.51558 14.3312 4.10359 12.9013 4.10359 11.4486L4.10349 11.4387C4.05737 6.81836 7.84312 3 12.5777 3C14.8049 3 16.9772 3.87523 18.5417 5.47267Z" fill="white"/>
</g>
</g>
</svg>
