<svg width="24" height="24" viewBox="0 0 24 24" fill="none" xmlns="http://www.w3.org/2000/svg">
<path fill-rule="evenodd" clip-rule="evenodd" d="M13.2505 18.6965L18.3062 20.7612C18.4029 20.7984 18.4922 20.817 18.574 20.817C18.7005 20.817 18.8158 20.7873 18.92 20.7277C19.1209 20.6087 19.2399 20.4413 19.2771 20.2255L22.1342 3.08266C22.1789 2.78504 22.0784 2.54695 21.8329 2.36837C21.7139 2.28653 21.5799 2.24561 21.4311 2.24561C21.3046 2.24561 21.1856 2.27909 21.074 2.34605L2.50291 13.0603C2.24993 13.2017 2.13089 13.4212 2.14577 13.7188C2.16809 14.0239 2.3169 14.2285 2.59219 14.3327L8.00059 16.1407C8.00059 16.1407 11.6862 13.0299 14.2299 10.9748C14.917 10.4196 15.5207 9.94155 15.946 9.62256C15.6114 10.4035 15.3078 11.06 15.0282 11.6156C13.7766 14.1026 13.005 14.5694 12.0711 15.1344C11.3433 15.5747 10.5171 16.0745 9.28849 17.6362C9.01098 19.1318 9.28849 21.5313 9.28849 21.5313C9.28849 21.6801 9.33127 21.8159 9.41684 21.9387C9.5024 22.0615 9.61587 22.1489 9.75723 22.201C9.8242 22.2307 9.90604 22.2456 10.0028 22.2456C10.2334 22.2456 10.4157 22.16 10.5496 21.9889L13.2505 18.6965ZM10.2261 20.8066C10.2107 20.6041 10.195 20.3631 10.1835 20.1006C10.1534 19.4193 10.1541 18.6567 10.2345 18.0542C11.2502 16.8038 11.891 16.4152 12.5617 16.0085C12.7831 15.8743 13.0077 15.7381 13.2501 15.5683C14.3812 14.776 15.347 13.559 16.8652 10.0165L18.3388 6.57796L15.346 8.82256C14.3221 9.59052 12.315 11.2376 10.5844 12.6748C9.71459 13.3972 8.90756 14.0725 8.31806 14.5671C8.11175 14.7402 7.93204 14.8912 7.78556 15.0144L3.56346 13.603L21.0483 3.51535L18.351 19.6994L12.9454 17.4917L10.2261 20.8066Z" fill="white"/>
</svg>
